<?xml version="1.0" standalone="no"?>
<!DOCTYPE svg PUBLIC "-//W3C//DTD SVG 20010904//EN"
 "http://www.w3.org/TR/2001/REC-SVG-20010904/DTD/svg10.dtd">
<svg version="1.0" xmlns="http://www.w3.org/2000/svg"
 width="200.000000pt" height="200.000000pt" viewBox="0 0 200.000000 200.000000"
 preserveAspectRatio="xMidYMid meet">

<g transform="translate(0.000000,200.000000) scale(0.100000,-0.100000)"
fill="#000000" stroke="none">
<path d="M300 1175 l0 -185 40 0 40 0 0 70 0 70 75 0 75 0 0 -70 0 -70 40 0
40 0 0 185 0 185 -40 0 -40 0 0 -75 0 -75 -75 0 -75 0 0 75 0 75 -40 0 -40 0
0 -185z"/>
<path d="M709 1253 l68 -107 -118 -178 c-66 -98 -119 -180 -119 -183 0 -3 22
-5 48 -5 l49 0 175 263 c96 144 183 274 192 290 l18 27 -51 0 -51 0 -42 -65
c-24 -35 -46 -65 -49 -65 -3 0 -24 29 -47 65 l-41 65 -50 0 -50 0 68 -107z"/>
<path d="M1500 925 c0 -122 2 -145 15 -145 12 0 15 15 15 73 0 82 15 107 63
107 36 0 47 -25 47 -109 0 -56 3 -71 15 -71 12 0 15 16 15 85 0 73 -3 88 -21
106 -21 21 -59 23 -101 4 -16 -6 -18 -1 -18 44 0 39 -4 51 -15 51 -13 0 -15
-23 -15 -145z"/>
<path d="M893 1033 c-7 -2 -13 -13 -13 -23 0 -10 -7 -20 -15 -24 -8 -3 -15
-10 -15 -16 0 -5 7 -10 15 -10 12 0 15 -15 15 -73 0 -59 4 -77 18 -90 24 -22
104 -24 96 -3 -3 8 -13 12 -25 9 -36 -10 -49 14 -49 88 l0 69 31 0 c20 0 29 4
26 13 -2 6 -16 11 -30 11 -23 -1 -27 3 -27 27 0 29 -4 32 -27 22z"/>
<path d="M1085 979 c-38 -22 -55 -53 -55 -101 0 -40 4 -50 31 -72 23 -20 41
-26 77 -26 51 0 78 12 68 28 -4 7 -17 7 -40 0 -43 -14 -87 6 -97 45 l-7 27 84
0 84 0 0 28 c0 56 -93 101 -145 71z m95 -39 c30 -30 17 -40 -51 -40 -63 0 -72
9 -42 42 22 24 68 23 93 -2z"/>
<path d="M1325 975 c-43 -23 -55 -43 -55 -96 0 -63 34 -99 94 -99 57 0 86 9
79 25 -3 11 -11 11 -31 4 -31 -12 -76 -3 -93 18 -12 14 -21 113 -10 110 4 -1
17 5 30 12 15 8 38 11 62 7 45 -7 62 10 24 24 -37 14 -65 12 -100 -5z"/>
<path d="M1211 694 c0 -11 3 -14 6 -6 3 7 2 16 -1 19 -3 4 -6 -2 -5 -13z"/>
<path d="M537 669 c4 -13 8 -18 11 -10 2 7 -1 18 -6 23 -8 8 -9 4 -5 -13z"/>
<path d="M710 670 c0 -11 4 -20 9 -20 5 0 7 9 4 20 -3 11 -7 20 -9 20 -2 0 -4
-9 -4 -20z"/>
<path d="M910 676 c0 -8 -6 -17 -12 -19 -8 -3 -6 -6 5 -6 11 -1 17 6 17 19 0
11 -2 20 -5 20 -3 0 -5 -6 -5 -14z"/>
<path d="M1227 671 c-4 -17 -3 -21 5 -13 5 5 8 16 6 23 -3 8 -7 3 -11 -10z"/>
<path d="M1353 672 c0 -12 5 -22 9 -22 11 0 10 12 -2 30 -7 12 -9 10 -7 -8z"/>
<path d="M1385 680 c-8 -13 3 -30 18 -30 8 0 7 3 -2 9 -7 5 -10 14 -7 20 4 6
5 11 2 11 -3 0 -8 -4 -11 -10z"/>
<path d="M1432 670 c0 -14 2 -19 5 -12 2 6 2 18 0 25 -3 6 -5 1 -5 -13z"/>
<path d="M1542 670 c0 -14 2 -19 5 -12 2 6 2 18 0 25 -3 6 -5 1 -5 -13z"/>
<path d="M1591 676 c-1 -13 -6 -16 -18 -11 -15 5 -16 4 -5 -6 15 -16 37 2 29
23 -4 8 -6 6 -6 -6z"/>
<path d="M1611 674 c0 -11 3 -14 6 -6 3 7 2 16 -1 19 -3 4 -6 -2 -5 -13z"/>
<path d="M1060 665 c0 -8 4 -15 10 -15 5 0 7 7 4 15 -4 8 -8 15 -10 15 -2 0
-4 -7 -4 -15z"/>
<path d="M1251 664 c0 -11 3 -14 6 -6 3 7 2 16 -1 19 -3 4 -6 -2 -5 -13z"/>
<path d="M1472 664 c-7 -8 -8 -14 -3 -14 10 0 25 19 20 25 -2 1 -10 -3 -17
-11z"/>
<path d="M1664 672 c3 -5 0 -13 -6 -15 -9 -4 -10 -6 -1 -6 17 -1 25 16 12 25
-7 4 -9 3 -5 -4z"/>
<path d="M640 660 c-13 -8 -12 -10 3 -10 9 0 17 5 17 10 0 12 -1 12 -20 0z"/>
<path d="M847 659 c7 -7 15 -10 18 -7 3 3 -2 9 -12 12 -14 6 -15 5 -6 -5z"/>
<path d="M1170 660 c-13 -8 -12 -10 3 -10 9 0 17 5 17 10 0 12 -1 12 -20 0z"/>
</g>
</svg>
