ISO-10303-21;
HEADER;
FILE_DESCRIPTION(('ViewDefinition[CoordinationView_V2.0, QuantityTakeOffAddOnView]', 'Option [BaseQuantities:On]', 'Option [GridExport:On]', 'Option [Assemblies:On]', 'Option [Bolts:On]', 'Option [Rebars:On]', 'Option [PourObjects:Off]', 'Option [Welds:On]', 'Option [SurfaceTreatments:On]', 'Option [LocationBy:-1]', 'Option [ViewColors:On]', 'Option [SectionedSpine:Off]', 'Option [PropertySets:On]', 'Option [Export all:On]'),'2;1');
FILE_NAME('SIM25031-A06-CIV-3D-3001-CAMARAS-CANEROS.ifc','2026-03-17T13:05:36',('HYTECH\\cvargas'),('Structural Designer'),'IFC Parser Version: 3.13.2','Tekla Structures 2022 Service Pack 4, IFC Export Version: 4.0.0.0 Aug 24 2022','');
FILE_SCHEMA(('IFC2X3'));
ENDSEC;

DATA;
#1= IFCPERSON('HYTECH\\cvargas','Undefined',$,$,$,$,$,$);
#2= IFCORGANIZATION($,'Trimble Solutions Corporation',$,$,$);
#3= IFCPERSONANDORGANIZATION(#1,#2,$);
#4= IFCAPPLICATION(#2,'2022 Service Pack 4','Tekla Structures','Multi material modeling');
#5= IFCOWNERHISTORY(#3,#4,$,.NOCHANGE.,$,$,$,1773763536);
#6= IFCCARTESIANPOINT((0.,0.,0.));
#7= IFCDIRECTION((1.,0.,0.));
#8= IFCDIRECTION((0.,1.,0.));
#9= IFCDIRECTION((0.,0.,1.));
#10= IFCAXIS2PLACEMENT3D(#6,#9,#7);
#11= IFCDIRECTION((0.,1.));
#12= IFCGEOMETRICREPRESENTATIONCONTEXT($,'Model',3,1.E-05,#10,#11);
#13= IFCGEOMETRICREPRESENTATIONSUBCONTEXT('Body','Model',*,*,*,*,#12,$,.MODEL_VIEW.,$);
#14= IFCGEOMETRICREPRESENTATIONSUBCONTEXT('Axis','Model',*,*,*,*,#12,$,.GRAPH_VIEW.,$);
#15= IFCGEOMETRICREPRESENTATIONSUBCONTEXT('FootPrint','Model',*,*,*,*,#12,$,.MODEL_VIEW.,$);
#16= IFCSIUNIT(*,.LENGTHUNIT.,.MILLI.,.METRE.);
#17= IFCMEASUREWITHUNIT(IFCRATIOMEASURE(304.8),#16);
#18= IFCDIMENSIONALEXPONENTS(1,0,0,0,0,0,0);
#19= IFCCONVERSIONBASEDUNIT(#18,.LENGTHUNIT.,'FOOT',#17);
#20= IFCSIUNIT(*,.AREAUNIT.,$,.SQUARE_METRE.);
#21= IFCMEASUREWITHUNIT(IFCRATIOMEASURE(0.09290304),#20);
#22= IFCDIMENSIONALEXPONENTS(2,0,0,0,0,0,0);
#23= IFCCONVERSIONBASEDUNIT(#22,.AREAUNIT.,'SQUARE FOOT',#21);
#24= IFCSIUNIT(*,.VOLUMEUNIT.,$,.CUBIC_METRE.);
#25= IFCMEASUREWITHUNIT(IFCRATIOMEASURE(0.028316846592),#24);
#26= IFCDIMENSIONALEXPONENTS(3,0,0,0,0,0,0);
#27= IFCCONVERSIONBASEDUNIT(#26,.VOLUMEUNIT.,'CUBIC FOOT',#25);
#28= IFCSIUNIT(*,.MASSUNIT.,.KILO.,.GRAM.);
#29= IFCSIUNIT(*,.TIMEUNIT.,$,.SECOND.);
#30= IFCSIUNIT(*,.PLANEANGLEUNIT.,$,.RADIAN.);
#31= IFCMEASUREWITHUNIT(IFCRATIOMEASURE(0.0174532925199433),#30);
#32= IFCDIMENSIONALEXPONENTS(0,0,0,0,0,0,0);
#33= IFCCONVERSIONBASEDUNIT(#32,.PLANEANGLEUNIT.,'DEGREE',#31);
#34= IFCSIUNIT(*,.SOLIDANGLEUNIT.,$,.STERADIAN.);
#35= IFCSIUNIT(*,.THERMODYNAMICTEMPERATUREUNIT.,$,.DEGREE_CELSIUS.);
#36= IFCSIUNIT(*,.LUMINOUSINTENSITYUNIT.,$,.LUMEN.);
#37= IFCUNITASSIGNMENT((#16,#20,#24,#28,#29,#30,#34,#35,#36));
#38= IFCPROJECT('3rqidZj9nDxhWINLU81MNE',#5,'Project',$,$,$,$,(#12),#37);
#39= IFCCARTESIANPOINT((0.,0.,100000.));
#40= IFCAXIS2PLACEMENT3D(#39,#9,#7);
#41= IFCLOCALPLACEMENT($,#40);
#42= IFCSITE('0Q0GLX5xbARwBgc773VSey',#5,'Site',$,$,#41,$,$,.ELEMENT.,(0,0,0),(0,0,0),$,$,$);
#43= IFCLOCALPLACEMENT(#41,#10);
#44= IFCBUILDING('1_LEsjYB53WB3TMeVVY$0o',#5,'Undefined',$,$,#43,$,$,.ELEMENT.,$,$,$);
#45= IFCLOCALPLACEMENT(#43,#10);
#46= IFCBUILDINGSTOREY('06YMjL$t96chMCh6bLMFV7',#5,'Undefined',$,$,#45,$,$,.ELEMENT.,0.);
#47= IFCOWNERHISTORY(#3,#4,$,.NOCHANGE.,$,$,$,1773763200);
#48= IFCLOCALPLACEMENT(#45,#10);
#49= IFCELEMENTASSEMBLY('3mH$EMnO572gjvx7dqcMHB',#47,'VIGA',$,$,#48,$,'V0(?)',.NOTDEFINED.,.NOTDEFINED.);
#50= IFCPROPERTYSINGLEVALUE('MATERIAL',$,IFCLABEL('H15'),$);
#51= IFCPROPERTYSINGLEVALUE('comment',$,$,$);
#52= IFCPROPERTYSINGLEVALUE('ACN',$,$,$);
#53= IFCPROPERTYSINGLEVALUE('NAME',$,$,$);
#54= IFCPROPERTYSET('1zB7LVX7b4FeJ48PgqhBDW',#5,'Default',$,(#50,#51,#52,#53));
#55= IFCPROPERTYSINGLEVALUE('Cast unit type',$,IFCLABEL('Cast in place'),$);
#56= IFCPROPERTYSINGLEVALUE('Control number',$,$,$);
#57= IFCPROPERTYSINGLEVALUE('Cast unit rebar weight',$,IFCMASSMEASURE(0.),$);
#58= IFCPROPERTYSINGLEVALUE('Assembly/Cast unit weight',$,IFCMASSMEASURE(3839.),$);
#59= IFCPROPERTYSINGLEVALUE('Assembly/Cast unit bottom elevation',$,IFCLABEL(' -2.175'),$);
#60= IFCPROPERTYSINGLEVALUE('Assembly/Cast unit top elevation',$,IFCLABEL(' -2.065'),$);
#61= IFCPROPERTYSINGLEVALUE('Phase',$,IFCINTEGER(1),$);
#62= IFCPROPERTYSINGLEVALUE('Assembly/Cast unit position code',$,IFCLABEL(''),$);
#63= IFCPROPERTYSINGLEVALUE('Assembly/Cast unit Mark',$,IFCLABEL('V0(?)'),$);
#64= IFCPROPERTYSET('3oxJqd46TC1AbMlnbsDuXg',#5,'Tekla Assembly','Assembly Properties',(#55,#56,#57,#58,#59,#60,#61,#62,#63));
#65= IFCQUANTITYLENGTH('Width',$,$,1150.);
#66= IFCELEMENTQUANTITY('1y_E0lxJfAmQ0s1KW2yXu6',#5,'BaseQuantities',$,$,(#65));
#67= IFCCOLOURRGB('Unnamed',0.615686274509804,0.615686274509804,0.662745098039216);
#68= IFCSURFACESTYLERENDERING(#67,0.,$,$,$,$,IFCNORMALISEDRATIOMEASURE(0.00390625),IFCSPECULAREXPONENT(10.),.NOTDEFINED.);
#69= IFCSURFACESTYLE('CONCRETE/H15',.POSITIVE.,(#68));
#70= IFCPRESENTATIONSTYLEASSIGNMENT((#69));
#71= IFCDIRECTION((1.,0.));
#72= IFCCARTESIANPOINT((0.,0.));
#73= IFCAXIS2PLACEMENT2D(#72,#71);
#74= IFCRECTANGLEPROFILEDEF(.AREA.,'50*1150',#73,1150.,50.);
#75= IFCDIRECTION((-6.21254869564067E-18,-1.,-7.91748848002202E-21));
#76= IFCDIRECTION((-1.,-6.21254713692725E-18,-4.33680868994202E-19));
#77= IFCCARTESIANPOINT((28059.89774903,5.83819843508906E-11,4.66916391726152E-13));
#78= IFCAXIS2PLACEMENT3D(#77,#76,#75);
#79= IFCEXTRUDEDAREASOLID(#74,#78,#9,28059.9);
#80= IFCDIRECTION((0.989618644768055,0.143702679489173,0.00211608957023504));
#81= IFCCARTESIANPOINT((27821.3212886204,820.638547318464,24.9128616776145));
#82= IFCDIRECTION((0.00213828299945168,5.93716780624184E-11,-0.999997713870294));
#83= IFCAXIS2PLACEMENT3D(#81,#80,#82);
#84= IFCPLANE(#83);
#85= IFCHALFSPACESOLID(#84,.F.);
#86= IFCBOOLEANCLIPPINGRESULT(.DIFFERENCE.,#79,#85);
#87= IFCDIRECTION((-0.989618644768062,-0.143702679489131,-0.00211608957023505));
#88= IFCCARTESIANPOINT((205.070044090331,-573.211978618288,25.0103057487665));
#89= IFCAXIS2PLACEMENT3D(#88,#87,#82);
#90= IFCPLANE(#89);
#91= IFCHALFSPACESOLID(#90,.F.);
#92= IFCBOOLEANCLIPPINGRESULT(.DIFFERENCE.,#86,#91);
#93= IFCSHAPEREPRESENTATION(#13,'Body','Clipping',(#92));
#94= IFCSTYLEDITEM(#79,(#70),$);
#95= IFCPRODUCTDEFINITIONSHAPE($,$,(#93));
#96= IFCCARTESIANPOINT((416529.565464446,391049.315426982,-2089.99832583291));
#97= IFCDIRECTION((0.000307276937586721,0.00211608957033604,0.999997713870294));
#98= IFCDIRECTION((0.143702350966319,0.989618644768058,-0.00213828299949884));
#99= IFCAXIS2PLACEMENT3D(#96,#97,#98);
#100= IFCLOCALPLACEMENT(#48,#99);
#101= IFCBEAM('2GMo7E3610MvIfVE7Lrnyg',#47,'VIGA','50*1150','BEAM',#100,#95,'Concrete_V-10(?)');
#102= IFCBEAMTYPE('0GWa9YfVX3i8kCaR3gZpaj',#5,'50*1150',$,$,$,$,$,$,.NOTDEFINED.);
#103= IFCPROPERTYSINGLEVALUE('NAME',$,IFCLABEL('VIGA'),$);
#104= IFCPROPERTYSET('2JtoSFGtX3jfBrXKOrqzmO',#5,'Default',$,(#50,#51,#52,#103));
#105= IFCPROPERTYSINGLEVALUE('Finish',$,IFCLABEL(''),$);
#106= IFCPROPERTYSINGLEVALUE('Bottom elevation',$,IFCLABEL(' -2.175'),$);
#107= IFCPROPERTYSINGLEVALUE('Top elevation',$,IFCLABEL(' -2.065'),$);
#108= IFCPROPERTYSINGLEVALUE('Initial GUID',$,$,$);
#109= IFCPROPERTYSINGLEVALUE('Preliminary mark',$,IFCLABEL(''),$);
#110= IFCPROPERTYSINGLEVALUE('Class',$,IFCLABEL('1'),$);
#111= IFCPROPERTYSET('0nCDBv52f6iv1lDZBiPRm1',#5,'Tekla Common','Common Properties to Shared building elements',(#105,#106,#107,#108,#109,#61,#110));
#112= IFCPROPERTYSINGLEVALUE('Weight',$,IFCMASSMEASURE(3838.97),$);
#113= IFCPROPERTYSINGLEVALUE('Volume',$,IFCVOLUMEMEASURE(1.6),$);
#114= IFCPROPERTYSINGLEVALUE('Gross footprint area',$,IFCAREAMEASURE(0.),$);
#115= IFCPROPERTYSINGLEVALUE('Area per tons',$,IFCAREAMEASURE(17.422),$);
#116= IFCPROPERTYSINGLEVALUE('Net surface area',$,IFCAREAMEASURE(66.881),$);
#117= IFCPROPERTYSINGLEVALUE('Height',$,IFCLENGTHMEASURE(50.),$);
#118= IFCPROPERTYSINGLEVALUE('Width',$,IFCLENGTHMEASURE(1150.),$);
#119= IFCPROPERTYSINGLEVALUE('Length',$,IFCLENGTHMEASURE(27985.8),$);
#120= IFCPROPERTYSET('1JmUf8NqL7Kuvtz0XFuFeT',#5,'Tekla Quantity','Quantity Properties to Shared building elements',(#112,#113,#114,#115,#116,#117,#118,#119));
#121= IFCPROPERTYSINGLEVALUE('FireRating',$,$,$);
#122= IFCPROPERTYSINGLEVALUE('IsExternal',$,IFCIDENTIFIER('No'),$);
#123= IFCPROPERTYSINGLEVALUE('LoadBearing',$,IFCBOOLEAN(.F.),$);
#124= IFCPROPERTYSINGLEVALUE('Reference',$,IFCIDENTIFIER('Concrete_V-10(?)'),$);
#125= IFCPROPERTYSET('2ml_erA_14vOX8N6ACXosj',#5,'Pset_BeamCommon','Common Properties to beam elements',(#121,#122,#123,#124));
#126= IFCQUANTITYLENGTH('Length',$,$,27985.750886371);
#127= IFCQUANTITYAREA('OuterSurfaceArea',$,$,66.8809718763719);
#128= IFCQUANTITYVOLUME('NetVolume',$,$,1.59957250669198);
#129= IFCQUANTITYWEIGHT('NetWeight',$,$,3838.97401606075);
#130= IFCELEMENTQUANTITY('0nMM7m1cf62hF2LRlwUcH7',#5,'BaseQuantities',$,$,(#126,#127,#128,#129));
#131= IFCMATERIAL('CONCRETE/H15');
#132= IFCLOCALPLACEMENT(#45,#10);
#133= IFCELEMENTASSEMBLY('1_5JxEppH40vjvTQs72xc2',#47,'VIGA',$,$,#132,$,'V0(?)',.NOTDEFINED.,.NOTDEFINED.);
#134= IFCPROPERTYSINGLEVALUE('MATERIAL',$,$,$);
#135= IFCPROPERTYSET('0PYUSqKFvC2u0dOuNgWko9',#5,'Default',$,(#134,#51,#52,#53));
#136= IFCPROPERTYSINGLEVALUE('Cast unit type',$,$,$);
#137= IFCPROPERTYSINGLEVALUE('Cast unit rebar weight',$,$,$);
#138= IFCPROPERTYSINGLEVALUE('Assembly/Cast unit weight',$,IFCMASSMEASURE(786.7),$);
#139= IFCPROPERTYSINGLEVALUE('Assembly/Cast unit bottom elevation',$,IFCLABEL(' -2.071'),$);
#140= IFCPROPERTYSINGLEVALUE('Assembly/Cast unit top elevation',$,IFCLABEL(' -1.843'),$);
#141= IFCPROPERTYSET('1_tJ6FDdn5x9rq6d6aof5t',#5,'Tekla Assembly','Assembly Properties',(#136,#56,#137,#138,#139,#140,#61,#62,#63));
#142= IFCQUANTITYLENGTH('Width',$,$,168.3);
#143= IFCELEMENTQUANTITY('2Ap$tUhH526AKD__LzPMYP',#5,'BaseQuantities',$,$,(#142));
#144= IFCSURFACESTYLE('STEEL/F24',.POSITIVE.,(#68));
#145= IFCPRESENTATIONSTYLEASSIGNMENT((#144));
#146= IFCCIRCLEHOLLOWPROFILEDEF(.AREA.,'TUBO168.3*7.11',#73,84.15,7.11);
#147= IFCCARTESIANPOINT((28154.8298348299,2.23845001306113E-13,-2.27373675443232E-13));
#148= IFCAXIS2PLACEMENT3D(#147,#76,#75);
#149= IFCEXTRUDEDAREASOLID(#146,#148,#9,28154.83);
#150= IFCSHAPEREPRESENTATION(#13,'Body','SweptSolid',(#149));
#151= IFCSTYLEDITEM(#149,(#145),$);
#152= IFCPRODUCTDEFINITIONSHAPE($,$,(#150));
#153= IFCCARTESIANPOINT((416156.740116757,391012.910454332,-1926.96221296865));
#154= IFCDIRECTION((0.143672892983638,0.989622921887301,-0.00213829299975649));
#155= IFCAXIS2PLACEMENT3D(#153,#97,#154);
#156= IFCLOCALPLACEMENT(#132,#155);
#157= IFCBEAM('0mfL_BVnr7ZPJLOCOofyi9',#47,'VIGA','TUBO168.3*7.11','BEAM',#156,#152,'Pr0(?)');
#158= IFCBEAMTYPE('19BDT3_sf4iA11YmXPHZs1',#5,'TUBO168.3*7.11',$,$,$,$,$,$,.NOTDEFINED.);
#159= IFCPROPERTYSINGLEVALUE('MATERIAL',$,IFCLABEL('F24'),$);
#160= IFCPROPERTYSET('0UZuuyCDLAfuKHQNzSUgcC',#5,'Default',$,(#159,#51,#52,#103));
#161= IFCPROPERTYSINGLEVALUE('Bottom elevation',$,IFCLABEL(' -2.071'),$);
#162= IFCPROPERTYSINGLEVALUE('Top elevation',$,IFCLABEL(' -1.843'),$);
#163= IFCPROPERTYSET('2WJASA7ATDOB4UjW10SxDG',#5,'Tekla Common','Common Properties to Shared building elements',(#105,#161,#162,#108,#109,#61,#110));
#164= IFCPROPERTYSINGLEVALUE('Weight',$,IFCMASSMEASURE(786.7),$);
#165= IFCPROPERTYSINGLEVALUE('Volume',$,IFCVOLUMEMEASURE(0.1),$);
#166= IFCPROPERTYSINGLEVALUE('Area per tons',$,IFCAREAMEASURE(18.873),$);
#167= IFCPROPERTYSINGLEVALUE('Net surface area',$,IFCAREAMEASURE(14.848),$);
#168= IFCPROPERTYSINGLEVALUE('Height',$,IFCLENGTHMEASURE(168.3),$);
#169= IFCPROPERTYSINGLEVALUE('Width',$,IFCLENGTHMEASURE(168.3),$);
#170= IFCPROPERTYSINGLEVALUE('Length',$,IFCLENGTHMEASURE(28154.8),$);
#171= IFCPROPERTYSET('1yiNI3CD5AbPQMjmobTHGC',#5,'Tekla Quantity','Quantity Properties to Shared building elements',(#164,#165,#114,#166,#167,#168,#169,#170));
#172= IFCPROPERTYSINGLEVALUE('Reference',$,IFCIDENTIFIER('Pr0(?)'),$);
#173= IFCPROPERTYSET('0Er_D00NDEox4Dm9yPx0Xa',#5,'Pset_BeamCommon','Common Properties to beam elements',(#121,#122,#123,#172));
#174= IFCQUANTITYLENGTH('Length',$,$,28154.8298330507);
#175= IFCQUANTITYAREA('OuterSurfaceArea',$,$,14.8475451538063);
#176= IFCQUANTITYVOLUME('NetVolume',$,$,0.100216234236042);
#177= IFCQUANTITYWEIGHT('NetWeight',$,$,786.697438752927);
#178= IFCELEMENTQUANTITY('3b3gt5uin5rhi$BKfUeESt',#5,'BaseQuantities',$,$,(#174,#175,#176,#177));
#179= IFCMATERIAL('STEEL/F24');
#180= IFCLOCALPLACEMENT(#45,#10);
#181= IFCELEMENTASSEMBLY('2wMV1Ea$D07epCjOgHt1cW',#47,'VIGA',$,$,#180,$,'V0(?)',.NOTDEFINED.,.NOTDEFINED.);
#182= IFCSHAPEREPRESENTATION(#13,'Body','SweptSolid',(#149));
#183= IFCPRODUCTDEFINITIONSHAPE($,$,(#182));
#184= IFCCARTESIANPOINT((416400.890908006,391004.886224187,-1927.01573654713));
#185= IFCAXIS2PLACEMENT3D(#184,#97,#154);
#186= IFCLOCALPLACEMENT(#180,#185);
#187= IFCBEAM('1rv_TjECXETvqytuMb8JHb',#47,'VIGA','TUBO168.3*7.11','BEAM',#186,#183,'Pr0(?)');
#188= IFCLOCALPLACEMENT(#45,#10);
#189= IFCELEMENTASSEMBLY('1ZlNMTjInC9fLv8Qgb_MXv',#47,'VIGA',$,$,#188,$,'V0(?)',.NOTDEFINED.,.NOTDEFINED.);
#190= IFCSHAPEREPRESENTATION(#13,'Body','SweptSolid',(#149));
#191= IFCPRODUCTDEFINITIONSHAPE($,$,(#190));
#192= IFCCARTESIANPOINT((416645.716501155,391001.816237495,-1927.07996482326));
#193= IFCAXIS2PLACEMENT3D(#192,#97,#154);
#194= IFCLOCALPLACEMENT(#188,#193);
#195= IFCBEAM('3gWbthyKjDeg5uys1AR7IG',#47,'VIGA','TUBO168.3*7.11','BEAM',#194,#191,'Pr0(?)');
#196= IFCLOCALPLACEMENT(#45,#10);
#197= IFCELEMENTASSEMBLY('3JEbFe3rvCj92p__JU0f8P',#47,'VIGA',$,$,#196,$,'V0(?)',.NOTDEFINED.,.NOTDEFINED.);
#198= IFCPROPERTYSINGLEVALUE('Assembly/Cast unit weight',$,IFCMASSMEASURE(786.8),$);
#199= IFCPROPERTYSET('1XCRAU$4n92Qeu22NjbNzJ',#5,'Tekla Assembly','Assembly Properties',(#136,#56,#137,#198,#139,#140,#61,#62,#63));
#200= IFCCARTESIANPOINT((28159.8296386717,3.15435650912678E-13,-4.54747350886464E-13));
#201= IFCAXIS2PLACEMENT3D(#200,#76,#75);
#202= IFCEXTRUDEDAREASOLID(#146,#201,#9,28159.83);
#203= IFCSHAPEREPRESENTATION(#13,'Body','SweptSolid',(#202));
#204= IFCSTYLEDITEM(#202,(#145),$);
#205= IFCPRODUCTDEFINITIONSHAPE($,$,(#203));
#206= IFCCARTESIANPOINT((416889.19249077,390988.837763776,-1927.12278368884));
#207= IFCDIRECTION((0.143671347047075,0.989623146324257,-0.00213829300070063));
#208= IFCAXIS2PLACEMENT3D(#206,#97,#207);
#209= IFCLOCALPLACEMENT(#196,#208);
#210= IFCBEAM('2myK0LX0nBUvsExSjmDLg_',#47,'VIGA','TUBO168.3*7.11','BEAM',#209,#205,'Pr0(?)');
#211= IFCPROPERTYSINGLEVALUE('Weight',$,IFCMASSMEASURE(786.84),$);
#212= IFCPROPERTYSINGLEVALUE('Net surface area',$,IFCAREAMEASURE(14.85),$);
#213= IFCPROPERTYSINGLEVALUE('Length',$,IFCLENGTHMEASURE(28159.8),$);
#214= IFCPROPERTYSET('30s9y3pUH87B0kC1eUlypr',#5,'Tekla Quantity','Quantity Properties to Shared building elements',(#211,#165,#114,#166,#212,#168,#169,#213));
#215= IFCQUANTITYLENGTH('Length',$,$,28159.8296395589);
#216= IFCQUANTITYAREA('OuterSurfaceArea',$,$,14.8501811575766);
#217= IFCQUANTITYVOLUME('NetVolume',$,$,0.100234030883676);
#218= IFCQUANTITYWEIGHT('NetWeight',$,$,786.837142436854);
#219= IFCELEMENTQUANTITY('2HKIno3CD9MPJJO6Up_N1t',#5,'BaseQuantities',$,$,(#215,#216,#217,#218));
#220= IFCLOCALPLACEMENT(#45,#10);
#221= IFCELEMENTASSEMBLY('1B2_E$sV9CuRTW07TSj5d6',#47,'VIGA',$,$,#220,$,'V0(?)',.NOTDEFINED.,.NOTDEFINED.);
#222= IFCPROPERTYSINGLEVALUE('Assembly/Cast unit bottom elevation',$,IFCLABEL(' -1.803'),$);
#223= IFCPROPERTYSINGLEVALUE('Assembly/Cast unit top elevation',$,IFCLABEL(' -1.575'),$);
#224= IFCPROPERTYSET('1HfubkXWnEgvqyTUFRL5db',#5,'Tekla Assembly','Assembly Properties',(#136,#56,#137,#138,#222,#223,#61,#62,#63));
#225= IFCSHAPEREPRESENTATION(#13,'Body','SweptSolid',(#149));
#226= IFCPRODUCTDEFINITIONSHAPE($,$,(#225));
#227= IFCCARTESIANPOINT((416156.740116757,391012.910454332,-1658.96221296865));
#228= IFCAXIS2PLACEMENT3D(#227,#97,#154);
#229= IFCLOCALPLACEMENT(#220,#228);
#230= IFCBEAM('2MTP033lXE3BwLG$OeqG_H',#47,'VIGA','TUBO168.3*7.11','BEAM',#229,#226,'Pr0(?)');
#231= IFCPROPERTYSINGLEVALUE('Bottom elevation',$,IFCLABEL(' -1.803'),$);
#232= IFCPROPERTYSINGLEVALUE('Top elevation',$,IFCLABEL(' -1.575'),$);
#233= IFCPROPERTYSET('31qn$wenj4E8hWvIO6NCB8',#5,'Tekla Common','Common Properties to Shared building elements',(#105,#231,#232,#108,#109,#61,#110));
#234= IFCLOCALPLACEMENT(#45,#10);
#235= IFCELEMENTASSEMBLY('1rbrC2XQH43xhAXSi_3K5F',#47,'VIGA',$,$,#234,$,'V0(?)',.NOTDEFINED.,.NOTDEFINED.);
#236= IFCSHAPEREPRESENTATION(#13,'Body','SweptSolid',(#149));
#237= IFCPRODUCTDEFINITIONSHAPE($,$,(#236));
#238= IFCCARTESIANPOINT((416400.890908006,391004.886224187,-1659.01573654713));
#239= IFCAXIS2PLACEMENT3D(#238,#97,#154);
#240= IFCLOCALPLACEMENT(#234,#239);
#241= IFCBEAM('2jS_2lqtz7tPlwZ6YHBMO1',#47,'VIGA','TUBO168.3*7.11','BEAM',#240,#237,'Pr0(?)');
#242= IFCLOCALPLACEMENT(#45,#10);
#243= IFCELEMENTASSEMBLY('00TX$29xX1FAZS0RLQr4SN',#47,'VIGA',$,$,#242,$,'V0(?)',.NOTDEFINED.,.NOTDEFINED.);
#244= IFCSHAPEREPRESENTATION(#13,'Body','SweptSolid',(#149));
#245= IFCPRODUCTDEFINITIONSHAPE($,$,(#244));
#246= IFCCARTESIANPOINT((416645.716501156,391001.816237494,-1659.07996482327));
#247= IFCAXIS2PLACEMENT3D(#246,#97,#154);
#248= IFCLOCALPLACEMENT(#242,#247);
#249= IFCBEAM('3pEQ1hq8z05QDvH6_EtrXX',#47,'VIGA','TUBO168.3*7.11','BEAM',#248,#245,'Pr0(?)');
#250= IFCLOCALPLACEMENT(#45,#10);
#251= IFCELEMENTASSEMBLY('0M1$5u3Qf2aAeurQzIvDJd',#47,'VIGA',$,$,#250,$,'V0(?)',.NOTDEFINED.,.NOTDEFINED.);
#252= IFCPROPERTYSET('1rwueiZbj7qPqsKa8$rjHl',#5,'Tekla Assembly','Assembly Properties',(#136,#56,#137,#198,#222,#223,#61,#62,#63));
#253= IFCSHAPEREPRESENTATION(#13,'Body','SweptSolid',(#202));
#254= IFCPRODUCTDEFINITIONSHAPE($,$,(#253));
#255= IFCCARTESIANPOINT((416889.192490775,390988.837763815,-1659.12278368896));
#256= IFCAXIS2PLACEMENT3D(#255,#97,#207);
#257= IFCLOCALPLACEMENT(#250,#256);
#258= IFCBEAM('3SXZkQGC5139PWBQFktIYk',#47,'VIGA','TUBO168.3*7.11','BEAM',#257,#254,'Pr0(?)');
#259= IFCLOCALPLACEMENT(#45,#10);
#260= IFCELEMENTASSEMBLY('1kPjZ3Db91Y99weWj_gcmJ',#47,'VIGA',$,$,#259,$,'V0(?)',.NOTDEFINED.,.NOTDEFINED.);
#261= IFCPROPERTYSINGLEVALUE('MATERIAL',$,IFCLABEL('H30'),$);
#262= IFCPROPERTYSET('09iqngz2XAjvuyr6fVmLK4',#5,'Default',$,(#261,#51,#52,#53));
#263= IFCPROPERTYSINGLEVALUE('Assembly/Cast unit weight',$,IFCMASSMEASURE(27962.2),$);
#264= IFCPROPERTYSINGLEVALUE('Assembly/Cast unit bottom elevation',$,IFCLABEL(' -2.125'),$);
#265= IFCPROPERTYSINGLEVALUE('Assembly/Cast unit top elevation',$,IFCLABEL(' -1.500'),$);
#266= IFCPROPERTYSET('2ADEu_$wjESP54VrLz2svC',#5,'Tekla Assembly','Assembly Properties',(#55,#56,#57,#263,#264,#265,#61,#62,#63));
#267= IFCQUANTITYLENGTH('Width',$,$,1050.);
#268= IFCELEMENTQUANTITY('0pU2rUoJrCkwYOjwe8Cmxf',#5,'BaseQuantities',$,$,(#267));
#269= IFCCOLOURRGB('Unnamed',0.709803921568627,0.403921568627451,0.2);
#270= IFCSURFACESTYLERENDERING(#269,0.,$,$,$,$,IFCNORMALISEDRATIOMEASURE(0.00390625),IFCSPECULAREXPONENT(10.),.NOTDEFINED.);
#271= IFCSURFACESTYLE('CONCRETE/H30',.POSITIVE.,(#270));
#272= IFCPRESENTATIONSTYLEASSIGNMENT((#271));
#273= IFCRECTANGLEPROFILEDEF(.AREA.,'565*1050',#73,1050.,565.);
#274= IFCEXTRUDEDAREASOLID(#273,#78,#9,28059.9);
#275= IFCCARTESIANPOINT((28059.5502994407,121.495178012539,-144.651509410061));
#276= IFCAXIS2PLACEMENT3D(#275,#76,#75);
#277= IFCEXTRUDEDAREASOLID(#146,#276,#9,28059.89);
#278= IFCBOOLEANRESULT(.DIFFERENCE.,#274,#277);
#279= IFCCARTESIANPOINT((28101.8060313534,-121.495352958214,-144.646922372172));
#280= IFCAXIS2PLACEMENT3D(#279,#76,#75);
#281= IFCEXTRUDEDAREASOLID(#146,#280,#9,28100.);
#282= IFCBOOLEANRESULT(.DIFFERENCE.,#278,#281);
#283= IFCCARTESIANPOINT((28123.3781750373,-364.485883843832,123.357051982931));
#284= IFCAXIS2PLACEMENT3D(#283,#76,#75);
#285= IFCEXTRUDEDAREASOLID(#146,#284,#9,28120.);
#286= IFCBOOLEANRESULT(.DIFFERENCE.,#282,#285);
#287= IFCCARTESIANPOINT((28101.2329715094,-121.495352935705,123.352464945066));
#288= IFCAXIS2PLACEMENT3D(#287,#76,#75);
#289= IFCEXTRUDEDAREASOLID(#146,#288,#9,28100.);
#290= IFCBOOLEANRESULT(.DIFFERENCE.,#286,#289);
#291= IFCCARTESIANPOINT((28123.951234881,-364.485883866351,-144.642335334308));
#292= IFCAXIS2PLACEMENT3D(#291,#76,#75);
#293= IFCEXTRUDEDAREASOLID(#146,#292,#9,28120.);
#294= IFCBOOLEANRESULT(.DIFFERENCE.,#290,#293);
#295= IFCCARTESIANPOINT((28058.9772395969,121.495178035066,123.347877907177));
#296= IFCAXIS2PLACEMENT3D(#295,#76,#75);
#297= IFCEXTRUDEDAREASOLID(#146,#296,#9,28059.89);
#298= IFCBOOLEANRESULT(.DIFFERENCE.,#294,#297);
#299= IFCCARTESIANPOINT((28057.4050959121,364.485708858373,-144.656096440431));
#300= IFCAXIS2PLACEMENT3D(#299,#76,#75);
#301= IFCEXTRUDEDAREASOLID(#146,#300,#9,28059.89);
#302= IFCBOOLEANRESULT(.DIFFERENCE.,#298,#301);
#303= IFCCARTESIANPOINT((28056.8320360683,364.4857088809,123.343290876808));
#304= IFCAXIS2PLACEMENT3D(#303,#76,#75);
#305= IFCEXTRUDEDAREASOLID(#146,#304,#9,28059.89);
#306= IFCBOOLEANRESULT(.DIFFERENCE.,#302,#305);
#307= IFCCARTESIANPOINT((27877.835926479,771.135529405146,282.413651673363));
#308= IFCAXIS2PLACEMENT3D(#307,#80,#82);
#309= IFCPLANE(#308);
#310= IFCHALFSPACESOLID(#309,.F.);
#311= IFCBOOLEANRESULT(.DIFFERENCE.,#306,#310);
#312= IFCCARTESIANPOINT((-4.92851717455778,524.966282243899,-282.509909362849));
#313= IFCDIRECTION((-0.0021382829995547,8.40660928317429E-11,0.999997713870294));
#314= IFCAXIS2PLACEMENT3D(#312,#87,#313);
#315= IFCPLANE(#314);
#316= IFCHALFSPACESOLID(#315,.F.);
#317= IFCBOOLEANRESULT(.DIFFERENCE.,#311,#316);
#318= IFCSHAPEREPRESENTATION(#13,'Body','CSG',(#317));
#319= IFCSTYLEDITEM(#274,(#272),$);
#320= IFCPRODUCTDEFINITIONSHAPE($,$,(#318));
#321= IFCCARTESIANPOINT((416529.649593318,391049.969098706,-1782.4990320371));
#322= IFCAXIS2PLACEMENT3D(#321,#97,#98);
#323= IFCLOCALPLACEMENT(#259,#322);
#324= IFCBEAM('0m$ZHmRYf9IOYsFX7vsjs3',#47,'VIGA','565*1050','BEAM',#323,#320,'Concrete_V-10(?)');
#325= IFCBEAMTYPE('2NhqZ$cULFke9TRrcEZ5DG',#5,'565*1050',$,$,$,$,$,$,.NOTDEFINED.);
#326= IFCPROPERTYSET('2C2UlbTcnBTOOqAeR_Ry2m',#5,'Default',$,(#261,#51,#52,#103));
#327= IFCPROPERTYSINGLEVALUE('Bottom elevation',$,IFCLABEL(' -2.125'),$);
#328= IFCPROPERTYSINGLEVALUE('Top elevation',$,IFCLABEL(' -1.500'),$);
#329= IFCPROPERTYSINGLEVALUE('Class',$,IFCLABEL('8'),$);
#330= IFCPROPERTYSET('3ADea2J$P14hzvk3r$K0_B',#5,'Tekla Common','Common Properties to Shared building elements',(#105,#327,#328,#108,#109,#61,#329));
#331= IFCPROPERTYSINGLEVALUE('Weight',$,IFCMASSMEASURE(27962.17),$);
#332= IFCPROPERTYSINGLEVALUE('Volume',$,IFCVOLUMEMEASURE(11.651),$);
#333= IFCPROPERTYSINGLEVALUE('Area per tons',$,IFCAREAMEASURE(7.466),$);
#334= IFCPROPERTYSINGLEVALUE('Net surface area',$,IFCAREAMEASURE(208.775),$);
#335= IFCPROPERTYSINGLEVALUE('Height',$,IFCLENGTHMEASURE(565.),$);
#336= IFCPROPERTYSINGLEVALUE('Width',$,IFCLENGTHMEASURE(1050.),$);
#337= IFCPROPERTYSINGLEVALUE('Length',$,IFCLENGTHMEASURE(28059.9),$);
#338= IFCPROPERTYSET('2nXS1ILyL5kR42I3Dg$qNj',#5,'Tekla Quantity','Quantity Properties to Shared building elements',(#331,#332,#114,#333,#334,#335,#336,#337));
#339= IFCQUANTITYLENGTH('Length',$,$,28059.8977494496);
#340= IFCQUANTITYAREA('OuterSurfaceArea',$,$,208.77506529837);
#341= IFCQUANTITYVOLUME('NetVolume',$,$,11.6509031884393);
#342= IFCQUANTITYWEIGHT('NetWeight',$,$,27962.1676522542);
#343= IFCELEMENTQUANTITY('3u1yVK0ODB1QPXI0PweMlW',#5,'BaseQuantities',$,$,(#339,#340,#341,#342));
#344= IFCMATERIAL('CONCRETE/H30');
#345= IFCOWNERHISTORY(#3,#4,$,.NOCHANGE.,$,$,$,1770235200);
#346= IFCLOCALPLACEMENT(#45,#10);
#347= IFCELEMENTASSEMBLY('0gvmMOMjz2AQoPe9srEGiP',#345,'VIGA',$,$,#346,$,'V0(?)',.NOTDEFINED.,.NOTDEFINED.);
#348= IFCPROPERTYSINGLEVALUE('Assembly/Cast unit weight',$,IFCMASSMEASURE(2268.7),$);
#349= IFCPROPERTYSINGLEVALUE('Assembly/Cast unit bottom elevation',$,IFCLABEL(' -2.105'),$);
#350= IFCPROPERTYSINGLEVALUE('Assembly/Cast unit top elevation',$,IFCLABEL(' -2.005'),$);
#351= IFCPROPERTYSET('0nq7EMsuL8E9LMbdQM32TD',#5,'Tekla Assembly','Assembly Properties',(#55,#56,#57,#348,#349,#350,#61,#62,#63));
#352= IFCQUANTITYLENGTH('Width',$,$,905.);
#353= IFCELEMENTQUANTITY('1Vj86I08D05vBzOLz8piZ7',#5,'BaseQuantities',$,$,(#352));
#354= IFCRECTANGLEPROFILEDEF(.AREA.,'50*905',#73,905.,50.);
#355= IFCCARTESIANPOINT((20890.0744636134,5.82076601095529E-11,2.27373675443232E-13));
#356= IFCAXIS2PLACEMENT3D(#355,#76,#75);
#357= IFCEXTRUDEDAREASOLID(#354,#356,#9,20890.07);
#358= IFCSHAPEREPRESENTATION(#13,'Body','SweptSolid',(#357));
#359= IFCSTYLEDITEM(#357,(#70),$);
#360= IFCPRODUCTDEFINITIONSHAPE($,$,(#358));
#361= IFCCARTESIANPOINT((406290.368417841,391118.519250668,-2029.99831001587));
#362= IFCDIRECTION((0.,0.00239348099910421,0.999997135620251));
#363= IFCDIRECTION((-2.06000000591282E-07,0.99999713562023,-0.00239348099909102));
#364= IFCAXIS2PLACEMENT3D(#361,#362,#363);
#365= IFCLOCALPLACEMENT(#346,#364);
#366= IFCBEAM('2Paoo40MT5xPW$ClhjUsiR',#345,'VIGA','50*905','BEAM',#365,#360,'Concrete_V-10(?)');
#367= IFCBEAMTYPE('22pTa2NU59vwnk$8tSaBWp',#5,'50*905',$,$,$,$,$,$,.NOTDEFINED.);
#368= IFCPROPERTYSINGLEVALUE('Bottom elevation',$,IFCLABEL(' -2.105'),$);
#369= IFCPROPERTYSINGLEVALUE('Top elevation',$,IFCLABEL(' -2.005'),$);
#370= IFCPROPERTYSET('1VdHbdCNz6y8T1GcVSMj4C',#5,'Tekla Common','Common Properties to Shared building elements',(#105,#368,#369,#108,#109,#61,#110));
#371= IFCPROPERTYSINGLEVALUE('Weight',$,IFCMASSMEASURE(2268.66),$);
#372= IFCPROPERTYSINGLEVALUE('Volume',$,IFCVOLUMEMEASURE(0.945),$);
#373= IFCPROPERTYSINGLEVALUE('Area per tons',$,IFCAREAMEASURE(17.627),$);
#374= IFCPROPERTYSINGLEVALUE('Net surface area',$,IFCAREAMEASURE(39.991),$);
#375= IFCPROPERTYSINGLEVALUE('Width',$,IFCLENGTHMEASURE(905.),$);
#376= IFCPROPERTYSINGLEVALUE('Length',$,IFCLENGTHMEASURE(20890.1),$);
#377= IFCPROPERTYSET('34E5H$J9fDoeHYbao6llWM',#5,'Tekla Quantity','Quantity Properties to Shared building elements',(#371,#372,#114,#373,#374,#117,#375,#376));
#378= IFCQUANTITYLENGTH('Length',$,$,20890.0744644166);
#379= IFCQUANTITYAREA('OuterSurfaceArea',$,$,39.9905422255034);
#380= IFCQUANTITYVOLUME('NetVolume',$,$,0.945275869478583);
#381= IFCQUANTITYWEIGHT('NetWeight',$,$,2268.6620867486);
#382= IFCELEMENTQUANTITY('3bP0jqSKb6KxWnxY5AMnUT',#5,'BaseQuantities',$,$,(#378,#379,#380,#381));
#383= IFCLOCALPLACEMENT(#45,#10);
#384= IFCELEMENTASSEMBLY('1$0Pih75nE19HM8aX3zhei',#47,'VIGA',$,$,#383,$,'V0(?)',.NOTDEFINED.,.NOTDEFINED.);
#385= IFCPROPERTYSINGLEVALUE('Assembly/Cast unit weight',$,IFCMASSMEASURE(3845.7),$);
#386= IFCPROPERTYSET('27LjHx5bv9mfbD9pwjt2Sp',#5,'Tekla Assembly','Assembly Properties',(#55,#56,#57,#385,#59,#60,#61,#62,#63));
#387= IFCCARTESIANPOINT((28109.2166752164,-5.84522049814143E-11,-2.39564104957686E-13));
#388= IFCAXIS2PLACEMENT3D(#387,#76,#75);
#389= IFCEXTRUDEDAREASOLID(#74,#388,#9,28109.22);
#390= IFCDIRECTION((0.987882312788248,0.155190494508635,0.00210867121846786));
#391= IFCCARTESIANPOINT((27899.9196125829,570.840242874867,24.9762746609547));
#392= IFCDIRECTION((0.00213453199927694,4.19094198087659E-11,-0.999997721883977));
#393= IFCAXIS2PLACEMENT3D(#391,#390,#392);
#394= IFCPLANE(#393);
#395= IFCHALFSPACESOLID(#394,.F.);
#396= IFCBOOLEANCLIPPINGRESULT(.DIFFERENCE.,#389,#395);
#397= IFCDIRECTION((-0.987882312788252,-0.155190494508594,-0.00210867121979856));
#398= IFCCARTESIANPOINT((211.715821954771,-570.790772248642,25.0237221968625));
#399= IFCAXIS2PLACEMENT3D(#398,#397,#392);
#400= IFCPLANE(#399);
#401= IFCHALFSPACESOLID(#400,.F.);
#402= IFCBOOLEANCLIPPINGRESULT(.DIFFERENCE.,#396,#401);
#403= IFCSHAPEREPRESENTATION(#13,'Body','Clipping',(#402));
#404= IFCSTYLEDITEM(#389,(#70),$);
#405= IFCPRODUCTDEFINITIONSHAPE($,$,(#403));
#406= IFCCARTESIANPOINT((418527.564867518,391049.312438739,-2089.99897029592));
#407= IFCDIRECTION((0.000331259034399409,0.00210867121885531,0.999997721883977));
#408= IFCDIRECTION((0.155190140966737,0.987882312788253,-0.00213453199954248));
#409= IFCAXIS2PLACEMENT3D(#406,#407,#408);
#410= IFCLOCALPLACEMENT(#383,#409);
#411= IFCBEAM('39mSENItD4EvKi9h2DuYwv',#47,'VIGA','50*1150','BEAM',#410,#405,'Concrete_V-10(?)');
#412= IFCPROPERTYSINGLEVALUE('Weight',$,IFCMASSMEASURE(3845.72),$);
#413= IFCPROPERTYSINGLEVALUE('Volume',$,IFCVOLUMEMEASURE(1.602),$);
#414= IFCPROPERTYSINGLEVALUE('Net surface area',$,IFCAREAMEASURE(66.999),$);
#415= IFCPROPERTYSINGLEVALUE('Length',$,IFCLENGTHMEASURE(28048.3),$);
#416= IFCPROPERTYSET('3SYYi$jwj8ovacPzCQ6fQe',#5,'Tekla Quantity','Quantity Properties to Shared building elements',(#412,#413,#114,#115,#414,#117,#118,#415));
#417= IFCQUANTITYLENGTH('Length',$,$,28048.31215512);
#418= IFCQUANTITYAREA('OuterSurfaceArea',$,$,66.9985239035256);
#419= IFCQUANTITYVOLUME('NetVolume',$,$,1.60238396389969);
#420= IFCQUANTITYWEIGHT('NetWeight',$,$,3845.72151335926);
#421= IFCELEMENTQUANTITY('3sTcLKqxL0Aul8Ww6p3$kj',#5,'BaseQuantities',$,$,(#417,#418,#419,#420));
#422= IFCLOCALPLACEMENT(#45,#10);
#423= IFCELEMENTASSEMBLY('3kKe6y4Qj56QB6it5EiBSC',#47,'VIGA',$,$,#422,$,'V0(?)',.NOTDEFINED.,.NOTDEFINED.);
#424= IFCPROPERTYSINGLEVALUE('Assembly/Cast unit weight',$,IFCMASSMEASURE(788.1),$);
#425= IFCPROPERTYSET('1aorKx6bLEtv8hWv1_Osl2',#5,'Tekla Assembly','Assembly Properties',(#136,#56,#137,#424,#139,#140,#61,#62,#63));
#426= IFCCARTESIANPOINT((28204.132669166,1.58545286232113E-13,1.13686837721616E-13));
#427= IFCAXIS2PLACEMENT3D(#426,#76,#75);
#428= IFCEXTRUDEDAREASOLID(#146,#427,#9,28204.13);
#429= IFCSHAPEREPRESENTATION(#13,'Body','SweptSolid',(#428));
#430= IFCSTYLEDITEM(#428,(#145),$);
#431= IFCPRODUCTDEFINITIONSHAPE($,$,(#429));
#432= IFCCARTESIANPOINT((418154.738108017,391012.90790263,-1926.96285790327));
#433= IFCDIRECTION((0.155122156054427,0.987892990346614,-0.00213455500074893));
#434= IFCAXIS2PLACEMENT3D(#432,#407,#433);
#435= IFCLOCALPLACEMENT(#422,#434);
#436= IFCBEAM('31YGSfC552IAZQBvOn5_5B',#47,'VIGA','TUBO168.3*7.11','BEAM',#435,#431,'Pr0(?)');
#437= IFCPROPERTYSINGLEVALUE('Weight',$,IFCMASSMEASURE(788.08),$);
#438= IFCPROPERTYSINGLEVALUE('Net surface area',$,IFCAREAMEASURE(14.874),$);
#439= IFCPROPERTYSINGLEVALUE('Length',$,IFCLENGTHMEASURE(28204.1),$);
#440= IFCPROPERTYSET('2$sg4kWKH5Mfa7X_QzjPrN',#5,'Tekla Quantity','Quantity Properties to Shared building elements',(#437,#165,#114,#166,#438,#168,#169,#439));
#441= IFCQUANTITYLENGTH('Length',$,$,28204.1326686896);
#442= IFCQUANTITYAREA('OuterSurfaceArea',$,$,14.8735386629533);
#443= IFCQUANTITYVOLUME('NetVolume',$,$,0.100391726129643);
#444= IFCQUANTITYWEIGHT('NetWeight',$,$,788.075050117697);
#445= IFCELEMENTQUANTITY('300EOiUjLFweblQHLmOL3c',#5,'BaseQuantities',$,$,(#441,#442,#443,#444));
#446= IFCLOCALPLACEMENT(#45,#10);
#447= IFCELEMENTASSEMBLY('21dPsLwvrBH8rSTSVT7loT',#47,'VIGA',$,$,#446,$,'V0(?)',.NOTDEFINED.,.NOTDEFINED.);
#448= IFCSHAPEREPRESENTATION(#13,'Body','SweptSolid',(#428));
#449= IFCPRODUCTDEFINITIONSHAPE($,$,(#448));
#450= IFCCARTESIANPOINT((418398.888899266,391004.883672485,-1927.01638148176));
#451= IFCAXIS2PLACEMENT3D(#450,#407,#433);
#452= IFCLOCALPLACEMENT(#446,#451);
#453= IFCBEAM('3ZHNpi5Q9E2vdaMNV5bEOr',#47,'VIGA','TUBO168.3*7.11','BEAM',#452,#449,'Pr0(?)');
#454= IFCLOCALPLACEMENT(#45,#10);
#455= IFCELEMENTASSEMBLY('1N9UPAXgD4vBnFzVkVYvvo',#47,'VIGA',$,$,#454,$,'V0(?)',.NOTDEFINED.,.NOTDEFINED.);
#456= IFCSHAPEREPRESENTATION(#13,'Body','SweptSolid',(#428));
#457= IFCPRODUCTDEFINITIONSHAPE($,$,(#456));
#458= IFCCARTESIANPOINT((418643.714492415,391001.813685793,-1927.08060975788));
#459= IFCAXIS2PLACEMENT3D(#458,#407,#433);
#460= IFCLOCALPLACEMENT(#454,#459);
#461= IFCBEAM('2SVab7Acv10PslU5$wvo02',#47,'VIGA','TUBO168.3*7.11','BEAM',#460,#457,'Pr0(?)');
#462= IFCLOCALPLACEMENT(#45,#10);
#463= IFCELEMENTASSEMBLY('3d$S30BHH0sw_4Yz$ZPwjw',#47,'VIGA',$,$,#462,$,'V0(?)',.NOTDEFINED.,.NOTDEFINED.);
#464= IFCPROPERTYSINGLEVALUE('Assembly/Cast unit weight',$,IFCMASSMEASURE(788.2),$);
#465= IFCPROPERTYSET('1zG6itfE5FCxrV80bajBL3',#5,'Tekla Assembly','Assembly Properties',(#136,#56,#137,#464,#139,#140,#61,#62,#63));
#466= IFCCARTESIANPOINT((28209.1316299853,-3.49548662099805E-15,5.6843418860808E-13));
#467= IFCAXIS2PLACEMENT3D(#466,#76,#75);
#468= IFCEXTRUDEDAREASOLID(#146,#467,#9,28209.13);
#469= IFCSHAPEREPRESENTATION(#13,'Body','SweptSolid',(#468));
#470= IFCSTYLEDITEM(#468,(#145),$);
#471= IFCPRODUCTDEFINITIONSHAPE($,$,(#469));
#472= IFCCARTESIANPOINT((418887.190482383,390988.835211954,-1927.12342862333));
#473= IFCDIRECTION((0.155118587939517,0.98789355061481,-0.00213455599916772));
#474= IFCAXIS2PLACEMENT3D(#472,#407,#473);
#475= IFCLOCALPLACEMENT(#462,#474);
#476= IFCBEAM('2uI2rFdNT368QAYDJ6NJTT',#47,'VIGA','TUBO168.3*7.11','BEAM',#475,#471,'Pr0(?)');
#477= IFCPROPERTYSINGLEVALUE('Weight',$,IFCMASSMEASURE(788.21),$);
#478= IFCPROPERTYSINGLEVALUE('Net surface area',$,IFCAREAMEASURE(14.876),$);
#479= IFCPROPERTYSINGLEVALUE('Length',$,IFCLENGTHMEASURE(28209.1),$);
#480= IFCPROPERTYSET('2$4KMvo59DJfDBChv_CcrN',#5,'Tekla Quantity','Quantity Properties to Shared building elements',(#477,#165,#114,#166,#478,#168,#169,#479));
#481= IFCQUANTITYLENGTH('Length',$,$,28209.1316307899);
#482= IFCQUANTITYAREA('OuterSurfaceArea',$,$,14.8761742217338);
#483= IFCQUANTITYVOLUME('NetVolume',$,$,0.100409519769428);
#484= IFCQUANTITYWEIGHT('NetWeight',$,$,788.214730190008);
#485= IFCELEMENTQUANTITY('2UJejbnDzABO3UCT2XvklX',#5,'BaseQuantities',$,$,(#481,#482,#483,#484));
#486= IFCLOCALPLACEMENT(#45,#10);
#487= IFCELEMENTASSEMBLY('1lytsY8qnAA9$UbVcr842A',#47,'VIGA',$,$,#486,$,'V0(?)',.NOTDEFINED.,.NOTDEFINED.);
#488= IFCPROPERTYSET('2aNc0P1Iv9SwnJcgcduWCa',#5,'Tekla Assembly','Assembly Properties',(#136,#56,#137,#424,#222,#223,#61,#62,#63));
#489= IFCSHAPEREPRESENTATION(#13,'Body','SweptSolid',(#428));
#490= IFCPRODUCTDEFINITIONSHAPE($,$,(#489));
#491= IFCCARTESIANPOINT((418154.738108017,391012.90790263,-1658.96285790327));
#492= IFCAXIS2PLACEMENT3D(#491,#407,#433);
#493= IFCLOCALPLACEMENT(#486,#492);
#494= IFCBEAM('1SpGIEKYT4GxAocwHKp1HC',#47,'VIGA','TUBO168.3*7.11','BEAM',#493,#490,'Pr0(?)');
#495= IFCLOCALPLACEMENT(#45,#10);
#496= IFCELEMENTASSEMBLY('0iq$iDRcrDhu_R7Nlq0VqP',#47,'VIGA',$,$,#495,$,'V0(?)',.NOTDEFINED.,.NOTDEFINED.);
#497= IFCSHAPEREPRESENTATION(#13,'Body','SweptSolid',(#428));
#498= IFCPRODUCTDEFINITIONSHAPE($,$,(#497));
#499= IFCCARTESIANPOINT((418398.888899266,391004.883672485,-1659.01638148176));
#500= IFCAXIS2PLACEMENT3D(#499,#407,#433);
#501= IFCLOCALPLACEMENT(#495,#500);
#502= IFCBEAM('3sVnpNyTb3DvIjtAA0cqUJ',#47,'VIGA','TUBO168.3*7.11','BEAM',#501,#498,'Pr0(?)');
#503= IFCLOCALPLACEMENT(#45,#10);
#504= IFCELEMENTASSEMBLY('1OqRo1Acr1OvLZgHvia23E',#47,'VIGA',$,$,#503,$,'V0(?)',.NOTDEFINED.,.NOTDEFINED.);
#505= IFCSHAPEREPRESENTATION(#13,'Body','SweptSolid',(#428));
#506= IFCPRODUCTDEFINITIONSHAPE($,$,(#505));
#507= IFCCARTESIANPOINT((418643.714492417,391001.813685792,-1659.0806097579));
#508= IFCAXIS2PLACEMENT3D(#507,#407,#433);
#509= IFCLOCALPLACEMENT(#503,#508);
#510= IFCBEAM('1XcELG0H94IxNNTS4RcQcn',#47,'VIGA','TUBO168.3*7.11','BEAM',#509,#506,'Pr0(?)');
#511= IFCLOCALPLACEMENT(#45,#10);
#512= IFCELEMENTASSEMBLY('0lAVZT05j3fgUSlDE25CRb',#47,'VIGA',$,$,#511,$,'V0(?)',.NOTDEFINED.,.NOTDEFINED.);
#513= IFCPROPERTYSET('0HL2UT7BD1wu_1Nwbqiuf_',#5,'Tekla Assembly','Assembly Properties',(#136,#56,#137,#464,#222,#223,#61,#62,#63));
#514= IFCSHAPEREPRESENTATION(#13,'Body','SweptSolid',(#468));
#515= IFCPRODUCTDEFINITIONSHAPE($,$,(#514));
#516= IFCCARTESIANPOINT((418887.190482389,390988.835211993,-1659.12342862345));
#517= IFCAXIS2PLACEMENT3D(#516,#407,#473);
#518= IFCLOCALPLACEMENT(#511,#517);
#519= IFCBEAM('0Xohj6Cy18GuaIQmScm5n4',#47,'VIGA','TUBO168.3*7.11','BEAM',#518,#515,'Pr0(?)');
#520= IFCLOCALPLACEMENT(#45,#10);
#521= IFCELEMENTASSEMBLY('1yzvwtApX9$Q8m1udHjhOe',#47,'VIGA',$,$,#520,$,'V0(?)',.NOTDEFINED.,.NOTDEFINED.);
#522= IFCPROPERTYSINGLEVALUE('Assembly/Cast unit weight',$,IFCMASSMEASURE(28010.4),$);
#523= IFCPROPERTYSET('0M3DcfKWr3j8_zM3Nq98T$',#5,'Tekla Assembly','Assembly Properties',(#55,#56,#57,#522,#264,#265,#61,#62,#63));
#524= IFCEXTRUDEDAREASOLID(#273,#388,#9,28109.22);
#525= IFCCARTESIANPOINT((28107.4564737851,121.474432746249,-144.654549047551));
#526= IFCAXIS2PLACEMENT3D(#525,#76,#75);
#527= IFCEXTRUDEDAREASOLID(#146,#526,#9,28109.21);
#528= IFCBOOLEANRESULT(.DIFFERENCE.,#524,#527);
#529= IFCCARTESIANPOINT((28153.216215668,-121.474775091218,-144.643944432357));
#530= IFCAXIS2PLACEMENT3D(#529,#76,#75);
#531= IFCEXTRUDEDAREASOLID(#146,#530,#9,28150.);
#532= IFCBOOLEANRESULT(.DIFFERENCE.,#528,#531);
#533= IFCCARTESIANPOINT((28167.6123016621,-364.423982711304,123.366077838997));
#534= IFCAXIS2PLACEMENT3D(#533,#76,#75);
#535= IFCEXTRUDEDAREASOLID(#146,#534,#9,28160.);
#536= IFCBOOLEANRESULT(.DIFFERENCE.,#532,#535);
#537= IFCCARTESIANPOINT((28152.6441613617,-121.474775061117,123.355445033121));
#538= IFCAXIS2PLACEMENT3D(#537,#76,#75);
#539= IFCEXTRUDEDAREASOLID(#146,#538,#9,28150.);
#540= IFCBOOLEANRESULT(.DIFFERENCE.,#536,#539);
#541= IFCCARTESIANPOINT((28168.184356087,-364.423982741411,-144.633339786417));
#542= IFCAXIS2PLACEMENT3D(#541,#76,#75);
#543= IFCEXTRUDEDAREASOLID(#146,#542,#9,28160.);
#544= IFCBOOLEANRESULT(.DIFFERENCE.,#540,#543);
#545= IFCCARTESIANPOINT((28106.8844194772,121.4744327764,123.344840417927));
#546= IFCAXIS2PLACEMENT3D(#545,#76,#75);
#547= IFCEXTRUDEDAREASOLID(#146,#546,#9,28109.21);
#548= IFCBOOLEANRESULT(.DIFFERENCE.,#544,#547);
#549= IFCCARTESIANPOINT((28102.4883333667,364.42364033558,-144.665153695973));
#550= IFCAXIS2PLACEMENT3D(#549,#76,#75);
#551= IFCEXTRUDEDAREASOLID(#146,#550,#9,28109.21);
#552= IFCBOOLEANRESULT(.DIFFERENCE.,#548,#551);
#553= IFCCARTESIANPOINT((28101.9162790588,364.423640365732,123.334235769504));
#554= IFCAXIS2PLACEMENT3D(#553,#76,#75);
#555= IFCEXTRUDEDAREASOLID(#146,#554,#9,28109.21);
#556= IFCBOOLEANRESULT(.DIFFERENCE.,#552,#555);
#557= IFCCARTESIANPOINT((27957.0055659138,521.997157233593,282.478044237282));
#558= IFCAXIS2PLACEMENT3D(#557,#390,#392);
#559= IFCPLANE(#558);
#560= IFCHALFSPACESOLID(#559,.F.);
#561= IFCBOOLEANRESULT(.DIFFERENCE.,#556,#560);
#562= IFCCARTESIANPOINT((-11.0293192830868,524.859554716968,-282.522908737913));
#563= IFCDIRECTION((-0.00213453099950857,1.12500212466009E-10,0.999997721886111));
#564= IFCAXIS2PLACEMENT3D(#562,#397,#563);
#565= IFCPLANE(#564);
#566= IFCHALFSPACESOLID(#565,.F.);
#567= IFCBOOLEANRESULT(.DIFFERENCE.,#561,#566);
#568= IFCSHAPEREPRESENTATION(#13,'Body','CSG',(#567));
#569= IFCSTYLEDITEM(#524,(#272),$);
#570= IFCPRODUCTDEFINITIONSHAPE($,$,(#568));
#571= IFCCARTESIANPOINT((418527.642821034,391049.968020871,-1782.49967856402));
#572= IFCAXIS2PLACEMENT3D(#571,#407,#408);
#573= IFCLOCALPLACEMENT(#520,#572);
#574= IFCBEAM('10qLvntlT1NRrCocCH$RkT',#47,'VIGA','565*1050','BEAM',#573,#570,'Concrete_V-10(?)');
#575= IFCPROPERTYSINGLEVALUE('Weight',$,IFCMASSMEASURE(28010.37),$);
#576= IFCPROPERTYSINGLEVALUE('Volume',$,IFCVOLUMEMEASURE(11.671),$);
#577= IFCPROPERTYSINGLEVALUE('Area per tons',$,IFCAREAMEASURE(7.473),$);
#578= IFCPROPERTYSINGLEVALUE('Net surface area',$,IFCAREAMEASURE(209.311),$);
#579= IFCPROPERTYSINGLEVALUE('Length',$,IFCLENGTHMEASURE(28109.2),$);
#580= IFCPROPERTYSET('1v5MfKATL44BrQ7xNg_00W',#5,'Tekla Quantity','Quantity Properties to Shared building elements',(#575,#576,#114,#577,#578,#335,#336,#579));
#581= IFCQUANTITYLENGTH('Length',$,$,28109.2166749607);
#582= IFCQUANTITYAREA('OuterSurfaceArea',$,$,209.31118227019);
#583= IFCQUANTITYVOLUME('NetVolume',$,$,11.6709878081025);
#584= IFCQUANTITYWEIGHT('NetWeight',$,$,28010.370739446);
#585= IFCELEMENTQUANTITY('2fMs16kdj9ZxD10qN3wH2Z',#5,'BaseQuantities',$,$,(#581,#582,#583,#584));
#586= IFCOWNERHISTORY(#3,#4,$,.NOCHANGE.,$,$,$,1770231600);
#587= IFCLOCALPLACEMENT(#45,#10);
#588= IFCELEMENTASSEMBLY('1xvEETk7X82gA2STf3GVXj',#586,'VIGA',$,$,#587,$,'V0(?)',.NOTDEFINED.,.NOTDEFINED.);
#589= IFCPROPERTYSINGLEVALUE('Assembly/Cast unit weight',$,IFCMASSMEASURE(0.),$);
#590= IFCPROPERTYSINGLEVALUE('Assembly/Cast unit bottom elevation',$,IFCLABEL(' -2.002'),$);
#591= IFCPROPERTYSINGLEVALUE('Assembly/Cast unit top elevation',$,IFCLABEL(' -1.783'),$);
#592= IFCPROPERTYSET('37MJN9FDv4YOa3NfNNv9QJ',#5,'Tekla Assembly','Assembly Properties',(#136,#56,#137,#589,#590,#591,#61,#62,#63));
#593= IFCSURFACESTYLE('STEEL/Zero_Density',.POSITIVE.,(#68));
#594= IFCPRESENTATIONSTYLEASSIGNMENT((#593));
#595= IFCCARTESIANPOINT((21090.0567058515,2.83954399235443E-20,1.31979545960277E-13));
#596= IFCAXIS2PLACEMENT3D(#595,#76,#75);
#597= IFCEXTRUDEDAREASOLID(#146,#596,#9,21090.06);
#598= IFCSHAPEREPRESENTATION(#13,'Body','SweptSolid',(#597));
#599= IFCSTYLEDITEM(#597,(#594),$);
#600= IFCPRODUCTDEFINITIONSHAPE($,$,(#598));
#601= IFCCARTESIANPOINT((406047.068417729,391019.73198581,-1867.44976351192));
#602= IFCDIRECTION((0.,0.00237078499927884,0.999997189685295));
#603= IFCDIRECTION((-2.04000000771477E-07,0.999997189685274,-0.00237078499925385));
#604= IFCAXIS2PLACEMENT3D(#601,#602,#603);
#605= IFCLOCALPLACEMENT(#587,#604);
#606= IFCBEAM('2ipeRkIQ574Rn02UrYb9TU',#586,'VIGA','TUBO168.3*7.11','BEAM',#605,#600,'Concrete_V-10(?)');
#607= IFCPROPERTYSINGLEVALUE('MATERIAL',$,IFCLABEL('Zero_Density'),$);
#608= IFCPROPERTYSET('2fN5glWpH7tebbCQ6zmOWB',#5,'Default',$,(#607,#51,#52,#103));
#609= IFCPROPERTYSINGLEVALUE('Bottom elevation',$,IFCLABEL(' -2.002'),$);
#610= IFCPROPERTYSINGLEVALUE('Top elevation',$,IFCLABEL(' -1.783'),$);
#611= IFCPROPERTYSET('1TYfBViAHE0vEC0jWy_gCr',#5,'Tekla Common','Common Properties to Shared building elements',(#105,#609,#610,#108,#109,#61,#110));
#612= IFCPROPERTYSINGLEVALUE('Weight',$,IFCMASSMEASURE(0.),$);
#613= IFCPROPERTYSINGLEVALUE('Volume',$,IFCVOLUMEMEASURE(0.075),$);
#614= IFCPROPERTYSINGLEVALUE('Area per tons',$,IFCAREAMEASURE(0.),$);
#615= IFCPROPERTYSINGLEVALUE('Net surface area',$,IFCAREAMEASURE(11.123),$);
#616= IFCPROPERTYSINGLEVALUE('Length',$,IFCLENGTHMEASURE(21090.1),$);
#617= IFCPROPERTYSET('0sRPgfz7f8xvQOcSONjgbv',#5,'Tekla Quantity','Quantity Properties to Shared building elements',(#612,#613,#114,#614,#615,#168,#169,#616));
#618= IFCQUANTITYLENGTH('Length',$,$,21090.0567062459);
#619= IFCQUANTITYAREA('OuterSurfaceArea',$,$,11.1228456048711);
#620= IFCQUANTITYVOLUME('NetVolume',$,$,0.0750693957388506);
#621= IFCQUANTITYWEIGHT('NetWeight',$,$,0.);
#622= IFCELEMENTQUANTITY('2LKcNTsNv3ahhB437nwBLe',#5,'BaseQuantities',$,$,(#618,#619,#620,#621));
#623= IFCMATERIAL('STEEL/Zero_Density');
#624= IFCLOCALPLACEMENT(#45,#10);
#625= IFCELEMENTASSEMBLY('34htfT_UfAAexhZbCuyH5M',#586,'VIGA',$,$,#624,$,'V0(?)',.NOTDEFINED.,.NOTDEFINED.);
#626= IFCSHAPEREPRESENTATION(#13,'Body','SweptSolid',(#597));
#627= IFCPRODUCTDEFINITIONSHAPE($,$,(#626));
#628= IFCCARTESIANPOINT((406290.368417729,391019.73198581,-1867.44976351192));
#629= IFCAXIS2PLACEMENT3D(#628,#602,#603);
#630= IFCLOCALPLACEMENT(#624,#629);
#631= IFCBEAM('1nDop5L8X6Aww2Nnf2pz4d',#586,'VIGA','TUBO168.3*7.11','BEAM',#630,#627,'Concrete_V-10(?)');
#632= IFCLOCALPLACEMENT(#45,#10);
#633= IFCELEMENTASSEMBLY('0wiVY1$_L9QgA7LYVbCym9',#586,'VIGA',$,$,#632,$,'V0(?)',.NOTDEFINED.,.NOTDEFINED.);
#634= IFCSHAPEREPRESENTATION(#13,'Body','SweptSolid',(#597));
#635= IFCPRODUCTDEFINITIONSHAPE($,$,(#634));
#636= IFCCARTESIANPOINT((406533.668417729,391019.73198581,-1867.44976351192));
#637= IFCAXIS2PLACEMENT3D(#636,#602,#603);
#638= IFCLOCALPLACEMENT(#632,#637);
#639= IFCBEAM('1Ns$0KZiPBDfaghcagjtMG',#586,'VIGA','TUBO168.3*7.11','BEAM',#638,#635,'Concrete_V-10(?)');
#640= IFCLOCALPLACEMENT(#45,#10);
#641= IFCELEMENTASSEMBLY('2PX8EUmd96SPKTHneczXts',#586,'VIGA',$,$,#640,$,'V0(?)',.NOTDEFINED.,.NOTDEFINED.);
#642= IFCPROPERTYSINGLEVALUE('Assembly/Cast unit bottom elevation',$,IFCLABEL(' -1.733'),$);
#643= IFCPROPERTYSINGLEVALUE('Assembly/Cast unit top elevation',$,IFCLABEL(' -1.515'),$);
#644= IFCPROPERTYSET('2cN0jUlQj3M94dtfPevMOI',#5,'Tekla Assembly','Assembly Properties',(#136,#56,#137,#589,#642,#643,#61,#62,#63));
#645= IFCSHAPEREPRESENTATION(#13,'Body','SweptSolid',(#597));
#646= IFCPRODUCTDEFINITIONSHAPE($,$,(#645));
#647= IFCCARTESIANPOINT((406047.068417729,391019.73198581,-1599.14976351192));
#648= IFCAXIS2PLACEMENT3D(#647,#602,#603);
#649= IFCLOCALPLACEMENT(#640,#648);
#650= IFCBEAM('1z9HKa1qD0ghxF9T7LA8fY',#586,'VIGA','TUBO168.3*7.11','BEAM',#649,#646,'Concrete_V-10(?)');
#651= IFCPROPERTYSINGLEVALUE('Bottom elevation',$,IFCLABEL(' -1.733'),$);
#652= IFCPROPERTYSINGLEVALUE('Top elevation',$,IFCLABEL(' -1.515'),$);
#653= IFCPROPERTYSET('1KuEX5DH950BhTXc0ViY3k',#5,'Tekla Common','Common Properties to Shared building elements',(#105,#651,#652,#108,#109,#61,#110));
#654= IFCLOCALPLACEMENT(#45,#10);
#655= IFCELEMENTASSEMBLY('2PX8RdYl5AYQoIx5d8x0lY',#586,'VIGA',$,$,#654,$,'V0(?)',.NOTDEFINED.,.NOTDEFINED.);
#656= IFCSHAPEREPRESENTATION(#13,'Body','SweptSolid',(#597));
#657= IFCPRODUCTDEFINITIONSHAPE($,$,(#656));
#658= IFCCARTESIANPOINT((406290.368417729,391019.73198581,-1599.14976351192));
#659= IFCAXIS2PLACEMENT3D(#658,#602,#603);
#660= IFCLOCALPLACEMENT(#654,#659);
#661= IFCBEAM('2XZMrZRHL4uvo4JpQg6nv_',#586,'VIGA','TUBO168.3*7.11','BEAM',#660,#657,'Concrete_V-10(?)');
#662= IFCLOCALPLACEMENT(#45,#10);
#663= IFCELEMENTASSEMBLY('0qfwugyub46u6yWzaht4lt',#586,'VIGA',$,$,#662,$,'V0(?)',.NOTDEFINED.,.NOTDEFINED.);
#664= IFCSHAPEREPRESENTATION(#13,'Body','SweptSolid',(#597));
#665= IFCPRODUCTDEFINITIONSHAPE($,$,(#664));
#666= IFCCARTESIANPOINT((406533.668417729,391019.73198581,-1599.14976351192));
#667= IFCAXIS2PLACEMENT3D(#666,#602,#603);
#668= IFCLOCALPLACEMENT(#662,#667);
#669= IFCBEAM('2lGlXcBO52pf2FA2yT6YXE',#586,'VIGA','TUBO168.3*7.11','BEAM',#668,#665,'Concrete_V-10(?)');
#670= IFCOWNERHISTORY(#3,#4,$,.NOCHANGE.,$,$,$,1770296400);
#671= IFCLOCALPLACEMENT(#45,#10);
#672= IFCELEMENTASSEMBLY('1ynTz3ObH5be1kjfS6YP2j',#670,'VIGA',$,$,#671,$,'V0(?)',.NOTDEFINED.,.NOTDEFINED.);
#673= IFCPROPERTYSINGLEVALUE('Assembly/Cast unit weight',$,IFCMASSMEASURE(16187.3),$);
#674= IFCPROPERTYSINGLEVALUE('Assembly/Cast unit bottom elevation',$,IFCLABEL(' -2.055'),$);
#675= IFCPROPERTYSINGLEVALUE('Assembly/Cast unit top elevation',$,IFCLABEL(' -1.440'),$);
#676= IFCPROPERTYSET('3$KtAkyGvFVvOzxYykLXmB',#5,'Tekla Assembly','Assembly Properties',(#55,#56,#57,#673,#674,#675,#61,#62,#63));
#677= IFCQUANTITYLENGTH('Width',$,$,805.);
#678= IFCELEMENTQUANTITY('37$nfGoiLDKh9DE7NxLQug',#5,'BaseQuantities',$,$,(#677));
#679= IFCRECTANGLEPROFILEDEF(.AREA.,'565*805',#73,805.,565.);
#680= IFCEXTRUDEDAREASOLID(#679,#356,#9,20890.07);
#681= IFCDIRECTION((-0.999999999742444,1.99999975486983E-09,-2.26960642308698E-05));
#682= IFCCARTESIANPOINT((20990.8806616746,-2.16514303909322E-05,-144.709703256588));
#683= IFCAXIS2PLACEMENT3D(#682,#681,#75);
#684= IFCEXTRUDEDAREASOLID(#146,#683,#9,21090.06);
#685= IFCBOOLEANRESULT(.DIFFERENCE.,#680,#684);
#686= IFCCARTESIANPOINT((20990.8807117944,243.299978348558,-144.709703256588));
#687= IFCAXIS2PLACEMENT3D(#686,#681,#75);
#688= IFCEXTRUDEDAREASOLID(#146,#687,#9,21090.06);
#689= IFCBOOLEANRESULT(.DIFFERENCE.,#685,#688);
#690= IFCCARTESIANPOINT((20990.8806115548,-243.300021651419,-144.709703256588));
#691= IFCAXIS2PLACEMENT3D(#690,#681,#75);
#692= IFCEXTRUDEDAREASOLID(#146,#691,#9,21090.06);
#693= IFCBOOLEANRESULT(.DIFFERENCE.,#689,#692);
#694= IFCCARTESIANPOINT((20990.2384406028,-243.300021519113,123.589528230326));
#695= IFCAXIS2PLACEMENT3D(#694,#681,#75);
#696= IFCEXTRUDEDAREASOLID(#146,#695,#9,21090.06);
#697= IFCBOOLEANRESULT(.DIFFERENCE.,#693,#696);
#698= IFCCARTESIANPOINT((20990.2384907226,-2.15191243776877E-05,123.589528230326));
#699= IFCAXIS2PLACEMENT3D(#698,#681,#75);
#700= IFCEXTRUDEDAREASOLID(#146,#699,#9,21090.06);
#701= IFCBOOLEANRESULT(.DIFFERENCE.,#697,#700);
#702= IFCCARTESIANPOINT((20990.2385408424,243.299978480864,123.589528230326));
#703= IFCAXIS2PLACEMENT3D(#702,#681,#75);
#704= IFCEXTRUDEDAREASOLID(#146,#703,#9,21090.06);
#705= IFCBOOLEANRESULT(.DIFFERENCE.,#701,#704);
#706= IFCSHAPEREPRESENTATION(#13,'Body','CSG',(#705));
#707= IFCSTYLEDITEM(#680,(#272),$);
#708= IFCPRODUCTDEFINITIONSHAPE($,$,(#706));
#709= IFCCARTESIANPOINT((406290.368417828,391119.255246069,-1722.49919081261));
#710= IFCAXIS2PLACEMENT3D(#709,#362,#363);
#711= IFCLOCALPLACEMENT(#671,#710);
#712= IFCBEAM('25pEawLmT6Axcs5ex_u7Er',#670,'VIGA','565*805','BEAM',#711,#708,'Concrete_V-10(?)');
#713= IFCBEAMTYPE('0XEzDmX_L1kANkQIwkHkFc',#5,'565*805',$,$,$,$,$,$,.NOTDEFINED.);
#714= IFCPROPERTYSINGLEVALUE('Bottom elevation',$,IFCLABEL(' -2.055'),$);
#715= IFCPROPERTYSINGLEVALUE('Top elevation',$,IFCLABEL(' -1.440'),$);
#716= IFCPROPERTYSET('3TMzOtnv18nQ2KXTACUZ8Q',#5,'Tekla Common','Common Properties to Shared building elements',(#105,#714,#715,#108,#109,#61,#329));
#717= IFCPROPERTYSINGLEVALUE('Weight',$,IFCMASSMEASURE(16187.3),$);
#718= IFCPROPERTYSINGLEVALUE('Volume',$,IFCVOLUMEMEASURE(6.745),$);
#719= IFCPROPERTYSINGLEVALUE('Area per tons',$,IFCAREAMEASURE(7.658),$);
#720= IFCPROPERTYSINGLEVALUE('Net surface area',$,IFCAREAMEASURE(123.967),$);
#721= IFCPROPERTYSINGLEVALUE('Width',$,IFCLENGTHMEASURE(805.),$);
#722= IFCPROPERTYSET('1OFYe9NWHCTR4NnQPQ9SdX',#5,'Tekla Quantity','Quantity Properties to Shared building elements',(#717,#718,#114,#719,#720,#335,#721,#376));
#723= IFCQUANTITYLENGTH('Length',$,$,20890.0744656213);
#724= IFCQUANTITYAREA('OuterSurfaceArea',$,$,123.966702578276);
#725= IFCQUANTITYVOLUME('NetVolume',$,$,6.74470778168006);
#726= IFCQUANTITYWEIGHT('NetWeight',$,$,16187.2986760322);
#727= IFCELEMENTQUANTITY('1_CGNdgLbALAv7DbA1Z9L8',#5,'BaseQuantities',$,$,(#723,#724,#725,#726));
#728= IFCLOCALPLACEMENT(#45,#10);
#729= IFCELEMENTASSEMBLY('295kc4fsr0CPhb38_1evUh',#345,'CE-01',$,$,#728,$,'Z0(?)',.NOTDEFINED.,.NOTDEFINED.);
#730= IFCPROPERTYSINGLEVALUE('Assembly/Cast unit weight',$,IFCMASSMEASURE(4334.2),$);
#731= IFCPROPERTYSINGLEVALUE('Assembly/Cast unit bottom elevation',$,IFCLABEL(' -2.340'),$);
#732= IFCPROPERTYSINGLEVALUE('Assembly/Cast unit top elevation',$,IFCLABEL(' -0.690'),$);
#733= IFCPROPERTYSINGLEVALUE('Assembly/Cast unit Mark',$,IFCLABEL('Z0(?)'),$);
#734= IFCPROPERTYSET('1ofzVA2rD348z9gKE2Kroc',#5,'Tekla Assembly','Assembly Properties',(#55,#56,#57,#730,#731,#732,#61,#62,#733));
#735= IFCQUANTITYLENGTH('Width',$,$,1800.0076822046);
#736= IFCELEMENTQUANTITY('2Eme8EZBn8mup4yQrAoE_e',#5,'BaseQuantities',$,$,(#735));
#737= IFCRECTANGLEPROFILEDEF(.AREA.,'1800*1800',#73,1800.,1800.);
#738= IFCCARTESIANPOINT((1650.,0.,0.));
#739= IFCAXIS2PLACEMENT3D(#738,#76,#75);
#740= IFCEXTRUDEDAREASOLID(#737,#739,#9,1650.);
#741= IFCCARTESIANPOINT((1050.,-9.09494701772928E-13));
#742= IFCCARTESIANPOINT((1050.,849.999999999999));
#743= IFCCARTESIANPOINT((0.,849.999999999985));
#744= IFCPOLYLINE((#72,#741,#742,#743,#72));
#745= IFCARBITRARYCLOSEDPROFILEDEF(.AREA.,'50*850',#744);
#746= IFCCARTESIANPOINT((1099.99999999999,900.007682204596,-524.999999999825));
#747= IFCAXIS2PLACEMENT3D(#746,#75,#9);
#748= IFCEXTRUDEDAREASOLID(#745,#747,#9,50.);
#749= IFCCARTESIANPOINT((70.7106781316106,5.07498043589294E-10));
#750= IFCCARTESIANPOINT((70.7106781488983,850.000000000508));
#751= IFCPOLYLINE((#72,#749,#750,#743,#72));
#752= IFCARBITRARYCLOSEDPROFILEDEF(.AREA.,'200*71',#751);
#753= IFCDIRECTION((0.,0.707106781186548,-0.707106781186548));
#754= IFCDIRECTION((0.,0.707106781186548,0.707106781186548));
#755= IFCCARTESIANPOINT((1100.00000000003,708.586325965041,-616.421356238275));
#756= IFCAXIS2PLACEMENT3D(#755,#754,#753);
#757= IFCEXTRUDEDAREASOLID(#752,#756,#9,200.);
#758= IFCBOOLEANRESULT(.DIFFERENCE.,#748,#757);
#759= IFCDIRECTION((0.,-0.707106781186548,-0.707106781186548));
#760= IFCCARTESIANPOINT((1100.00000000001,758.586325964517,666.421356237169));
#761= IFCAXIS2PLACEMENT3D(#760,#753,#759);
#762= IFCEXTRUDEDAREASOLID(#752,#761,#9,200.);
#763= IFCBOOLEANRESULT(.DIFFERENCE.,#758,#762);
#764= IFCCARTESIANPOINT((70.710678120493,1050.00000000012));
#765= IFCCARTESIANPOINT((5.82076609131799E-11,1050.));
#766= IFCPOLYLINE((#72,#749,#764,#765,#72));
#767= IFCARBITRARYCLOSEDPROFILEDEF(.AREA.,'200*71',#766);
#768= IFCDIRECTION((0.707106781186548,0.707106781186548,0.));
#769= IFCDIRECTION((0.707106781186548,-0.707106781186548,0.));
#770= IFCCARTESIANPOINT((1049.99999999968,850.007682205377,-524.999999999651));
#771= IFCAXIS2PLACEMENT3D(#770,#769,#768);
#772= IFCEXTRUDEDAREASOLID(#767,#771,#9,200.);
#773= IFCBOOLEANRESULT(.DIFFERENCE.,#763,#772);
#774= IFCBOOLEANRESULT(.DIFFERENCE.,#740,#773);
#775= IFCCARTESIANPOINT((1100.,-524.99559845007,-899.987210533989));
#776= IFCAXIS2PLACEMENT3D(#775,#9,#8);
#777= IFCEXTRUDEDAREASOLID(#745,#776,#9,50.);
#778= IFCCARTESIANPOINT((1100.,-616.416954681593,-708.565854296646));
#779= IFCAXIS2PLACEMENT3D(#778,#753,#759);
#780= IFCEXTRUDEDAREASOLID(#752,#779,#9,200.);
#781= IFCBOOLEANRESULT(.DIFFERENCE.,#777,#780);
#782= IFCDIRECTION((0.,-0.707106781186548,0.707106781186548));
#783= IFCCARTESIANPOINT((1100.00000000001,666.425757787797,-758.565854296122));
#784= IFCAXIS2PLACEMENT3D(#783,#759,#782);
#785= IFCEXTRUDEDAREASOLID(#752,#784,#9,200.);
#786= IFCBOOLEANRESULT(.DIFFERENCE.,#781,#785);
#787= IFCDIRECTION((0.707106781186548,0.,-0.707106781186548));
#788= IFCDIRECTION((0.707106781186548,0.,0.707106781186548));
#789= IFCCARTESIANPOINT((1049.99999999964,-524.995598449896,-849.987210534712));
#790= IFCAXIS2PLACEMENT3D(#789,#788,#787);
#791= IFCEXTRUDEDAREASOLID(#767,#790,#9,200.);
#792= IFCBOOLEANRESULT(.DIFFERENCE.,#786,#791);
#793= IFCBOOLEANRESULT(.DIFFERENCE.,#774,#792);
#794= IFCCARTESIANPOINT((1100.,-524.99559845007,849.995598450478));
#795= IFCAXIS2PLACEMENT3D(#794,#9,#8);
#796= IFCEXTRUDEDAREASOLID(#745,#795,#9,50.);
#797= IFCCARTESIANPOINT((1100.,-474.995598444283,849.995598450444));
#798= IFCAXIS2PLACEMENT3D(#797,#759,#782);
#799= IFCEXTRUDEDAREASOLID(#752,#798,#9,200.);
#800= IFCBOOLEANRESULT(.DIFFERENCE.,#796,#799);
#801= IFCCARTESIANPOINT((1100.00000000001,525.004401550487,899.99559844992));
#802= IFCAXIS2PLACEMENT3D(#801,#753,#759);
#803= IFCEXTRUDEDAREASOLID(#752,#802,#9,200.);
#804= IFCBOOLEANRESULT(.DIFFERENCE.,#800,#803);
#805= IFCDIRECTION((-0.707106781186548,0.,0.707106781186548));
#806= IFCCARTESIANPOINT((1191.42135623695,-524.995598449896,708.574242213891));
#807= IFCAXIS2PLACEMENT3D(#806,#805,#788);
#808= IFCEXTRUDEDAREASOLID(#767,#807,#9,200.);
#809= IFCBOOLEANRESULT(.DIFFERENCE.,#804,#808);
#810= IFCBOOLEANRESULT(.DIFFERENCE.,#793,#809);
#811= IFCCARTESIANPOINT((1099.99999999999,-849.998642472783,-524.999999999825));
#812= IFCAXIS2PLACEMENT3D(#811,#75,#9);
#813= IFCEXTRUDEDAREASOLID(#745,#812,#9,50.);
#814= IFCCARTESIANPOINT((1100.00000000003,-849.998642470537,-475.000000000965));
#815= IFCAXIS2PLACEMENT3D(#814,#753,#759);
#816= IFCEXTRUDEDAREASOLID(#752,#815,#9,200.);
#817= IFCBOOLEANRESULT(.DIFFERENCE.,#813,#816);
#818= IFCCARTESIANPOINT((1100.00000000001,-899.998642470014,524.999999999859));
#819= IFCAXIS2PLACEMENT3D(#818,#754,#753);
#820= IFCEXTRUDEDAREASOLID(#752,#819,#9,200.);
#821= IFCBOOLEANRESULT(.DIFFERENCE.,#817,#820);
#822= IFCDIRECTION((-0.707106781186548,-0.707106781186548,0.));
#823= IFCCARTESIANPOINT((1191.42135623699,-708.577286236255,-524.999999999651));
#824= IFCAXIS2PLACEMENT3D(#823,#822,#769);
#825= IFCEXTRUDEDAREASOLID(#767,#824,#9,200.);
#826= IFCBOOLEANRESULT(.DIFFERENCE.,#821,#825);
#827= IFCBOOLEANRESULT(.DIFFERENCE.,#810,#826);
#828= IFCRECTANGLEPROFILEDEF(.AREA.,'1500*1500',#73,1500.,1500.);
#829= IFCEXTRUDEDAREASOLID(#828,#739,#9,1500.);
#830= IFCBOOLEANRESULT(.DIFFERENCE.,#827,#829);
#831= IFCSHAPEREPRESENTATION(#13,'Body','CSG',(#830));
#832= IFCSTYLEDITEM(#740,(#272),$);
#833= IFCPRODUCTDEFINITIONSHAPE($,$,(#831));
#834= IFCCARTESIANPOINT((406290.359719941,412859.933242565,-2340.));
#835= IFCAXIS2PLACEMENT3D(#834,#8,#9);
#836= IFCLOCALPLACEMENT(#728,#835);
#837= IFCFOOTING('0$uBJmSE57xh0afI5mcjGb',#345,'CE-01','1800*1800',$,#836,#833,'ID3fe0b4f0-70e1-47ee-b024-a521709ad425',.PAD_FOOTING.);
#838= IFCPROPERTYSINGLEVALUE('NAME',$,IFCLABEL('CE-01'),$);
#839= IFCPROPERTYSET('1sHXCn1G98sAC0NaBpwuqQ',#5,'Default',$,(#261,#51,#52,#838));
#840= IFCPROPERTYSINGLEVALUE('Bottom elevation',$,IFCLABEL(' -2.340'),$);
#841= IFCPROPERTYSINGLEVALUE('Top elevation',$,IFCLABEL(' -0.690'),$);
#842= IFCPROPERTYSET('09nrj3FRL3x8n1RrJgsSvW',#5,'Tekla Common','Common Properties to Shared building elements',(#105,#840,#841,#108,#109,#61,#329));
#843= IFCPROPERTYSINGLEVALUE('Weight',$,IFCMASSMEASURE(4334.2),$);
#844= IFCPROPERTYSINGLEVALUE('Volume',$,IFCVOLUMEMEASURE(1.806),$);
#845= IFCPROPERTYSINGLEVALUE('Gross footprint area',$,IFCAREAMEASURE(0.99),$);
#846= IFCPROPERTYSINGLEVALUE('Area per tons',$,IFCAREAMEASURE(6.409),$);
#847= IFCPROPERTYSINGLEVALUE('Net surface area',$,IFCAREAMEASURE(27.78),$);
#848= IFCPROPERTYSINGLEVALUE('Height',$,IFCLENGTHMEASURE(1800.),$);
#849= IFCPROPERTYSINGLEVALUE('Width',$,IFCLENGTHMEASURE(1800.),$);
#850= IFCPROPERTYSINGLEVALUE('Length',$,IFCLENGTHMEASURE(1650.),$);
#851= IFCPROPERTYSET('026qlyVhr0Zwni10u1OK0g',#5,'Tekla Quantity','Quantity Properties to Shared building elements',(#843,#844,#845,#846,#847,#848,#849,#850));
#852= IFCQUANTITYLENGTH('Length',$,$,1650.);
#853= IFCQUANTITYAREA('OuterSurfaceArea',$,$,27.7795331879876);
#854= IFCQUANTITYAREA('GrossSurfaceArea',$,$,18.36);
#855= IFCQUANTITYAREA('CrossSectionArea',$,$,3.24);
#856= IFCQUANTITYVOLUME('NetVolume',$,$,1.80591666668302);
#857= IFCQUANTITYVOLUME('GrossVolume',$,$,5.346);
#858= IFCQUANTITYWEIGHT('NetWeight',$,$,4334.20000003925);
#859= IFCQUANTITYWEIGHT('GrossWeight',$,$,12830.4);
#860= IFCQUANTITYLENGTH('Height',$,$,1800.);
#861= IFCELEMENTQUANTITY('0onWuURWLFdAftzhvyhzJ5',#5,'BaseQuantities',$,$,(#852,#853,#854,#855,#856,#857,#858,#859,#735,#860));
#862= IFCLOCALPLACEMENT(#45,#10);
#863= IFCELEMENTASSEMBLY('35LtckxG117geoIn6BLW7Q',#586,'C19',$,$,#862,$,'PL0(?)',.NOTDEFINED.,.NOTDEFINED.);
#864= IFCPROPERTYSINGLEVALUE('Assembly/Cast unit weight',$,IFCMASSMEASURE(254.3),$);
#865= IFCPROPERTYSINGLEVALUE('Assembly/Cast unit bottom elevation',$,IFCLABEL(' -0.690'),$);
#866= IFCPROPERTYSINGLEVALUE('Assembly/Cast unit top elevation',$,IFCLABEL(' -0.680'),$);
#867= IFCPROPERTYSINGLEVALUE('Assembly/Cast unit Mark',$,IFCLABEL('PL0(?)'),$);
#868= IFCPROPERTYSET('0pXd3yrfT13OC_HySNhfYJ',#5,'Tekla Assembly','Assembly Properties',(#136,#56,#137,#864,#865,#866,#61,#62,#867));
#869= IFCQUANTITYLENGTH('Width',$,$,10.);
#870= IFCELEMENTQUANTITY('29611hAXj2GROBhgOJILHZ',#5,'BaseQuantities',$,$,(#869));
#871= IFCCARTESIANPOINT((1800.,0.));
#872= IFCCARTESIANPOINT((1800.,1800.));
#873= IFCCARTESIANPOINT((0.,1800.));
#874= IFCPOLYLINE((#72,#871,#872,#873,#72));
#875= IFCARBITRARYCLOSEDPROFILEDEF(.AREA.,'PL10*1800',#874);
#876= IFCCARTESIANPOINT((0.,0.,-5.));
#877= IFCAXIS2PLACEMENT3D(#876,#9,#7);
#878= IFCEXTRUDEDAREASOLID(#875,#877,#9,10.);
#879= IFCSHAPEREPRESENTATION(#13,'Body','SweptSolid',(#878));
#880= IFCSTYLEDITEM(#878,(#145),$);
#881= IFCPRODUCTDEFINITIONSHAPE($,$,(#879));
#882= IFCCARTESIANPOINT((405390.359719941,411959.933242565,-684.999999999998));
#883= IFCAXIS2PLACEMENT3D(#882,#9,#7);
#884= IFCLOCALPLACEMENT(#862,#883);
#885= IFCPLATE('15gFe1AR95RhVm8r9Ygf7f',#586,'C19','PL10*1800',$,#884,#881,'P0(?)');
#886= IFCPLATETYPE('0m8OKzcVT8a8nFyR$8pnJR',#5,'PL10*1800',$,$,$,$,$,$,.NOTDEFINED.);
#887= IFCPROPERTYSINGLEVALUE('NAME',$,IFCLABEL('C19'),$);
#888= IFCPROPERTYSET('11G33zaFX4W8meFvO8LW9k',#5,'Default',$,(#159,#51,#52,#887));
#889= IFCPROPERTYSINGLEVALUE('Bottom elevation',$,IFCLABEL(' -0.690'),$);
#890= IFCPROPERTYSINGLEVALUE('Top elevation',$,IFCLABEL(' -0.680'),$);
#891= IFCPROPERTYSET('3Mcbq8sDT88PRW_7w47eLl',#5,'Tekla Common','Common Properties to Shared building elements',(#105,#889,#890,#108,#109,#61,#110));
#892= IFCPROPERTYSINGLEVALUE('Weight',$,IFCMASSMEASURE(254.34),$);
#893= IFCPROPERTYSINGLEVALUE('Volume',$,IFCVOLUMEMEASURE(0.032),$);
#894= IFCPROPERTYSINGLEVALUE('Gross footprint area',$,IFCAREAMEASURE(3.24),$);
#895= IFCPROPERTYSINGLEVALUE('Area per tons',$,IFCAREAMEASURE(25.761),$);
#896= IFCPROPERTYSINGLEVALUE('Net surface area',$,IFCAREAMEASURE(6.552),$);
#897= IFCPROPERTYSINGLEVALUE('Width',$,IFCLENGTHMEASURE(10.),$);
#898= IFCPROPERTYSINGLEVALUE('Length',$,IFCLENGTHMEASURE(1800.),$);
#899= IFCPROPERTYSET('1Bw3FffQz9gfwA7pW4gCec',#5,'Tekla Quantity','Quantity Properties to Shared building elements',(#892,#893,#894,#895,#896,#848,#897,#898));
#900= IFCPROPERTYSINGLEVALUE('LoadBearing',$,IFCBOOLEAN(.T.),$);
#901= IFCPROPERTYSINGLEVALUE('Reference',$,IFCIDENTIFIER('P0(?)'),$);
#902= IFCPROPERTYSET('2QidC5G7v1jB4rCkkLG8R$',#5,'Pset_PlateCommon','Common Properties to plate elements',(#121,#122,#900,#901));
#903= IFCQUANTITYLENGTH('Width',$,$,1800.);
#904= IFCQUANTITYAREA('NetArea',$,$,6.552);
#905= IFCQUANTITYAREA('GrossArea',$,$,3.24);
#906= IFCQUANTITYAREA('CrossSectionArea',$,$,0.0001);
#907= IFCQUANTITYVOLUME('NetVolume',$,$,0.0324);
#908= IFCQUANTITYVOLUME('GrossVolume',$,$,0.0324);
#909= IFCELEMENTQUANTITY('25rtbtMYr4ER5h5yvw5iby',#5,'BaseQuantities',$,$,(#903,#904,#905,#906,#907,#908));
#910= IFCLOCALPLACEMENT(#45,#10);
#911= IFCELEMENTASSEMBLY('3R9pjdQoL6cAzZeffPB63F',#345,'CE-04',$,$,#910,$,'Z0(?)',.NOTDEFINED.,.NOTDEFINED.);
#912= IFCPROPERTYSINGLEVALUE('Assembly/Cast unit bottom elevation',$,IFCLABEL(' -2.290'),$);
#913= IFCPROPERTYSINGLEVALUE('Assembly/Cast unit top elevation',$,IFCLABEL(' -0.640'),$);
#914= IFCPROPERTYSET('3aoDcnb9n9ZR3SL$GLW5vP',#5,'Tekla Assembly','Assembly Properties',(#55,#56,#57,#730,#912,#913,#61,#62,#733));
#915= IFCBOOLEANRESULT(.DIFFERENCE.,#748,#757);
#916= IFCBOOLEANRESULT(.DIFFERENCE.,#915,#762);
#917= IFCBOOLEANRESULT(.DIFFERENCE.,#916,#772);
#918= IFCBOOLEANRESULT(.DIFFERENCE.,#740,#917);
#919= IFCBOOLEANRESULT(.DIFFERENCE.,#777,#780);
#920= IFCBOOLEANRESULT(.DIFFERENCE.,#919,#785);
#921= IFCBOOLEANRESULT(.DIFFERENCE.,#920,#791);
#922= IFCBOOLEANRESULT(.DIFFERENCE.,#918,#921);
#923= IFCBOOLEANRESULT(.DIFFERENCE.,#796,#799);
#924= IFCBOOLEANRESULT(.DIFFERENCE.,#923,#803);
#925= IFCBOOLEANRESULT(.DIFFERENCE.,#924,#808);
#926= IFCBOOLEANRESULT(.DIFFERENCE.,#922,#925);
#927= IFCBOOLEANRESULT(.DIFFERENCE.,#813,#816);
#928= IFCBOOLEANRESULT(.DIFFERENCE.,#927,#820);
#929= IFCBOOLEANRESULT(.DIFFERENCE.,#928,#825);
#930= IFCBOOLEANRESULT(.DIFFERENCE.,#926,#929);
#931= IFCBOOLEANRESULT(.DIFFERENCE.,#930,#829);
#932= IFCSHAPEREPRESENTATION(#13,'Body','CSG',(#931));
#933= IFCPRODUCTDEFINITIONSHAPE($,$,(#932));
#934= IFCCARTESIANPOINT((406290.364016144,390269.935806042,-2290.));
#935= IFCAXIS2PLACEMENT3D(#934,#8,#9);
#936= IFCLOCALPLACEMENT(#910,#935);
#937= IFCFOOTING('3dffTX_VrAXQA7K8aV$cbE',#345,'CE-04','1800*1800',$,#936,#933,'IDe7a69761-f9fd-4a85-a287-50891ffe694e',.PAD_FOOTING.);
#938= IFCPROPERTYSINGLEVALUE('NAME',$,IFCLABEL('CE-04'),$);
#939= IFCPROPERTYSET('1vtHp93L1Aag3lroTDZyxR',#5,'Default',$,(#261,#51,#52,#938));
#940= IFCPROPERTYSINGLEVALUE('Bottom elevation',$,IFCLABEL(' -2.290'),$);
#941= IFCPROPERTYSINGLEVALUE('Top elevation',$,IFCLABEL(' -0.640'),$);
#942= IFCPROPERTYSET('1ye7d8tfLDCRIR_9$4mMu4',#5,'Tekla Common','Common Properties to Shared building elements',(#105,#940,#941,#108,#109,#61,#329));
#943= IFCLOCALPLACEMENT(#45,#10);
#944= IFCELEMENTASSEMBLY('1ykEaOAPjBYOY35qoY_HOl',#586,'C19',$,$,#943,$,'PL0(?)',.NOTDEFINED.,.NOTDEFINED.);
#945= IFCPROPERTYSINGLEVALUE('Assembly/Cast unit bottom elevation',$,IFCLABEL(' -0.640'),$);
#946= IFCPROPERTYSINGLEVALUE('Assembly/Cast unit top elevation',$,IFCLABEL(' -0.630'),$);
#947= IFCPROPERTYSET('21uXoNLGXDTRFnO7Xs35rY',#5,'Tekla Assembly','Assembly Properties',(#136,#56,#137,#864,#945,#946,#61,#62,#867));
#948= IFCSHAPEREPRESENTATION(#13,'Body','SweptSolid',(#878));
#949= IFCPRODUCTDEFINITIONSHAPE($,$,(#948));
#950= IFCCARTESIANPOINT((405390.364016144,389369.935806042,-634.999999999998));
#951= IFCAXIS2PLACEMENT3D(#950,#9,#7);
#952= IFCLOCALPLACEMENT(#943,#951);
#953= IFCPLATE('0KF9k7M5910BWP_781JKyN',#586,'C19','PL10*1800',$,#952,#949,'P0(?)');
#954= IFCPROPERTYSINGLEVALUE('Bottom elevation',$,IFCLABEL(' -0.640'),$);
#955= IFCPROPERTYSINGLEVALUE('Top elevation',$,IFCLABEL(' -0.630'),$);
#956= IFCPROPERTYSET('1mFnI$e2f4Qfj8WkK2FZed',#5,'Tekla Common','Common Properties to Shared building elements',(#105,#954,#955,#108,#109,#61,#110));
#957= IFCLOCALPLACEMENT(#45,#10);
#958= IFCELEMENTASSEMBLY('1aCUwq4urEjf$FWJvlQp0b',#47,'CE-02',$,$,#957,$,'Z0(?)',.NOTDEFINED.,.NOTDEFINED.);
#959= IFCPROPERTYSINGLEVALUE('Assembly/Cast unit bottom elevation',$,IFCLABEL(' -2.450'),$);
#960= IFCPROPERTYSINGLEVALUE('Assembly/Cast unit top elevation',$,IFCLABEL(' -0.800'),$);
#961= IFCPROPERTYSET('0wvTJtYcf65g8HuHTmzplI',#5,'Tekla Assembly','Assembly Properties',(#55,#56,#57,#730,#959,#960,#61,#62,#733));
#962= IFCBOOLEANRESULT(.DIFFERENCE.,#748,#757);
#963= IFCBOOLEANRESULT(.DIFFERENCE.,#962,#762);
#964= IFCBOOLEANRESULT(.DIFFERENCE.,#963,#772);
#965= IFCBOOLEANRESULT(.DIFFERENCE.,#740,#964);
#966= IFCBOOLEANRESULT(.DIFFERENCE.,#777,#780);
#967= IFCBOOLEANRESULT(.DIFFERENCE.,#966,#785);
#968= IFCBOOLEANRESULT(.DIFFERENCE.,#967,#791);
#969= IFCBOOLEANRESULT(.DIFFERENCE.,#965,#968);
#970= IFCBOOLEANRESULT(.DIFFERENCE.,#796,#799);
#971= IFCBOOLEANRESULT(.DIFFERENCE.,#970,#803);
#972= IFCBOOLEANRESULT(.DIFFERENCE.,#971,#808);
#973= IFCBOOLEANRESULT(.DIFFERENCE.,#969,#972);
#974= IFCBOOLEANRESULT(.DIFFERENCE.,#813,#816);
#975= IFCBOOLEANRESULT(.DIFFERENCE.,#974,#820);
#976= IFCBOOLEANRESULT(.DIFFERENCE.,#975,#825);
#977= IFCBOOLEANRESULT(.DIFFERENCE.,#973,#976);
#978= IFCBOOLEANRESULT(.DIFFERENCE.,#977,#829);
#979= IFCSHAPEREPRESENTATION(#13,'Body','CSG',(#978));
#980= IFCPRODUCTDEFINITIONSHAPE($,$,(#979));
#981= IFCCARTESIANPOINT((420544.750607087,419599.792785412,-2450.));
#982= IFCAXIS2PLACEMENT3D(#981,#8,#9);
#983= IFCLOCALPLACEMENT(#957,#982);
#984= IFCFOOTING('0K2fLD0QP0WP1G9jrpXfEX',#47,'CE-02','1800*1800',$,#983,#980,'ID140a954d-01a6-4081-9050-26dd738693a1',.PAD_FOOTING.);
#985= IFCPROPERTYSINGLEVALUE('NAME',$,IFCLABEL('CE-02'),$);
#986= IFCPROPERTYSET('3tklLkQ8DFwAEoFI68qeey',#5,'Default',$,(#261,#51,#52,#985));
#987= IFCPROPERTYSINGLEVALUE('Bottom elevation',$,IFCLABEL(' -2.450'),$);
#988= IFCPROPERTYSINGLEVALUE('Top elevation',$,IFCLABEL(' -0.800'),$);
#989= IFCPROPERTYSET('2StZVmXvv6l895FHvFAVPk',#5,'Tekla Common','Common Properties to Shared building elements',(#105,#987,#988,#108,#109,#61,#329));
#990= IFCLOCALPLACEMENT(#45,#10);
#991= IFCELEMENTASSEMBLY('2FMkQ2WlbEK9eIFYZf2EXm',#47,'C19',$,$,#990,$,'PL0(?)',.NOTDEFINED.,.NOTDEFINED.);
#992= IFCPROPERTYSINGLEVALUE('Assembly/Cast unit bottom elevation',$,IFCLABEL(' -0.800'),$);
#993= IFCPROPERTYSINGLEVALUE('Assembly/Cast unit top elevation',$,IFCLABEL(' -0.790'),$);
#994= IFCPROPERTYSET('36XiLgSQvA$9dTMTFq5uP3',#5,'Tekla Assembly','Assembly Properties',(#136,#56,#137,#864,#992,#993,#61,#62,#867));
#995= IFCSHAPEREPRESENTATION(#13,'Body','SweptSolid',(#878));
#996= IFCPRODUCTDEFINITIONSHAPE($,$,(#995));
#997= IFCCARTESIANPOINT((419644.750607087,418699.792785412,-794.999999999998));
#998= IFCAXIS2PLACEMENT3D(#997,#9,#7);
#999= IFCLOCALPLACEMENT(#990,#998);
#1000= IFCPLATE('0XQLSUhe1Ezehem5j9bFzU',#47,'C19','PL10*1800',$,#999,#996,'P0(?)');
#1001= IFCPROPERTYSINGLEVALUE('Bottom elevation',$,IFCLABEL(' -0.800'),$);
#1002= IFCPROPERTYSINGLEVALUE('Top elevation',$,IFCLABEL(' -0.790'),$);
#1003= IFCPROPERTYSET('3Ziy68oBf6rRvyYoTVoOOS',#5,'Tekla Common','Common Properties to Shared building elements',(#105,#1001,#1002,#108,#109,#61,#110));
#1004= IFCLOCALPLACEMENT(#45,#10);
#1005= IFCELEMENTASSEMBLY('3X98dPamn3Rez9SlfBOCoZ',#345,'CE-05',$,$,#1004,$,'Z0(?)',.NOTDEFINED.,.NOTDEFINED.);
#1006= IFCPROPERTYSINGLEVALUE('Assembly/Cast unit bottom elevation',$,IFCLABEL(' -2.350'),$);
#1007= IFCPROPERTYSINGLEVALUE('Assembly/Cast unit top elevation',$,IFCLABEL(' -0.700'),$);
#1008= IFCPROPERTYSET('155vpH7tbBiu63lVa9AToT',#5,'Tekla Assembly','Assembly Properties',(#55,#56,#57,#730,#1006,#1007,#61,#62,#733));
#1009= IFCBOOLEANRESULT(.DIFFERENCE.,#748,#757);
#1010= IFCBOOLEANRESULT(.DIFFERENCE.,#1009,#762);
#1011= IFCBOOLEANRESULT(.DIFFERENCE.,#1010,#772);
#1012= IFCBOOLEANRESULT(.DIFFERENCE.,#740,#1011);
#1013= IFCBOOLEANRESULT(.DIFFERENCE.,#777,#780);
#1014= IFCBOOLEANRESULT(.DIFFERENCE.,#1013,#785);
#1015= IFCBOOLEANRESULT(.DIFFERENCE.,#1014,#791);
#1016= IFCBOOLEANRESULT(.DIFFERENCE.,#1012,#1015);
#1017= IFCBOOLEANRESULT(.DIFFERENCE.,#796,#799);
#1018= IFCBOOLEANRESULT(.DIFFERENCE.,#1017,#803);
#1019= IFCBOOLEANRESULT(.DIFFERENCE.,#1018,#808);
#1020= IFCBOOLEANRESULT(.DIFFERENCE.,#1016,#1019);
#1021= IFCBOOLEANRESULT(.DIFFERENCE.,#813,#816);
#1022= IFCBOOLEANRESULT(.DIFFERENCE.,#1021,#820);
#1023= IFCBOOLEANRESULT(.DIFFERENCE.,#1022,#825);
#1024= IFCBOOLEANRESULT(.DIFFERENCE.,#1020,#1023);
#1025= IFCBOOLEANRESULT(.DIFFERENCE.,#1024,#829);
#1026= IFCSHAPEREPRESENTATION(#13,'Body','CSG',(#1025));
#1027= IFCPRODUCTDEFINITIONSHAPE($,$,(#1026));
#1028= IFCCARTESIANPOINT((416544.995480134,390269.935806042,-2350.));
#1029= IFCAXIS2PLACEMENT3D(#1028,#8,#9);
#1030= IFCLOCALPLACEMENT(#1004,#1029);
#1031= IFCFOOTING('2NCne50yT2IAIONYZvcM3R',#345,'CE-05','1800*1800',$,#1030,#1027,'ID97331a05-03c7-4248-a498-5e28f99960db',.PAD_FOOTING.);
#1032= IFCPROPERTYSINGLEVALUE('NAME',$,IFCLABEL('CE-05'),$);
#1033= IFCPROPERTYSET('1hQ8k1VDrA3Ql$RD2gHJnG',#5,'Default',$,(#261,#51,#52,#1032));
#1034= IFCPROPERTYSINGLEVALUE('Bottom elevation',$,IFCLABEL(' -2.350'),$);
#1035= IFCPROPERTYSINGLEVALUE('Top elevation',$,IFCLABEL(' -0.700'),$);
#1036= IFCPROPERTYSET('1rmsK5S8z4Cgmn4ioLxE4Y',#5,'Tekla Common','Common Properties to Shared building elements',(#105,#1034,#1035,#108,#109,#61,#329));
#1037= IFCLOCALPLACEMENT(#45,#10);
#1038= IFCELEMENTASSEMBLY('06TBnxpeTBpgxFQ2QYbVSJ',#345,'C19',$,$,#1037,$,'PL0(?)',.NOTDEFINED.,.NOTDEFINED.);
#1039= IFCPROPERTYSINGLEVALUE('Assembly/Cast unit bottom elevation',$,IFCLABEL(' -0.700'),$);
#1040= IFCPROPERTYSET('0IjX9RW0fE2vwqGautlI04',#5,'Tekla Assembly','Assembly Properties',(#136,#56,#137,#864,#1039,#732,#61,#62,#867));
#1041= IFCSHAPEREPRESENTATION(#13,'Body','SweptSolid',(#878));
#1042= IFCPRODUCTDEFINITIONSHAPE($,$,(#1041));
#1043= IFCCARTESIANPOINT((415644.995480134,389369.935806042,-694.999999999998));
#1044= IFCAXIS2PLACEMENT3D(#1043,#9,#7);
#1045= IFCLOCALPLACEMENT(#1037,#1044);
#1046= IFCPLATE('1InIXlpLP0$h8lMd97Luqn',#345,'C19','PL10*1800',$,#1045,#1042,'P0(?)');
#1047= IFCPROPERTYSINGLEVALUE('Bottom elevation',$,IFCLABEL(' -0.700'),$);
#1048= IFCPROPERTYSET('2FI6aGW_jF$OA6m8sCoaG1',#5,'Tekla Common','Common Properties to Shared building elements',(#105,#1047,#841,#108,#109,#61,#110));
#1049= IFCLOCALPLACEMENT(#45,#10);
#1050= IFCELEMENTASSEMBLY('0qPYiZZxf7rAXbEBzD9zRZ',#47,'CE-03',$,$,#1049,$,'Z0(?)',.NOTDEFINED.,.NOTDEFINED.);
#1051= IFCBOOLEANRESULT(.DIFFERENCE.,#748,#757);
#1052= IFCBOOLEANRESULT(.DIFFERENCE.,#1051,#762);
#1053= IFCBOOLEANRESULT(.DIFFERENCE.,#1052,#772);
#1054= IFCBOOLEANRESULT(.DIFFERENCE.,#740,#1053);
#1055= IFCBOOLEANRESULT(.DIFFERENCE.,#777,#780);
#1056= IFCBOOLEANRESULT(.DIFFERENCE.,#1055,#785);
#1057= IFCBOOLEANRESULT(.DIFFERENCE.,#1056,#791);
#1058= IFCBOOLEANRESULT(.DIFFERENCE.,#1054,#1057);
#1059= IFCBOOLEANRESULT(.DIFFERENCE.,#796,#799);
#1060= IFCBOOLEANRESULT(.DIFFERENCE.,#1059,#803);
#1061= IFCBOOLEANRESULT(.DIFFERENCE.,#1060,#808);
#1062= IFCBOOLEANRESULT(.DIFFERENCE.,#1058,#1061);
#1063= IFCBOOLEANRESULT(.DIFFERENCE.,#813,#816);
#1064= IFCBOOLEANRESULT(.DIFFERENCE.,#1063,#820);
#1065= IFCBOOLEANRESULT(.DIFFERENCE.,#1064,#825);
#1066= IFCBOOLEANRESULT(.DIFFERENCE.,#1062,#1065);
#1067= IFCBOOLEANRESULT(.DIFFERENCE.,#1066,#829);
#1068= IFCSHAPEREPRESENTATION(#13,'Body','CSG',(#1067));
#1069= IFCPRODUCTDEFINITIONSHAPE($,$,(#1068));
#1070= IFCCARTESIANPOINT((422874.750607087,419599.792785412,-2450.));
#1071= IFCAXIS2PLACEMENT3D(#1070,#8,#9);
#1072= IFCLOCALPLACEMENT(#1049,#1071);
#1073= IFCFOOTING('2JyWk7TJj668Emb$dgeCfQ',#47,'CE-03','1800*1800',$,#1072,#1069,'ID93f20b87-753b-4618-83b0-97f9eaa0ca5a',.PAD_FOOTING.);
#1074= IFCPROPERTYSINGLEVALUE('NAME',$,IFCLABEL('CE-03'),$);
#1075= IFCPROPERTYSET('35RRSR2bHF_vVKJsTuK9p3',#5,'Default',$,(#261,#51,#52,#1074));
#1076= IFCLOCALPLACEMENT(#45,#10);
#1077= IFCELEMENTASSEMBLY('2bH2w5e$n5M8vA8h7MgBt5',#47,'C19',$,$,#1076,$,'PL0(?)',.NOTDEFINED.,.NOTDEFINED.);
#1078= IFCSHAPEREPRESENTATION(#13,'Body','SweptSolid',(#878));
#1079= IFCPRODUCTDEFINITIONSHAPE($,$,(#1078));
#1080= IFCCARTESIANPOINT((421974.750607087,418699.792785412,-794.999999999998));
#1081= IFCAXIS2PLACEMENT3D(#1080,#9,#7);
#1082= IFCLOCALPLACEMENT(#1076,#1081);
#1083= IFCPLATE('0A1zuuJ8X2SeZmaUyWZBF6',#47,'C19','PL10*1800',$,#1082,#1079,'P0(?)');
#1084= IFCLOCALPLACEMENT(#45,#10);
#1085= IFCELEMENTASSEMBLY('1b0ATNNSHBNgiFVco1PRY6',#345,'CE-06',$,$,#1084,$,'Z0(?)',.NOTDEFINED.,.NOTDEFINED.);
#1086= IFCBOOLEANRESULT(.DIFFERENCE.,#748,#757);
#1087= IFCBOOLEANRESULT(.DIFFERENCE.,#1086,#762);
#1088= IFCBOOLEANRESULT(.DIFFERENCE.,#1087,#772);
#1089= IFCBOOLEANRESULT(.DIFFERENCE.,#740,#1088);
#1090= IFCBOOLEANRESULT(.DIFFERENCE.,#777,#780);
#1091= IFCBOOLEANRESULT(.DIFFERENCE.,#1090,#785);
#1092= IFCBOOLEANRESULT(.DIFFERENCE.,#1091,#791);
#1093= IFCBOOLEANRESULT(.DIFFERENCE.,#1089,#1092);
#1094= IFCBOOLEANRESULT(.DIFFERENCE.,#796,#799);
#1095= IFCBOOLEANRESULT(.DIFFERENCE.,#1094,#803);
#1096= IFCBOOLEANRESULT(.DIFFERENCE.,#1095,#808);
#1097= IFCBOOLEANRESULT(.DIFFERENCE.,#1093,#1096);
#1098= IFCBOOLEANRESULT(.DIFFERENCE.,#813,#816);
#1099= IFCBOOLEANRESULT(.DIFFERENCE.,#1098,#820);
#1100= IFCBOOLEANRESULT(.DIFFERENCE.,#1099,#825);
#1101= IFCBOOLEANRESULT(.DIFFERENCE.,#1097,#1100);
#1102= IFCBOOLEANRESULT(.DIFFERENCE.,#1101,#829);
#1103= IFCSHAPEREPRESENTATION(#13,'Body','CSG',(#1102));
#1104= IFCPRODUCTDEFINITIONSHAPE($,$,(#1103));
#1105= IFCCARTESIANPOINT((418544.995480134,390269.935806042,-2350.));
#1106= IFCAXIS2PLACEMENT3D(#1105,#8,#9);
#1107= IFCLOCALPLACEMENT(#1084,#1106);
#1108= IFCFOOTING('31_WyeuLHFxx6Sn34BMwZU',#345,'CE-06','1800*1800',$,#1107,#1104,'IDc1fa0f28-e154-4fef-b19c-c4310b5ba8de',.PAD_FOOTING.);
#1109= IFCPROPERTYSINGLEVALUE('NAME',$,IFCLABEL('CE-06'),$);
#1110= IFCPROPERTYSET('0F$4lHXhD1mQsZUrmCmBEr',#5,'Default',$,(#261,#51,#52,#1109));
#1111= IFCLOCALPLACEMENT(#45,#10);
#1112= IFCELEMENTASSEMBLY('1dRg1mql13Q9gUPVUowFT_',#345,'C19',$,$,#1111,$,'PL0(?)',.NOTDEFINED.,.NOTDEFINED.);
#1113= IFCSHAPEREPRESENTATION(#13,'Body','SweptSolid',(#878));
#1114= IFCPRODUCTDEFINITIONSHAPE($,$,(#1113));
#1115= IFCCARTESIANPOINT((417644.995480134,389369.935806042,-694.999999999998));
#1116= IFCAXIS2PLACEMENT3D(#1115,#9,#7);
#1117= IFCLOCALPLACEMENT(#1111,#1116);
#1118= IFCPLATE('0M_BpijJL0eAfbA6EHoXEd',#345,'C19','PL10*1800',$,#1117,#1114,'P0(?)');
#1119= IFCRELAGGREGATES('2$ztIa7x90oPTHyr0iFC43',#5,$,$,#38,(#42));
#1120= IFCRELAGGREGATES('0YoFGau_v8kg641YYvirOi',#5,$,$,#42,(#44));
#1121= IFCRELAGGREGATES('1niQkZFEz3VRE3xnkFp8t9',#5,$,$,#44,(#46));
#1122= IFCRELAGGREGATES('37d$C$rxjD8f6PGZ7Marpu',#5,$,$,#49,(#101));
#1123= IFCRELAGGREGATES('2TjWcMb0fBCuzeQ61zGCUp',#5,$,$,#133,(#157));
#1124= IFCRELAGGREGATES('2CTcU5JdL7ARShERImzYr9',#5,$,$,#181,(#187));
#1125= IFCRELAGGREGATES('3SYzgapx9Dkgl$rL_61wV$',#5,$,$,#189,(#195));
#1126= IFCRELAGGREGATES('3x1rKpbG5F4fs_uvgw0Fjf',#5,$,$,#197,(#210));
#1127= IFCRELAGGREGATES('3aQk5geWrDDB_Upw8KbYEb',#5,$,$,#221,(#230));
#1128= IFCRELAGGREGATES('1G5e9rMGT7PQJucvMRJ2Gr',#5,$,$,#235,(#241));
#1129= IFCRELAGGREGATES('0WoW$9Vi9FrxX5Ok8MO5AL',#5,$,$,#243,(#249));
#1130= IFCRELAGGREGATES('1B3Rz$xvr19RNkVOrjCY$l',#5,$,$,#251,(#258));
#1131= IFCRELAGGREGATES('35XhMzIJHDmeFisTzkVVmp',#5,$,$,#260,(#324));
#1132= IFCRELAGGREGATES('2mjQgC9XPBEPIX$OKfH6kd',#5,$,$,#347,(#366));
#1133= IFCRELAGGREGATES('2m38LspYDDBRGYjOyxPUk0',#5,$,$,#384,(#411));
#1134= IFCRELAGGREGATES('05TPImGhv4NAz6uPM6MQRM',#5,$,$,#423,(#436));
#1135= IFCRELAGGREGATES('3oXKmk1fb51O3xIo2ugRYU',#5,$,$,#447,(#453));
#1136= IFCRELAGGREGATES('2QMqUV_s19599uJguzbUTq',#5,$,$,#455,(#461));
#1137= IFCRELAGGREGATES('0ybGv9pwP9w95X2BU4St8y',#5,$,$,#463,(#476));
#1138= IFCRELAGGREGATES('33qcUJgib69AbVGDd2Fv2z',#5,$,$,#487,(#494));
#1139= IFCRELAGGREGATES('2HkIqT4Xz2588fgvwDqhgu',#5,$,$,#496,(#502));
#1140= IFCRELAGGREGATES('1QSPijm9X6pQvrw4c4dN9U',#5,$,$,#504,(#510));
#1141= IFCRELAGGREGATES('2YzL0W91b9ohWSkTKBK6dU',#5,$,$,#512,(#519));
#1142= IFCRELAGGREGATES('27srkpp$T9I8FCspvYHzpW',#5,$,$,#521,(#574));
#1143= IFCRELAGGREGATES('3vbkWwT15DfRh6N_njZ6hl',#5,$,$,#588,(#606));
#1144= IFCRELAGGREGATES('2VR3oR66b6xxLO5xsatapK',#5,$,$,#625,(#631));
#1145= IFCRELAGGREGATES('269VQHFZf5XOTB8iY_Vtzq',#5,$,$,#633,(#639));
#1146= IFCRELAGGREGATES('2FO$UXuMz9Wx6dU9rD6dRf',#5,$,$,#641,(#650));
#1147= IFCRELAGGREGATES('3g5b5tI1153h9T7xL8Pj1p',#5,$,$,#655,(#661));
#1148= IFCRELAGGREGATES('1_mu3Q3pf5lxViFeZ68sXS',#5,$,$,#663,(#669));
#1149= IFCRELAGGREGATES('2ftofUx9fB2wbXtnroH7Q8',#5,$,$,#672,(#712));
#1150= IFCRELAGGREGATES('0KzBfleczFOQDpnKVE9mKm',#5,$,$,#729,(#837));
#1151= IFCRELAGGREGATES('1yXHbJxM9FahtEIpfqzC9t',#5,$,$,#863,(#885));
#1152= IFCRELAGGREGATES('1kKTSzCJbEb8ywFzL0fKxm',#5,$,$,#911,(#937));
#1153= IFCRELAGGREGATES('23kh8kaOrFaAuUp1G3CUqh',#5,$,$,#944,(#953));
#1154= IFCRELAGGREGATES('1UfknA311CRQkhWUiRMsln',#5,$,$,#958,(#984));
#1155= IFCRELAGGREGATES('2TYAoOfQfDhhRCGseaAHAv',#5,$,$,#991,(#1000));
#1156= IFCRELAGGREGATES('3GYc9dcbT29B5NIEnmzZf_',#5,$,$,#1005,(#1031));
#1157= IFCRELAGGREGATES('0zke5gLtH6uvpoLJjgB5Aj',#5,$,$,#1038,(#1046));
#1158= IFCRELAGGREGATES('1M2v5Wvu570fuSf_hqXuP1',#5,$,$,#1050,(#1073));
#1159= IFCRELAGGREGATES('3an8jEwYD3ERzJ032Wr5QT',#5,$,$,#1077,(#1083));
#1160= IFCRELAGGREGATES('0ixi16_ijDphstINcP5mQt',#5,$,$,#1085,(#1108));
#1161= IFCRELAGGREGATES('1778XAbAT5PQqtCrZzbfju',#5,$,$,#1112,(#1118));
#1162= IFCRELCONTAINEDINSPATIALSTRUCTURE('1KFZnFmPf1lx9h8cqBSAJW',#5,$,$,(#1112,#1085,#1077,#1050,#1038,#1005,#991,#958,#944,#911,#863,#729,#672,#663,#655,#641,#633,#625,#588,#521,#512,#504,#496,#487,#463,#455,#447,#423,#384,#347,#260,#251,#243,#235,#221,#197,#189,#181,#133,#49),#46);
#1163= IFCRELDEFINESBYPROPERTIES('3r8IgxHsfAOOm_9TuH31uL',#5,$,$,(#384,#347,#49),#54);
#1164= IFCRELDEFINESBYPROPERTIES('2mLXCPDYbA1edFeXJTOWls',#5,$,$,(#49),#64);
#1165= IFCRELDEFINESBYPROPERTIES('3rnMMmT_17pOvnkeJIed6G',#5,$,$,(#384,#49),#66);
#1166= IFCRELDEFINESBYPROPERTIES('2aIKQzYYjBkPvRfAxMN0nh',#5,$,$,(#411,#366,#101),#104);
#1167= IFCRELDEFINESBYPROPERTIES('3QV4kzlSTEYxGVMNS9a73t',#5,$,$,(#411,#101),#111);
#1168= IFCRELDEFINESBYPROPERTIES('2OwM7zrp56hhflShPSF3m9',#5,$,$,(#101),#120);
#1169= IFCRELDEFINESBYPROPERTIES('0_uEudWKXC2O_wY3YB$Ie6',#5,$,$,(#712,#669,#661,#650,#639,#631,#606,#574,#411,#366,#324,#101),#125);
#1170= IFCRELDEFINESBYPROPERTIES('2tfG28eAP5ZROHBW$bklpO',#5,$,$,(#101),#130);
#1171= IFCRELDEFINESBYPROPERTIES('3$AKV4Mc96Shdv85vrqg6v',#5,$,$,(#1112,#1077,#1038,#991,#944,#863,#663,#655,#641,#633,#625,#588,#512,#504,#496,#487,#463,#455,#447,#423,#251,#243,#235,#221,#197,#189,#181,#133),#135);
#1172= IFCRELDEFINESBYPROPERTIES('3C7SXaLSX80xh2Pf2TnWaP',#5,$,$,(#189,#181,#133),#141);
#1173= IFCRELDEFINESBYPROPERTIES('1g2U93YfvE4unJHDg4jlKg',#5,$,$,(#663,#655,#641,#633,#625,#588,#512,#504,#496,#487,#463,#455,#447,#423,#251,#243,#235,#221,#197,#189,#181,#133),#143);
#1174= IFCRELDEFINESBYPROPERTIES('0OAeob1mXAueC4E28c10H2',#5,$,$,(#519,#510,#502,#494,#476,#461,#453,#436,#258,#249,#241,#230,#210,#195,#187,#157),#160);
#1175= IFCRELDEFINESBYPROPERTIES('3fRpKrP$X7ThsvKUcPbWh3',#5,$,$,(#476,#461,#453,#436,#210,#195,#187,#157),#163);
#1176= IFCRELDEFINESBYPROPERTIES('01hjzvAVP1nB7kB3C7SboZ',#5,$,$,(#249,#241,#230,#195,#187,#157),#171);
#1177= IFCRELDEFINESBYPROPERTIES('3OMXDT4r96EeboNzmQfsqr',#5,$,$,(#519,#510,#502,#494,#476,#461,#453,#436,#258,#249,#241,#230,#210,#195,#187,#157),#173);
#1178= IFCRELDEFINESBYPROPERTIES('27AvwzCkDFE9QZpkmLicKG',#5,$,$,(#249,#241,#230,#195,#187,#157),#178);
#1179= IFCRELDEFINESBYPROPERTIES('0MfDhjEDL4Dh2rTn_AAUyv',#5,$,$,(#197),#199);
#1180= IFCRELDEFINESBYPROPERTIES('04dg_9IBP2xfDAcalZSCvn',#5,$,$,(#258,#210),#214);
#1181= IFCRELDEFINESBYPROPERTIES('25CQm$DTP57wcfoTuVTn3G',#5,$,$,(#258,#210),#219);
#1182= IFCRELDEFINESBYPROPERTIES('3cyL86QoH0zRrzRVcIxbpu',#5,$,$,(#243,#235,#221),#224);
#1183= IFCRELDEFINESBYPROPERTIES('0skiQ0RKz7NPb_4o68H5Mg',#5,$,$,(#519,#510,#502,#494,#258,#249,#241,#230),#233);
#1184= IFCRELDEFINESBYPROPERTIES('2gypvJ8nrFPx63G29mm8A6',#5,$,$,(#251),#252);
#1185= IFCRELDEFINESBYPROPERTIES('1hp7XRQS16VxhIUhXZLsOg',#5,$,$,(#1085,#1050,#1005,#958,#911,#729,#672,#521,#260),#262);
#1186= IFCRELDEFINESBYPROPERTIES('0$khUq3AbEjxwKJAHECB97',#5,$,$,(#260),#266);
#1187= IFCRELDEFINESBYPROPERTIES('2VggDpYy1EwxCyjuW0b9nX',#5,$,$,(#521,#260),#268);
#1188= IFCRELDEFINESBYPROPERTIES('0P01ftBavEkvAUOnHl6FwT',#5,$,$,(#712,#574,#324),#326);
#1189= IFCRELDEFINESBYPROPERTIES('2pAOxPERv81QwT6Xbo7bIB',#5,$,$,(#574,#324),#330);
#1190= IFCRELDEFINESBYPROPERTIES('3_je_Crn59n9pHTuxRXWfw',#5,$,$,(#324),#338);
#1191= IFCRELDEFINESBYPROPERTIES('3rprAl5vb00PvzjvrwtppT',#5,$,$,(#324),#343);
#1192= IFCRELDEFINESBYPROPERTIES('11MClzEfjFgQobeh$iVV3H',#5,$,$,(#347),#351);
#1193= IFCRELDEFINESBYPROPERTIES('0Ze5PAB9TDl8ojfd3eF5P4',#5,$,$,(#347),#353);
#1194= IFCRELDEFINESBYPROPERTIES('1iibza4o16pOjwqahGsx_8',#5,$,$,(#366),#370);
#1195= IFCRELDEFINESBYPROPERTIES('3ZNYLzBqTEXAhmWBSvqWN2',#5,$,$,(#366),#377);
#1196= IFCRELDEFINESBYPROPERTIES('3dORXTdnPDi9oGLvYAq3b0',#5,$,$,(#366),#382);
#1197= IFCRELDEFINESBYPROPERTIES('0XMQOl1sXFl9KY2QJQxeX_',#5,$,$,(#384),#386);
#1198= IFCRELDEFINESBYPROPERTIES('3B0W11AKP5VgooS7laIA6A',#5,$,$,(#411),#416);
#1199= IFCRELDEFINESBYPROPERTIES('2b9hIaAqv3BOSTo9JaxxbB',#5,$,$,(#411),#421);
#1200= IFCRELDEFINESBYPROPERTIES('3yYt_dSmT6Z9se$ONmeGT0',#5,$,$,(#455,#447,#423),#425);
#1201= IFCRELDEFINESBYPROPERTIES('2GQnPy5zP609O7jsx9DqFL',#5,$,$,(#510,#502,#494,#461,#453,#436),#440);
#1202= IFCRELDEFINESBYPROPERTIES('1SqDgChrT26Q2MVecRATVy',#5,$,$,(#510,#502,#494,#461,#453,#436),#445);
#1203= IFCRELDEFINESBYPROPERTIES('1Q5VmnOfj1ABg65xQkmanq',#5,$,$,(#463),#465);
#1204= IFCRELDEFINESBYPROPERTIES('2q9lMlNuv0NR3fUT1NlSnw',#5,$,$,(#519,#476),#480);
#1205= IFCRELDEFINESBYPROPERTIES('2tW2XvzWH96uDZ96RjUojZ',#5,$,$,(#519,#476),#485);
#1206= IFCRELDEFINESBYPROPERTIES('0A88gxwb96g9gqhNmztfVv',#5,$,$,(#504,#496,#487),#488);
#1207= IFCRELDEFINESBYPROPERTIES('38au7GHDr9HfJprFxBh8WU',#5,$,$,(#512),#513);
#1208= IFCRELDEFINESBYPROPERTIES('1LiBn$H5DCeu$kehoADVTR',#5,$,$,(#521),#523);
#1209= IFCRELDEFINESBYPROPERTIES('00OLWxoS56aB4kAozCPmvV',#5,$,$,(#574),#580);
#1210= IFCRELDEFINESBYPROPERTIES('3IDKsRTqHD8OtMmpu6TE9P',#5,$,$,(#574),#585);
#1211= IFCRELDEFINESBYPROPERTIES('3lkrpxyWPCW8NLiazN2tVm',#5,$,$,(#633,#625,#588),#592);
#1212= IFCRELDEFINESBYPROPERTIES('39jpP4j7vF1eIxVk$_Ud3g',#5,$,$,(#669,#661,#650,#639,#631,#606),#608);
#1213= IFCRELDEFINESBYPROPERTIES('07xfUB0CHEZRnGeP9ZN7iN',#5,$,$,(#639,#631,#606),#611);
#1214= IFCRELDEFINESBYPROPERTIES('2lPU9PVsL4xuB$6MWtKiRn',#5,$,$,(#669,#661,#650,#639,#631,#606),#617);
#1215= IFCRELDEFINESBYPROPERTIES('0bio$V4xfEUw4qdhK0imSr',#5,$,$,(#669,#661,#650,#639,#631,#606),#622);
#1216= IFCRELDEFINESBYPROPERTIES('2vGB$QSHD6Zxc8cQBK5uOE',#5,$,$,(#663,#655,#641),#644);
#1217= IFCRELDEFINESBYPROPERTIES('1Esuv$CRj6pR_IWcz2ma0g',#5,$,$,(#669,#661,#650),#653);
#1218= IFCRELDEFINESBYPROPERTIES('0u4QRE9qD7MRM$9FkaX1eC',#5,$,$,(#672),#676);
#1219= IFCRELDEFINESBYPROPERTIES('1e2rZpZn1Bfw7gv9Rtyuv2',#5,$,$,(#672),#678);
#1220= IFCRELDEFINESBYPROPERTIES('2RW3KeQwX4UgA2KYjvpD5f',#5,$,$,(#712),#716);
#1221= IFCRELDEFINESBYPROPERTIES('0JKePR4RT0tRRCllJMXRXk',#5,$,$,(#712),#722);
#1222= IFCRELDEFINESBYPROPERTIES('2snCFg5JfB_Re6QTCBVSzK',#5,$,$,(#712),#727);
#1223= IFCRELDEFINESBYPROPERTIES('2ovZA2hj59WODVpRXZ6MKW',#5,$,$,(#729),#734);
#1224= IFCRELDEFINESBYPROPERTIES('2udeeRgOH2med3Ov5ySLfa',#5,$,$,(#1085,#1050,#1005,#958,#911,#729),#736);
#1225= IFCRELDEFINESBYPROPERTIES('2qS50uWzbFBxxZCuyHffrV',#5,$,$,(#837),#839);
#1226= IFCRELDEFINESBYPROPERTIES('2XrfkF1T17Qx1taE7J6cyi',#5,$,$,(#837),#842);
#1227= IFCRELDEFINESBYPROPERTIES('0XDDgHUYL6Rus6_vfuZlRf',#5,$,$,(#1108,#1073,#1031,#984,#937,#837),#851);
#1228= IFCRELDEFINESBYPROPERTIES('3oAPCjmU938gT1$yR6eFPk',#5,$,$,(#1108,#1073,#1031,#984,#937,#837),#861);
#1229= IFCRELDEFINESBYPROPERTIES('1DCs9rp4PBgAI$wcRjOgtF',#5,$,$,(#863),#868);
#1230= IFCRELDEFINESBYPROPERTIES('1NeUgjwxj5kvA68BHfbR1t',#5,$,$,(#1112,#1077,#1038,#991,#944,#863),#870);
#1231= IFCRELDEFINESBYPROPERTIES('3KxiWQJmb5Yxqv_nuUGP7n',#5,$,$,(#1118,#1083,#1046,#1000,#953,#885),#888);
#1232= IFCRELDEFINESBYPROPERTIES('3RR9dA3_b31Adcr3f4wc3p',#5,$,$,(#885),#891);
#1233= IFCRELDEFINESBYPROPERTIES('0LJlY7uljDneaJKGjxWvP5',#5,$,$,(#1118,#1083,#1046,#1000,#953,#885),#899);
#1234= IFCRELDEFINESBYPROPERTIES('2C5$22GJL9xxfp0DV2zk4i',#5,$,$,(#1118,#1083,#1046,#1000,#953,#885),#902);
#1235= IFCRELDEFINESBYPROPERTIES('0gDAfEF5b1wueG3RbsQ6uY',#5,$,$,(#1118,#1083,#1046,#1000,#953,#885),#909);
#1236= IFCRELDEFINESBYPROPERTIES('0SRBA4_Ab0whWWLbZ7RpG5',#5,$,$,(#911),#914);
#1237= IFCRELDEFINESBYPROPERTIES('0qQxBx2eT6jPHKXWcjA97h',#5,$,$,(#937),#939);
#1238= IFCRELDEFINESBYPROPERTIES('0n6ogVsaX97fKQJ8vBfysC',#5,$,$,(#937),#942);
#1239= IFCRELDEFINESBYPROPERTIES('00QwDFltn9L9uNs_kx_zyn',#5,$,$,(#944),#947);
#1240= IFCRELDEFINESBYPROPERTIES('2uYts_vyj9AxpIifNYKLRh',#5,$,$,(#953),#956);
#1241= IFCRELDEFINESBYPROPERTIES('3v3CN3pWz1mOyt0ViOkDIj',#5,$,$,(#1050,#958),#961);
#1242= IFCRELDEFINESBYPROPERTIES('3jhNumrWDEQOCAOmR0KLS0',#5,$,$,(#984),#986);
#1243= IFCRELDEFINESBYPROPERTIES('1sZPMYqZb4N86krA_3Iif2',#5,$,$,(#1073,#984),#989);
#1244= IFCRELDEFINESBYPROPERTIES('3zqRRuufz4ovXa6QtEM0UG',#5,$,$,(#1077,#991),#994);
#1245= IFCRELDEFINESBYPROPERTIES('2$u4irgLzCOfNJmDwnG7tN',#5,$,$,(#1083,#1000),#1003);
#1246= IFCRELDEFINESBYPROPERTIES('1DGg90h658pvjY632iIYKB',#5,$,$,(#1085,#1005),#1008);
#1247= IFCRELDEFINESBYPROPERTIES('1IgNUYu0H9PueJr_D7$nB4',#5,$,$,(#1031),#1033);
#1248= IFCRELDEFINESBYPROPERTIES('39cV7Kbf1DhQus53Mu5p4V',#5,$,$,(#1108,#1031),#1036);
#1249= IFCRELDEFINESBYPROPERTIES('0gm4hVFnv5FgLdBQSQGMcX',#5,$,$,(#1112,#1038),#1040);
#1250= IFCRELDEFINESBYPROPERTIES('0CBrHFGwn1BfIbWHbZJ9ja',#5,$,$,(#1118,#1046),#1048);
#1251= IFCRELDEFINESBYPROPERTIES('1mFmIdUDn6ce5K06mTmvVh',#5,$,$,(#1073),#1075);
#1252= IFCRELDEFINESBYPROPERTIES('0kPZI9TID4qO1awcfss6QK',#5,$,$,(#1108),#1110);
#1253= IFCRELDEFINESBYTYPE('2oe$NR$$r4bAqA_7viiYVQ',#5,$,$,(#411,#101),#102);
#1254= IFCRELDEFINESBYTYPE('0_5aTKM9z6QwqhWb1nL3Uz',#5,$,$,(#669,#661,#650,#639,#631,#606,#519,#510,#502,#494,#476,#461,#453,#436,#258,#249,#241,#230,#210,#195,#187,#157),#158);
#1255= IFCRELDEFINESBYTYPE('2DyO6$YyD1e8Vtmximx_$e',#5,$,$,(#574,#324),#325);
#1256= IFCRELDEFINESBYTYPE('2sJQIBQID9JxPBCLGjxr8c',#5,$,$,(#366),#367);
#1257= IFCRELDEFINESBYTYPE('0fJreG3Cb9zfuiasHCSZJ_',#5,$,$,(#712),#713);
#1258= IFCRELDEFINESBYTYPE('2XF6H6KQv3EuGy8J3AEmFd',#5,$,$,(#1118,#1083,#1046,#1000,#953,#885),#886);
#1259= IFCRELASSOCIATESMATERIAL('1kyn0Hy$vAweKnaBR9HD0d',#5,$,$,(#411,#366,#101),#131);
#1260= IFCRELASSOCIATESMATERIAL('0RghFYORD3tv61Vfwu97ib',#5,$,$,(#1118,#1083,#1046,#1000,#953,#885,#519,#510,#502,#494,#476,#461,#453,#436,#258,#249,#241,#230,#210,#195,#187,#157),#179);
#1261= IFCRELASSOCIATESMATERIAL('1EebpVPCLBRPlGC9Rwej6X',#5,$,$,(#1108,#1073,#1031,#984,#937,#837,#712,#574,#324),#344);
#1262= IFCRELASSOCIATESMATERIAL('1xwO5bxKH3eOqjk6m$8avw',#5,$,$,(#669,#661,#650,#639,#631,#606),#623);
#1263= IFCPRESENTATIONLAYERASSIGNMENT('VIGA',$,(#93,#150,#182,#190,#203,#225,#236,#244,#253,#318,#358,#403,#429,#448,#456,#469,#489,#497,#505,#514,#568,#598,#626,#634,#645,#656,#664,#706),$);
#1264= IFCPRESENTATIONLAYERASSIGNMENT('CE-01',$,(#831),$);
#1265= IFCPRESENTATIONLAYERASSIGNMENT('C19',$,(#879,#948,#995,#1041,#1078,#1113),$);
#1266= IFCPRESENTATIONLAYERASSIGNMENT('CE-04',$,(#932),$);
#1267= IFCPRESENTATIONLAYERASSIGNMENT('CE-02',$,(#979),$);
#1268= IFCPRESENTATIONLAYERASSIGNMENT('CE-05',$,(#1026),$);
#1269= IFCPRESENTATIONLAYERASSIGNMENT('CE-03',$,(#1068),$);
#1270= IFCPRESENTATIONLAYERASSIGNMENT('CE-06',$,(#1103),$);
ENDSEC;

END-ISO-10303-21;
