ISO-10303-21;
HEADER;
FILE_DESCRIPTION(('ViewDefinition[CoordinationView_V2.0, QuantityTakeOffAddOnView]', 'Option [BaseQuantities:On]', 'Option [GridExport:Off]', 'Option [Assemblies:On]', 'Option [Bolts:On]', 'Option [Rebars:On]', 'Option [PourObjects:Off]', 'Option [Welds:On]', 'Option [SurfaceTreatments:On]', 'Option [LocationBy:-1]', 'Option [ViewColors:Off]', 'Option [SectionedSpine:Off]', 'Option [PropertySets:On]', 'Option [Export all:Off]'),'2;1');
FILE_NAME('SIM25031-A06-CIV-3D-3007-TR-12.ifc','2026-02-19T14:27:56',('HYTECH\\lfrechilla'),('Structural Designer'),'IFC Parser Version: 3.13.2','Tekla Structures 2022 Service Pack 4, IFC Export Version: 4.0.0.0 Aug 24 2022','');
FILE_SCHEMA(('IFC2X3'));
ENDSEC;

DATA;
#1= IFCPERSON('HYTECH\\lfrechilla','Undefined',$,$,$,$,$,$);
#2= IFCORGANIZATION($,'Trimble Solutions Corporation',$,$,$);
#3= IFCPERSONANDORGANIZATION(#1,#2,$);
#4= IFCAPPLICATION(#2,'2022 Service Pack 4','Tekla Structures','Multi material modeling');
#5= IFCOWNERHISTORY(#3,#4,$,.NOCHANGE.,$,$,$,1771522076);
#6= IFCCARTESIANPOINT((0.,0.,0.));
#7= IFCDIRECTION((1.,0.,0.));
#8= IFCDIRECTION((0.,1.,0.));
#9= IFCDIRECTION((0.,0.,1.));
#10= IFCAXIS2PLACEMENT3D(#6,#9,#7);
#11= IFCDIRECTION((0.,1.));
#12= IFCGEOMETRICREPRESENTATIONCONTEXT($,'Model',3,1.E-05,#10,#11);
#13= IFCGEOMETRICREPRESENTATIONSUBCONTEXT('Body','Model',*,*,*,*,#12,$,.MODEL_VIEW.,$);
#14= IFCGEOMETRICREPRESENTATIONSUBCONTEXT('Axis','Model',*,*,*,*,#12,$,.GRAPH_VIEW.,$);
#15= IFCSIUNIT(*,.LENGTHUNIT.,.MILLI.,.METRE.);
#16= IFCMEASUREWITHUNIT(IFCRATIOMEASURE(304.8),#15);
#17= IFCDIMENSIONALEXPONENTS(1,0,0,0,0,0,0);
#18= IFCCONVERSIONBASEDUNIT(#17,.LENGTHUNIT.,'FOOT',#16);
#19= IFCSIUNIT(*,.AREAUNIT.,$,.SQUARE_METRE.);
#20= IFCMEASUREWITHUNIT(IFCRATIOMEASURE(0.09290304),#19);
#21= IFCDIMENSIONALEXPONENTS(2,0,0,0,0,0,0);
#22= IFCCONVERSIONBASEDUNIT(#21,.AREAUNIT.,'SQUARE FOOT',#20);
#23= IFCSIUNIT(*,.VOLUMEUNIT.,$,.CUBIC_METRE.);
#24= IFCMEASUREWITHUNIT(IFCRATIOMEASURE(0.028316846592),#23);
#25= IFCDIMENSIONALEXPONENTS(3,0,0,0,0,0,0);
#26= IFCCONVERSIONBASEDUNIT(#25,.VOLUMEUNIT.,'CUBIC FOOT',#24);
#27= IFCSIUNIT(*,.MASSUNIT.,.KILO.,.GRAM.);
#28= IFCSIUNIT(*,.TIMEUNIT.,$,.SECOND.);
#29= IFCSIUNIT(*,.PLANEANGLEUNIT.,$,.RADIAN.);
#30= IFCMEASUREWITHUNIT(IFCRATIOMEASURE(0.0174532925199433),#29);
#31= IFCDIMENSIONALEXPONENTS(0,0,0,0,0,0,0);
#32= IFCCONVERSIONBASEDUNIT(#31,.PLANEANGLEUNIT.,'DEGREE',#30);
#33= IFCSIUNIT(*,.SOLIDANGLEUNIT.,$,.STERADIAN.);
#34= IFCSIUNIT(*,.THERMODYNAMICTEMPERATUREUNIT.,$,.DEGREE_CELSIUS.);
#35= IFCSIUNIT(*,.LUMINOUSINTENSITYUNIT.,$,.LUMEN.);
#36= IFCUNITASSIGNMENT((#15,#19,#23,#27,#28,#29,#33,#34,#35));
#37= IFCPROJECT('0O4aOWvUDFzvy924ERfXmR',#5,'ID Interconnecting OSBL Estabilizadora Temprana TTY',$,$,$,$,(#12),#36);
#38= IFCCARTESIANPOINT((0.,0.,100000.));
#39= IFCAXIS2PLACEMENT3D(#38,#9,#7);
#40= IFCLOCALPLACEMENT($,#39);
#41= IFCSITE('3mxpRQ34D5kOeXibuwqHr7',#5,'Undefined',$,$,#40,$,$,.ELEMENT.,(0,0,0),(0,0,0),$,$,$);
#42= IFCPOSTALADDRESS($,$,$,'NEUQU\S\IN',$,$,$,$,$,$);
#43= IFCLOCALPLACEMENT(#40,#10);
#44= IFCBUILDING('1rZqRCzI9DNQQhk7CUnKON',#5,'Undefined',$,$,#43,$,$,.ELEMENT.,$,$,#42);
#45= IFCLOCALPLACEMENT(#43,#10);
#46= IFCBUILDINGSTOREY('172ap5twj3rAKk_SwfWdiv',#5,'Undefined',$,$,#45,$,$,.ELEMENT.,0.);
#47= IFCOWNERHISTORY(#3,#4,$,.NOCHANGE.,$,$,$,1770984000);
#48= IFCLOCALPLACEMENT(#45,#10);
#49= IFCELEMENTASSEMBLY('3aIlf_5$93gusyCgC2xiQp',#47,'VIGA',$,$,#48,$,'V0(?)',.NOTDEFINED.,.NOTDEFINED.);
#50= IFCPROPERTYSINGLEVALUE('AREA_FORM_BOTTOM',$,IFCAREAMEASURE(1.),$);
#51= IFCPROPERTYSINGLEVALUE('CAST_UNIT_REBAR_WEIGHT',$,$,$);
#52= IFCPROPERTYSINGLEVALUE('CAST_UNIT_HEIGHT_TOTAL',$,$,$);
#53= IFCPROPERTYSINGLEVALUE('BOTTOM_LEVEL_BASEPOINT',$,IFCLABEL(' +99.360'),$);
#54= IFCPROPERTYSINGLEVALUE('TOP_LEVEL_BASEPOINT',$,IFCLABEL(' +99.435'),$);
#55= IFCPROPERTYSINGLEVALUE('COG_Y_BASEPOINT',$,IFCLENGTHMEASURE(442000.),$);
#56= IFCPROPERTYSINGLEVALUE('COG_X_BASEPOINT',$,IFCLENGTHMEASURE(424600.),$);
#57= IFCPROPERTYSINGLEVALUE('WEIGHT_NET',$,IFCMASSMEASURE(124.98299),$);
#58= IFCPROPERTYSINGLEVALUE('VOLUME_NET',$,IFCVOLUMEMEASURE(0.01592),$);
#59= IFCPROPERTYSINGLEVALUE('ATT_303_STATUS_OBRA',$,$,$);
#60= IFCPROPERTYSINGLEVALUE('ATT_303_STATUS_FUND',$,$,$);
#61= IFCPROPERTYSINGLEVALUE('ATT_303_PROVEEDOR_FUND',$,$,$);
#62= IFCPROPERTYSINGLEVALUE('ATT_303_MC_HYTECH',$,$,$);
#63= IFCPROPERTYSINGLEVALUE('ATT_303_PDH_HYTECH',$,$,$);
#64= IFCPROPERTYSINGLEVALUE('ATT_303_EWP_FUND',$,$,$);
#65= IFCPROPERTYSINGLEVALUE('ATT_303_DESC_EQUIP',$,$,$);
#66= IFCPROPERTYSINGLEVALUE('ATT_301_SUPPLIER_HYTECH',$,$,$);
#67= IFCPROPERTYSINGLEVALUE('ATT_301_OWNER_HYTECH',$,$,$);
#68= IFCPROPERTYSINGLEVALUE('ATT_301_GA_HYTECH',$,$,$);
#69= IFCPROPERTYSINGLEVALUE('HISTORY.CREATED_BY',$,IFCLABEL('HYTECH\\gluduena'),$);
#70= IFCPROPERTYSINGLEVALUE('HISTORY.CREATED',$,IFCLABEL('12.02.2026 14:41:22'),$);
#71= IFCPROPERTYSINGLEVALUE('CREATED_BY',$,$,$);
#72= IFCPROPERTYSINGLEVALUE('HISTORY.MODIFIED_BY',$,IFCLABEL('HYTECH\\gluduena'),$);
#73= IFCPROPERTYSINGLEVALUE('HISTORY.MODIFIED_ACTION',$,IFCLABEL('update'),$);
#74= IFCPROPERTYSINGLEVALUE('HISTORY.MODIFIED',$,IFCLABEL('13.02.2026 09:09:52'),$);
#75= IFCPROPERTYSINGLEVALUE('GUID',$,IFCLABEL('e44afa7e-17f2-43ab-8dbc-32a302eec6b3'),$);
#76= IFCPROPERTYSET('0e0_IdOGD5HPoVlRMB9SKl',#5,'Fundacion',$,(#50,#51,#52,#53,#54,#55,#56,#57,#58,#59,#60,#61,#62,#63,#64,#65,#66,#67,#68,#69,#70,#71,#72,#73,#74,#75));
#77= IFCQUANTITYLENGTH('Width',$,$,75.);
#78= IFCELEMENTQUANTITY('3ZiumWwR57rh3zxgy6vD8S',#5,'BaseQuantities',$,$,(#77));
#79= IFCCOLOURRGB('Light Gray',0.615686274509804,0.615686274509804,0.611764705882353);
#80= IFCSURFACESTYLERENDERING(#79,0.,$,$,$,$,IFCNORMALISEDRATIOMEASURE(0.00390625),IFCSPECULAREXPONENT(10.),.NOTDEFINED.);
#81= IFCSURFACESTYLE('STEEL/F24',.POSITIVE.,(#80));
#82= IFCPRESENTATIONSTYLEASSIGNMENT((#81));
#83= IFCDIRECTION((1.,0.));
#84= IFCCARTESIANPOINT((0.,0.));
#85= IFCAXIS2PLACEMENT2D(#84,#83);
#86= IFCUSHAPEPROFILEDEF(.AREA.,'UPN200',#85,200.,75.,8.5,11.5,11.5,6.,0.0798299857122373,$);
#87= IFCDIRECTION((0.,-1.,0.));
#88= IFCDIRECTION((-1.,0.,0.));
#89= IFCCARTESIANPOINT((5000.,0.,0.));
#90= IFCAXIS2PLACEMENT3D(#89,#88,#87);
#91= IFCEXTRUDEDAREASOLID(#86,#90,#9,5000.);
#92= IFCSHAPEREPRESENTATION(#13,'Body','SweptSolid',(#91));
#93= IFCSTYLEDITEM(#91,(#82),$);
#94= IFCPRODUCTDEFINITIONSHAPE($,$,(#92));
#95= IFCCARTESIANPOINT((424600.,439500.,-602.5));
#96= IFCAXIS2PLACEMENT3D(#95,#88,#8);
#97= IFCLOCALPLACEMENT(#48,#96);
#98= IFCBEAM('2RFwzZ0VbFGf7v_QSMs136',#47,'VIGA','UPN200','BEAM',#97,#94,'Pr0(?)');
#99= IFCBEAMTYPE('3eDEbnPo54gRwEkEHDXKEv',#5,'UPN200',$,$,$,$,$,$,.NOTDEFINED.);
#100= IFCPROPERTYSINGLEVALUE('AREA_FORM_TOP',$,IFCAREAMEASURE(0.70856),$);
#101= IFCPROPERTYSINGLEVALUE('AREA_FORM_BOTTOM',$,IFCAREAMEASURE(0.70856),$);
#102= IFCPROPERTYSINGLEVALUE('ATT_303_PROVEEDOR_F',$,$,$);
#103= IFCPROPERTYSINGLEVALUE('ATT_301_SUPPLIER_HY',$,$,$);
#104= IFCPROPERTYSINGLEVALUE('ATT_301_OWNER_HYTEC',$,$,$);
#105= IFCPROPERTYSINGLEVALUE('PROFILE_WEIGHT',$,IFCMASSMEASURE(126.5),$);
#106= IFCPROPERTYSINGLEVALUE('PROFILE_TYPE',$,IFCLABEL('U'),$);
#107= IFCPROPERTYSINGLEVALUE('HAS_HOLES',$,IFCINTEGER(0),$);
#108= IFCPROPERTYSINGLEVALUE('HAS_CONNECTIONS',$,IFCINTEGER(0),$);
#109= IFCPROPERTYSINGLEVALUE('RADIUS',$,IFCREAL(0.),$);
#110= IFCPROPERTYSINGLEVALUE('PROFILE',$,IFCLABEL('UPN200'),$);
#111= IFCPROPERTYSINGLEVALUE('NAME',$,IFCLABEL('VIGA'),$);
#112= IFCPROPERTYSINGLEVALUE('MODEL_TOTAL',$,IFCINTEGER(3),$);
#113= IFCPROPERTYSINGLEVALUE('MATERIAL',$,IFCLABEL('F24'),$);
#114= IFCPROPERTYSINGLEVALUE('LENGTH_NET',$,IFCLENGTHMEASURE(5000.),$);
#115= IFCPROPERTYSINGLEVALUE('HEIGHT',$,IFCLENGTHMEASURE(200.),$);
#116= IFCPROPERTYSINGLEVALUE('GUID',$,IFCLABEL('9b3faf63-01f9-4f42-91f9-f9a716d810c6'),$);
#117= IFCPROPERTYSINGLEVALUE('DIMENSION_B',$,$,$);
#118= IFCPROPERTYSINGLEVALUE('DIMENSION_A',$,$,$);
#119= IFCPROPERTYSINGLEVALUE('COMMENT',$,IFCLABEL(''),$);
#120= IFCPROPERTYSINGLEVALUE('CAST_UNIT_POS',$,IFCLABEL('V0(?)'),$);
#121= IFCPROPERTYSINGLEVALUE('ASSEMBLY_PREFIX',$,IFCLABEL('V'),$);
#122= IFCPROPERTYSINGLEVALUE('ASSEMBLY_TOP_LEVEL_BASEPOINT',$,IFCLABEL(' +99.435'),$);
#123= IFCPROPERTYSINGLEVALUE('ASSEMBLY_POS',$,IFCLABEL('V0(?)'),$);
#124= IFCPROPERTYSINGLEVALUE('ASSEMBLY_DEFAULT_PREFIX',$,IFCLABEL('V'),$);
#125= IFCPROPERTYSINGLEVALUE('ASSEMBLY_BOTTOM_LEVEL_BASEPOINT',$,IFCLABEL(' +99.360'),$);
#126= IFCPROPERTYSET('0Nmrm33vr7fun45_OWjdf_',#5,'VIGAS',$,(#100,#101,#59,#60,#102,#63,#62,#64,#65,#103,#104,#68,#72,#73,#74,#69,#70,#105,#106,#107,#108,#58,#54,#109,#110,#111,#112,#113,#114,#115,#116,#117,#118,#119,#55,#56,#120,#53,#121,#122,#123,#124,#125));
#127= IFCPROPERTYSINGLEVALUE('LoadBearing',$,IFCBOOLEAN(.F.),$);
#128= IFCPROPERTYSINGLEVALUE('Reference',$,IFCIDENTIFIER('Pr0(?)'),$);
#129= IFCPROPERTYSET('0n3MUtx5vA98nfozxi8pPj',#5,'Pset_BeamCommon','Common Properties to beam elements',(#127,#128));
#130= IFCQUANTITYLENGTH('Length',$,$,5000.);
#131= IFCQUANTITYAREA('OuterSurfaceArea',$,$,3.3);
#132= IFCQUANTITYVOLUME('NetVolume',$,$,0.0159214);
#133= IFCQUANTITYWEIGHT('NetWeight',$,$,124.98299);
#134= IFCELEMENTQUANTITY('0F1VOZvUP759YEnRQXHlt6',#5,'BaseQuantities',$,$,(#130,#131,#132,#133));
#135= IFCMATERIAL('STEEL/F24');
#136= IFCLOCALPLACEMENT(#45,#10);
#137= IFCELEMENTASSEMBLY('32rRp6QYz32RyqOqY6GIJP',#47,'VIGA',$,$,#136,$,'V0(?)',.NOTDEFINED.,.NOTDEFINED.);
#138= IFCPROPERTYSINGLEVALUE('COG_X_BASEPOINT',$,IFCLENGTHMEASURE(425400.),$);
#139= IFCPROPERTYSINGLEVALUE('GUID',$,IFCLABEL('c2d5bcc6-6a2f-4309-bf34-6348864124d9'),$);
#140= IFCPROPERTYSET('2o$cGzzMDAQgGfAozD3EfT',#5,'Fundacion',$,(#50,#51,#52,#53,#54,#55,#138,#57,#58,#59,#60,#61,#62,#63,#64,#65,#66,#67,#68,#69,#70,#71,#72,#73,#74,#139));
#141= IFCSHAPEREPRESENTATION(#13,'Body','SweptSolid',(#91));
#142= IFCPRODUCTDEFINITIONSHAPE($,$,(#141));
#143= IFCCARTESIANPOINT((425400.,439500.,-602.5));
#144= IFCAXIS2PLACEMENT3D(#143,#88,#8);
#145= IFCLOCALPLACEMENT(#136,#144);
#146= IFCBEAM('2AAqgYUmvEeu1sYPKT0Zqk',#47,'VIGA','UPN200','BEAM',#145,#142,'Pr0(?)');
#147= IFCPROPERTYSINGLEVALUE('GUID',$,IFCLABEL('8a2b4aa2-7b0e-4ea3-8076-89951d023d2e'),$);
#148= IFCPROPERTYSET('2rg7vi64n2$fXqVlgP9aI8',#5,'VIGAS',$,(#100,#101,#59,#60,#102,#63,#62,#64,#65,#103,#104,#68,#72,#73,#74,#69,#70,#105,#106,#107,#108,#58,#54,#109,#110,#111,#112,#113,#114,#115,#147,#117,#118,#119,#55,#138,#120,#53,#121,#122,#123,#124,#125));
#149= IFCLOCALPLACEMENT(#45,#10);
#150= IFCELEMENTASSEMBLY('1Zst6FGoPEQAOnFOEFAGI_',#47,'[H\S\0 LIMPIEZA TRAFO]',$,$,#149,$,'Z4',.NOTDEFINED.,.NOTDEFINED.);
#151= IFCPROPERTYSINGLEVALUE('AREA_FORM_BOTTOM',$,IFCAREAMEASURE(6.63),$);
#152= IFCPROPERTYSINGLEVALUE('CAST_UNIT_REBAR_WEIGHT',$,IFCMASSMEASURE(0.),$);
#153= IFCPROPERTYSINGLEVALUE('CAST_UNIT_HEIGHT_TOTAL',$,IFCLENGTHMEASURE(1300.),$);
#154= IFCPROPERTYSINGLEVALUE('BOTTOM_LEVEL_BASEPOINT',$,IFCLABEL(' +99.010'),$);
#155= IFCPROPERTYSINGLEVALUE('TOP_LEVEL_BASEPOINT',$,IFCLABEL(' +99.060'),$);
#156= IFCPROPERTYSINGLEVALUE('COG_X_BASEPOINT',$,IFCLENGTHMEASURE(425000.),$);
#157= IFCPROPERTYSINGLEVALUE('WEIGHT_NET',$,IFCMASSMEASURE(795.6),$);
#158= IFCPROPERTYSINGLEVALUE('VOLUME_NET',$,IFCVOLUMEMEASURE(0.3315),$);
#159= IFCPROPERTYSINGLEVALUE('GUID',$,IFCLABEL('63db718f-4326-4e68-a631-3d838f2904be'),$);
#160= IFCPROPERTYSET('1bGc3b8cb0WhN$mFxMmVP$',#5,'Fundacion',$,(#151,#152,#153,#154,#155,#55,#156,#157,#158,#59,#60,#61,#62,#63,#64,#65,#66,#67,#68,#69,#70,#71,#72,#73,#74,#159));
#161= IFCQUANTITYLENGTH('Width',$,$,5100.);
#162= IFCELEMENTQUANTITY('3$s7Q3fHb2HBNus9weE9fU',#5,'BaseQuantities',$,$,(#161));
#163= IFCCOLOURRGB('Light Yellow',1.,0.898039215686275,0.);
#164= IFCSURFACESTYLERENDERING(#163,0.,$,$,$,$,IFCNORMALISEDRATIOMEASURE(0.00390625),IFCSPECULAREXPONENT(10.),.NOTDEFINED.);
#165= IFCSURFACESTYLE('CONCRETE/H30',.POSITIVE.,(#164));
#166= IFCPRESENTATIONSTYLEASSIGNMENT((#165));
#167= IFCRECTANGLEPROFILEDEF(.AREA.,'1300*5100',#85,5100.,1300.);
#168= IFCCARTESIANPOINT((50.,0.,0.));
#169= IFCAXIS2PLACEMENT3D(#168,#88,#87);
#170= IFCEXTRUDEDAREASOLID(#167,#169,#9,50.);
#171= IFCSHAPEREPRESENTATION(#13,'Body','SweptSolid',(#170));
#172= IFCSTYLEDITEM(#170,(#166),$);
#173= IFCPRODUCTDEFINITIONSHAPE($,$,(#171));
#174= IFCCARTESIANPOINT((425000.,442000.,-990.));
#175= IFCAXIS2PLACEMENT3D(#174,#88,#9);
#176= IFCLOCALPLACEMENT(#149,#175);
#177= IFCFOOTING('2unhXMbH1EmgqUgFFK$PkQ',#47,'[H\S\0 LIMPIEZA TRAFO]','1300*5100',$,#176,#173,'IDb8c6b856-9510-4ec2-ad1e-a8f3d4fd9b9a',.PAD_FOOTING.);
#178= IFCPROPERTYSINGLEVALUE('AREA_FORM_BOTTOM',$,IFCAREAMEASURE(0.255),$);
#179= IFCPROPERTYSINGLEVALUE('CREATED_BY',$,IFCLABEL('HYTECH\\gluduena'),$);
#180= IFCPROPERTYSINGLEVALUE('GUID',$,IFCLABEL('b8c6b856-9510-4ec2-ad1e-a8f3d4fd9b9a'),$);
#181= IFCPROPERTYSET('04WHeSdkb6N8nb9GJp7Fsq',#5,'Fundacion',$,(#178,#51,#52,#154,#155,#55,#156,#157,#158,#59,#60,#61,#62,#63,#64,#65,#66,#67,#68,#69,#70,#179,#72,#73,#74,#180));
#182= IFCQUANTITYLENGTH('Length',$,$,50.);
#183= IFCQUANTITYAREA('OuterSurfaceArea',$,$,13.9);
#184= IFCQUANTITYAREA('GrossSurfaceArea',$,$,13.9);
#185= IFCQUANTITYAREA('CrossSectionArea',$,$,6.63);
#186= IFCQUANTITYVOLUME('NetVolume',$,$,0.3315);
#187= IFCQUANTITYVOLUME('GrossVolume',$,$,0.3315);
#188= IFCQUANTITYWEIGHT('NetWeight',$,$,795.6);
#189= IFCQUANTITYWEIGHT('GrossWeight',$,$,795.6);
#190= IFCQUANTITYLENGTH('Height',$,$,1300.);
#191= IFCELEMENTQUANTITY('2gvs0qlBf7MviKRn6f0CID',#5,'BaseQuantities',$,$,(#182,#183,#184,#185,#186,#187,#188,#189,#161,#190));
#192= IFCMATERIAL('CONCRETE/H30');
#193= IFCLOCALPLACEMENT(#45,#10);
#194= IFCELEMENTASSEMBLY('1WHvgi48r4QhXOMlueFMDq',#47,'FUNDACI\S\SN',$,$,#193,$,'Z5',.NOTDEFINED.,.NOTDEFINED.);
#195= IFCPROPERTYSINGLEVALUE('AREA_FORM_BOTTOM',$,IFCAREAMEASURE(6.),$);
#196= IFCPROPERTYSINGLEVALUE('CAST_UNIT_REBAR_WEIGHT',$,IFCMASSMEASURE(120.17318),$);
#197= IFCPROPERTYSINGLEVALUE('CAST_UNIT_HEIGHT_TOTAL',$,IFCLENGTHMEASURE(2200.0006),$);
#198= IFCPROPERTYSINGLEVALUE('BOTTOM_LEVEL_BASEPOINT',$,IFCLABEL(' +99.060'),$);
#199= IFCPROPERTYSINGLEVALUE('TOP_LEVEL_BASEPOINT',$,IFCLABEL(' +99.360'),$);
#200= IFCPROPERTYSINGLEVALUE('WEIGHT_NET',$,IFCMASSMEASURE(4320.),$);
#201= IFCPROPERTYSINGLEVALUE('VOLUME_NET',$,IFCVOLUMEMEASURE(1.8),$);
#202= IFCPROPERTYSINGLEVALUE('GUID',$,IFCLABEL('60479aac-108d-446a-b858-5afe283d6374'),$);
#203= IFCPROPERTYSET('2qZrOBAR153P2ISyPS5pbg',#5,'Fundacion',$,(#195,#196,#197,#198,#199,#55,#156,#200,#201,#59,#60,#61,#62,#63,#64,#65,#66,#67,#68,#69,#70,#71,#72,#73,#74,#202));
#204= IFCQUANTITYLENGTH('Width',$,$,5000.);
#205= IFCELEMENTQUANTITY('3gorEVixLEbPRl8nVhU7W1',#5,'BaseQuantities',$,$,(#204));
#206= IFCCOLOURRGB('Dark Gray',0.709803921568627,0.403921568627451,0.2);
#207= IFCSURFACESTYLERENDERING(#206,0.,$,$,$,$,IFCNORMALISEDRATIOMEASURE(0.00390625),IFCSPECULAREXPONENT(10.),.NOTDEFINED.);
#208= IFCSURFACESTYLE('CONCRETE/H30',.POSITIVE.,(#207));
#209= IFCPRESENTATIONSTYLEASSIGNMENT((#208));
#210= IFCRECTANGLEPROFILEDEF(.AREA.,'1200*5000',#85,5000.,1200.);
#211= IFCCARTESIANPOINT((300.,0.,0.));
#212= IFCAXIS2PLACEMENT3D(#211,#88,#87);
#213= IFCEXTRUDEDAREASOLID(#210,#212,#9,300.);
#214= IFCSHAPEREPRESENTATION(#13,'Body','SweptSolid',(#213));
#215= IFCSTYLEDITEM(#213,(#209),$);
#216= IFCPRODUCTDEFINITIONSHAPE($,$,(#214));
#217= IFCCARTESIANPOINT((425000.,442000.,-940.));
#218= IFCAXIS2PLACEMENT3D(#217,#88,#9);
#219= IFCLOCALPLACEMENT(#193,#218);
#220= IFCFOOTING('0nekaPtBHBE8N$nSdevhjD',#47,'FUNDACI\S\SN','1200*5000',$,#219,#216,'ID31a2e919-dcb4-4b38-85ff-c5c9e8e6bb4d',.PAD_FOOTING.);
#221= IFCPROPERTYSINGLEVALUE('AREA_FORM_BOTTOM',$,IFCAREAMEASURE(1.5),$);
#222= IFCPROPERTYSINGLEVALUE('GUID',$,IFCLABEL('31a2e919-dcb4-4b38-85ff-c5c9e8e6bb4d'),$);
#223= IFCPROPERTYSET('33wKi3DjnCcevj3SSX7l2t',#5,'Fundacion',$,(#221,#51,#52,#198,#199,#55,#156,#200,#201,#59,#60,#61,#62,#63,#64,#65,#66,#67,#68,#69,#70,#179,#72,#73,#74,#222));
#224= IFCQUANTITYLENGTH('Length',$,$,300.);
#225= IFCQUANTITYAREA('OuterSurfaceArea',$,$,15.72);
#226= IFCQUANTITYAREA('GrossSurfaceArea',$,$,15.72);
#227= IFCQUANTITYAREA('CrossSectionArea',$,$,6.);
#228= IFCQUANTITYVOLUME('NetVolume',$,$,1.8);
#229= IFCQUANTITYVOLUME('GrossVolume',$,$,1.8);
#230= IFCQUANTITYWEIGHT('NetWeight',$,$,4320.);
#231= IFCQUANTITYWEIGHT('GrossWeight',$,$,4320.);
#232= IFCQUANTITYLENGTH('Height',$,$,1200.);
#233= IFCELEMENTQUANTITY('1whY1aHFz7Shkuo0sO0nZg',#5,'BaseQuantities',$,$,(#224,#225,#226,#227,#228,#229,#230,#231,#204,#232));
#234= IFCSURFACESTYLE('ADN-420',.POSITIVE.,(#80));
#235= IFCPRESENTATIONSTYLEASSIGNMENT((#234));
#236= IFCDIRECTION((0.,0.,-1.));
#237= IFCVECTOR(#236,1.);
#238= IFCLINE(#6,#237);
#239= IFCTRIMMEDCURVE(#238,(IFCPARAMETERVALUE(0.)),(IFCPARAMETERVALUE(72.0000000000002)),.T.,.PARAMETER.);
#240= IFCCOMPOSITECURVESEGMENT(.CONTINUOUS.,.T.,#239);
#241= IFCCARTESIANPOINT((54.3125,0.,-72.0000000000002));
#242= IFCAXIS2PLACEMENT3D(#241,#87,#88);
#243= IFCCIRCLE(#242,54.31);
#244= IFCTRIMMEDCURVE(#243,(IFCPARAMETERVALUE(0.)),(IFCPARAMETERVALUE(1.57079632679489)),.T.,.PARAMETER.);
#245= IFCCOMPOSITECURVESEGMENT(.CONTINUOUS.,.T.,#244);
#246= IFCCARTESIANPOINT((54.3124999999998,0.,-126.3125));
#247= IFCVECTOR(#7,1.);
#248= IFCLINE(#246,#247);
#249= IFCTRIMMEDCURVE(#248,(IFCPARAMETERVALUE(0.)),(IFCPARAMETERVALUE(4766.75)),.T.,.PARAMETER.);
#250= IFCCOMPOSITECURVESEGMENT(.CONTINUOUS.,.T.,#249);
#251= IFCCARTESIANPOINT((4821.0625,0.,-72.0000000000143));
#252= IFCAXIS2PLACEMENT3D(#251,#87,#236);
#253= IFCCIRCLE(#252,54.31);
#254= IFCTRIMMEDCURVE(#253,(IFCPARAMETERVALUE(0.)),(IFCPARAMETERVALUE(1.5707963267949)),.T.,.PARAMETER.);
#255= IFCCOMPOSITECURVESEGMENT(.CONTINUOUS.,.T.,#254);
#256= IFCCARTESIANPOINT((4875.375,0.,-72.0000000000143));
#257= IFCVECTOR(#9,1.);
#258= IFCLINE(#256,#257);
#259= IFCTRIMMEDCURVE(#258,(IFCPARAMETERVALUE(0.)),(IFCPARAMETERVALUE(71.9999999999998)),.T.,.PARAMETER.);
#260= IFCCOMPOSITECURVESEGMENT(.DISCONTINUOUS.,.T.,#259);
#261= IFCCOMPOSITECURVE((#240,#245,#250,#255,#260),.F.);
#262= IFCSWEPTDISKSOLID(#261,6.3125,$,0.,4913.89159265359);
#263= IFCSTYLEDITEM(#262,(#235),$);
#264= IFCCARTESIANPOINT((-681.6875,5406.3125,209.624999999999));
#265= IFCCARTESIANTRANSFORMATIONOPERATOR3D($,$,#264,$,$);
#266= IFCSHAPEREPRESENTATION(#13,'Body','AdvancedSweptSolid',(#262));
#267= IFCREPRESENTATIONMAP(#10,#266);
#268= IFCMAPPEDITEM(#267,#265);
#269= IFCCARTESIANPOINT((-681.6875,5603.78749999998,209.624999999996));
#270= IFCCARTESIANTRANSFORMATIONOPERATOR3D($,$,#269,$,$);
#271= IFCSHAPEREPRESENTATION(#13,'Body','AdvancedSweptSolid',(#262));
#272= IFCREPRESENTATIONMAP(#10,#271);
#273= IFCMAPPEDITEM(#272,#270);
#274= IFCCARTESIANPOINT((-681.6875,5801.26250000001,209.624999999994));
#275= IFCCARTESIANTRANSFORMATIONOPERATOR3D($,$,#274,$,$);
#276= IFCSHAPEREPRESENTATION(#13,'Body','AdvancedSweptSolid',(#262));
#277= IFCREPRESENTATIONMAP(#10,#276);
#278= IFCMAPPEDITEM(#277,#275);
#279= IFCCARTESIANPOINT((-681.6875,5998.73749999999,209.624999999991));
#280= IFCCARTESIANTRANSFORMATIONOPERATOR3D($,$,#279,$,$);
#281= IFCSHAPEREPRESENTATION(#13,'Body','AdvancedSweptSolid',(#262));
#282= IFCREPRESENTATIONMAP(#10,#281);
#283= IFCMAPPEDITEM(#282,#280);
#284= IFCTRIMMEDCURVE(#258,(IFCPARAMETERVALUE(0.)),(IFCPARAMETERVALUE(71.9999999999999)),.T.,.PARAMETER.);
#285= IFCCOMPOSITECURVESEGMENT(.DISCONTINUOUS.,.T.,#284);
#286= IFCCOMPOSITECURVE((#240,#245,#250,#255,#285),.F.);
#287= IFCSWEPTDISKSOLID(#286,6.3125,$,0.,4913.89159265359);
#288= IFCSTYLEDITEM(#287,(#235),$);
#289= IFCCARTESIANPOINT((-681.6875,6196.21249999997,209.624999999989));
#290= IFCCARTESIANTRANSFORMATIONOPERATOR3D($,$,#289,$,$);
#291= IFCSHAPEREPRESENTATION(#13,'Body','AdvancedSweptSolid',(#287));
#292= IFCREPRESENTATIONMAP(#10,#291);
#293= IFCMAPPEDITEM(#292,#290);
#294= IFCCARTESIANPOINT((-681.6875,6393.6875,209.624999999987));
#295= IFCCARTESIANTRANSFORMATIONOPERATOR3D($,$,#294,$,$);
#296= IFCSHAPEREPRESENTATION(#13,'Body','AdvancedSweptSolid',(#287));
#297= IFCREPRESENTATIONMAP(#10,#296);
#298= IFCMAPPEDITEM(#297,#295);
#299= IFCSHAPEREPRESENTATION(#13,'Body','MappedRepresentation',(#268,#273,#278,#283,#293,#298));
#300= IFCPRODUCTDEFINITIONSHAPE($,$,(#299));
#301= IFCCARTESIANPOINT((430900.,440250.,-940.));
#302= IFCAXIS2PLACEMENT3D(#301,#9,#8);
#303= IFCLOCALPLACEMENT(#193,#302);
#304= IFCREINFORCINGBAR('2MOEvObTr4KxW8Z0YwzeRD',#47,$,$,$,#303,#300,'ID9660ee58-95dd-4453-b808-8c08baf686cd',$,12.625,0.,$,.NOTDEFINED.,.NULL.);
#305= IFCPROPERTYSINGLEVALUE('WEIGHT_TOTAL_IN_GROUP',$,IFCMASSMEASURE(27.07334),$);
#306= IFCPROPERTYSINGLEVALUE('SHAPE',$,IFCLABEL('F105'),$);
#307= IFCPROPERTYSINGLEVALUE('REBAR_POS',$,IFCLABEL('11'),$);
#308= IFCPROPERTYSINGLEVALUE('NUMBER_OF_BARS_IN_GROUP',$,IFCINTEGER(6),$);
#309= IFCPROPERTYSINGLEVALUE('MATERIAL',$,IFCLABEL('ADN-420'),$);
#310= IFCPROPERTYSINGLEVALUE('MODEL_TOTAL',$,$,$);
#311= IFCPROPERTYSINGLEVALUE('NAME',$,IFCLABEL(''),$);
#312= IFCPROPERTYSINGLEVALUE('LAYER',$,IFCLABEL(''),$);
#313= IFCPROPERTYSINGLEVALUE('HOOK_START_LENGTH',$,$,$);
#314= IFCPROPERTYSINGLEVALUE('HOOK_START_ANGLE',$,IFCLABEL('90.000'),$);
#315= IFCPROPERTYSINGLEVALUE('HOOK_END_LENGTH',$,$,$);
#316= IFCPROPERTYSINGLEVALUE('HOOK_END_ANGLE',$,IFCLABEL('90.000'),$);
#317= IFCPROPERTYSINGLEVALUE('GUID',$,IFCLABEL('9660ee58-95dd-4453-b808-8c08baf686cd'),$);
#318= IFCPROPERTYSINGLEVALUE('GRADE',$,IFCLABEL('ADN-420'),$);
#319= IFCPROPERTYSINGLEVALUE('DIM_L',$,IFCLENGTHMEASURE(5150.),$);
#320= IFCPROPERTYSINGLEVALUE('DIM_E',$,$,$);
#321= IFCPROPERTYSINGLEVALUE('DIM_D',$,$,$);
#322= IFCPROPERTYSINGLEVALUE('DIM_C',$,IFCLENGTHMEASURE(132.),$);
#323= IFCPROPERTYSINGLEVALUE('DIM_B',$,IFCLENGTHMEASURE(4888.),$);
#324= IFCPROPERTYSINGLEVALUE('DIM_A',$,IFCLENGTHMEASURE(132.),$);
#325= IFCPROPERTYSINGLEVALUE('DIAMETER_NOMINAL',$,IFCLENGTHMEASURE(12.),$);
#326= IFCPROPERTYSINGLEVALUE('CONCRETE_COVER_ON_PLANE_MIN',$,IFCLENGTHMEASURE(77.),$);
#327= IFCPROPERTYSINGLEVALUE('CC_TARGET',$,IFCLENGTHMEASURE(200.),$);
#328= IFCPROPERTYSINGLEVALUE('CATALOG_NAME',$,IFCLABEL(''),$);
#329= IFCPROPERTYSINGLEVALUE('CAST_UNIT_POS',$,IFCLABEL('Z5'),$);
#330= IFCPROPERTYSINGLEVALUE('ADDED_TO_POUR_UNIT',$,IFCINTEGER(0),$);
#331= IFCPROPERTYSET('2gr3xd7Ib3qhpDMc6kDxjo',#5,'Rebar_properties',$,(#72,#73,#74,#69,#70,#305,#306,#307,#308,#309,#310,#311,#312,#313,#314,#315,#316,#317,#318,#319,#320,#321,#322,#323,#324,#325,#326,#327,#328,#329,#330));
#332= IFCMATERIAL('ADN-420');
#333= IFCLINE(#6,#257);
#334= IFCTRIMMEDCURVE(#333,(IFCPARAMETERVALUE(0.)),(IFCPARAMETERVALUE(72.0000000000003)),.T.,.PARAMETER.);
#335= IFCCOMPOSITECURVESEGMENT(.CONTINUOUS.,.T.,#334);
#336= IFCCARTESIANPOINT((54.3125,0.,72.0000000000003));
#337= IFCAXIS2PLACEMENT3D(#336,#8,#88);
#338= IFCCIRCLE(#337,54.31);
#339= IFCTRIMMEDCURVE(#338,(IFCPARAMETERVALUE(0.)),(IFCPARAMETERVALUE(1.57079632679489)),.T.,.PARAMETER.);
#340= IFCCOMPOSITECURVESEGMENT(.CONTINUOUS.,.T.,#339);
#341= IFCCARTESIANPOINT((54.3124999999997,0.,126.3125));
#342= IFCLINE(#341,#247);
#343= IFCTRIMMEDCURVE(#342,(IFCPARAMETERVALUE(0.)),(IFCPARAMETERVALUE(4766.74999999994)),.T.,.PARAMETER.);
#344= IFCCOMPOSITECURVESEGMENT(.CONTINUOUS.,.T.,#343);
#345= IFCCARTESIANPOINT((4821.06249999994,0.,72.0000000000286));
#346= IFCAXIS2PLACEMENT3D(#345,#8,#9);
#347= IFCCIRCLE(#346,54.31);
#348= IFCTRIMMEDCURVE(#347,(IFCPARAMETERVALUE(0.)),(IFCPARAMETERVALUE(1.5707963267949)),.T.,.PARAMETER.);
#349= IFCCOMPOSITECURVESEGMENT(.CONTINUOUS.,.T.,#348);
#350= IFCCARTESIANPOINT((4875.37499999994,0.,72.0000000000286));
#351= IFCVECTOR(#236,1.);
#352= IFCLINE(#350,#351);
#353= IFCTRIMMEDCURVE(#352,(IFCPARAMETERVALUE(0.)),(IFCPARAMETERVALUE(71.9999999999997)),.T.,.PARAMETER.);
#354= IFCCOMPOSITECURVESEGMENT(.DISCONTINUOUS.,.T.,#353);
#355= IFCCOMPOSITECURVE((#335,#340,#344,#349,#354),.F.);
#356= IFCSWEPTDISKSOLID(#355,6.3125,$,0.,4913.89159265353);
#357= IFCSTYLEDITEM(#356,(#235),$);
#358= IFCCARTESIANPOINT((-693.6875,5406.3125,-294.624999999997));
#359= IFCCARTESIANTRANSFORMATIONOPERATOR3D($,$,#358,$,$);
#360= IFCSHAPEREPRESENTATION(#13,'Body','AdvancedSweptSolid',(#356));
#361= IFCREPRESENTATIONMAP(#10,#360);
#362= IFCMAPPEDITEM(#361,#359);
#363= IFCTRIMMEDCURVE(#333,(IFCPARAMETERVALUE(0.)),(IFCPARAMETERVALUE(72.0000000000002)),.T.,.PARAMETER.);
#364= IFCCOMPOSITECURVESEGMENT(.CONTINUOUS.,.T.,#363);
#365= IFCCOMPOSITECURVE((#364,#340,#344,#349,#354),.F.);
#366= IFCSWEPTDISKSOLID(#365,6.3125,$,0.,4913.89159265353);
#367= IFCSTYLEDITEM(#366,(#235),$);
#368= IFCCARTESIANPOINT((-693.6875,5603.78749999998,-294.624999999992));
#369= IFCCARTESIANTRANSFORMATIONOPERATOR3D($,$,#368,$,$);
#370= IFCSHAPEREPRESENTATION(#13,'Body','AdvancedSweptSolid',(#366));
#371= IFCREPRESENTATIONMAP(#10,#370);
#372= IFCMAPPEDITEM(#371,#369);
#373= IFCCARTESIANPOINT((-693.6875,5801.26250000001,-294.624999999988));
#374= IFCCARTESIANTRANSFORMATIONOPERATOR3D($,$,#373,$,$);
#375= IFCSHAPEREPRESENTATION(#13,'Body','AdvancedSweptSolid',(#366));
#376= IFCREPRESENTATIONMAP(#10,#375);
#377= IFCMAPPEDITEM(#376,#374);
#378= IFCTRIMMEDCURVE(#352,(IFCPARAMETERVALUE(0.)),(IFCPARAMETERVALUE(71.9999999999998)),.T.,.PARAMETER.);
#379= IFCCOMPOSITECURVESEGMENT(.DISCONTINUOUS.,.T.,#378);
#380= IFCCOMPOSITECURVE((#364,#340,#344,#349,#379),.F.);
#381= IFCSWEPTDISKSOLID(#380,6.3125,$,0.,4913.89159265353);
#382= IFCSTYLEDITEM(#381,(#235),$);
#383= IFCCARTESIANPOINT((-693.6875,5998.73749999999,-294.624999999983));
#384= IFCCARTESIANTRANSFORMATIONOPERATOR3D($,$,#383,$,$);
#385= IFCSHAPEREPRESENTATION(#13,'Body','AdvancedSweptSolid',(#381));
#386= IFCREPRESENTATIONMAP(#10,#385);
#387= IFCMAPPEDITEM(#386,#384);
#388= IFCCARTESIANPOINT((-693.6875,6196.21250000002,-294.624999999978));
#389= IFCCARTESIANTRANSFORMATIONOPERATOR3D($,$,#388,$,$);
#390= IFCSHAPEREPRESENTATION(#13,'Body','AdvancedSweptSolid',(#381));
#391= IFCREPRESENTATIONMAP(#10,#390);
#392= IFCMAPPEDITEM(#391,#389);
#393= IFCCOMPOSITECURVE((#335,#340,#344,#349,#379),.F.);
#394= IFCSWEPTDISKSOLID(#393,6.3125,$,0.,4913.89159265353);
#395= IFCSTYLEDITEM(#394,(#235),$);
#396= IFCCARTESIANPOINT((-693.6875,6393.6875,-294.624999999973));
#397= IFCCARTESIANTRANSFORMATIONOPERATOR3D($,$,#396,$,$);
#398= IFCSHAPEREPRESENTATION(#13,'Body','AdvancedSweptSolid',(#394));
#399= IFCREPRESENTATIONMAP(#10,#398);
#400= IFCMAPPEDITEM(#399,#397);
#401= IFCSHAPEREPRESENTATION(#13,'Body','MappedRepresentation',(#362,#372,#377,#387,#392,#400));
#402= IFCPRODUCTDEFINITIONSHAPE($,$,(#401));
#403= IFCCARTESIANPOINT((430900.,440250.,-540.000000000029));
#404= IFCAXIS2PLACEMENT3D(#403,#9,#8);
#405= IFCLOCALPLACEMENT(#193,#404);
#406= IFCREINFORCINGBAR('1dNnfUgzPD59gOxEWl68G8',#47,$,$,$,#405,#402,'ID675f1a5e-abd6-4d14-9a98-ece82f188408',$,12.625,0.,$,.NOTDEFINED.,.NULL.);
#407= IFCPROPERTYSINGLEVALUE('HOOK_START_ANGLE',$,IFCLABEL('-90.000'),$);
#408= IFCPROPERTYSINGLEVALUE('HOOK_END_ANGLE',$,IFCLABEL('-90.000'),$);
#409= IFCPROPERTYSINGLEVALUE('GUID',$,IFCLABEL('675f1a5e-abd6-4d14-9a98-ece82f188408'),$);
#410= IFCPROPERTYSINGLEVALUE('CONCRETE_COVER_ON_PLANE_MIN',$,IFCLENGTHMEASURE(-62.),$);
#411= IFCPROPERTYSET('1HZfqNJ2XFBu$sgVYwTeVt',#5,'Rebar_properties',$,(#72,#73,#74,#69,#70,#305,#306,#307,#308,#309,#310,#311,#312,#313,#407,#315,#408,#409,#318,#319,#320,#321,#322,#323,#324,#325,#410,#327,#328,#329,#330));
#412= IFCCOLOURRGB('Dark Blue',0.117647058823529,0.262745098039216,0.513725490196078);
#413= IFCSURFACESTYLERENDERING(#412,0.,$,$,$,$,IFCNORMALISEDRATIOMEASURE(0.00390625),IFCSPECULAREXPONENT(10.),.NOTDEFINED.);
#414= IFCSURFACESTYLE('ADN-420',.POSITIVE.,(#413));
#415= IFCPRESENTATIONSTYLEASSIGNMENT((#414));
#416= IFCLINE(#6,#247);
#417= IFCTRIMMEDCURVE(#416,(IFCPARAMETERVALUE(0.)),(IFCPARAMETERVALUE(2200.00000000012)),.T.,.PARAMETER.);
#418= IFCSWEPTDISKSOLID(#417,6.3125,$,0.,2200.00000000012);
#419= IFCSTYLEDITEM(#418,(#415),$);
#420= IFCCARTESIANPOINT((4800.,-750.,-183.3125));
#421= IFCCARTESIANTRANSFORMATIONOPERATOR3D($,$,#420,$,$);
#422= IFCSHAPEREPRESENTATION(#13,'Body','AdvancedSweptSolid',(#418));
#423= IFCREPRESENTATIONMAP(#10,#422);
#424= IFCMAPPEDITEM(#423,#421);
#425= IFCSHAPEREPRESENTATION(#13,'Body','MappedRepresentation',(#424));
#426= IFCPRODUCTDEFINITIONSHAPE($,$,(#425));
#427= IFCCARTESIANPOINT((419100.,442800.,-540.000000000015));
#428= IFCAXIS2PLACEMENT3D(#427,#9,#7);
#429= IFCLOCALPLACEMENT(#193,#428);
#430= IFCREINFORCINGBAR('3A3daFn_z4Cvus30UqM62l',#47,$,$,$,#429,#426,'IDca0e790f-c7ef-4433-9e36-0c07b45860af',$,12.625,0.,$,.NOTDEFINED.,.NULL.);
#431= IFCPROPERTYSINGLEVALUE('WEIGHT_TOTAL_IN_GROUP',$,IFCMASSMEASURE(1.9536),$);
#432= IFCPROPERTYSINGLEVALUE('SHAPE',$,IFCLABEL('F101'),$);
#433= IFCPROPERTYSINGLEVALUE('REBAR_POS',$,IFCLABEL('12'),$);
#434= IFCPROPERTYSINGLEVALUE('NUMBER_OF_BARS_IN_GROUP',$,IFCINTEGER(1),$);
#435= IFCPROPERTYSINGLEVALUE('HOOK_START_ANGLE',$,$,$);
#436= IFCPROPERTYSINGLEVALUE('HOOK_END_ANGLE',$,$,$);
#437= IFCPROPERTYSINGLEVALUE('GUID',$,IFCLABEL('ca0e790f-c7ef-4433-9e36-0c07b45860af'),$);
#438= IFCPROPERTYSINGLEVALUE('DIM_L',$,IFCLENGTHMEASURE(2200.),$);
#439= IFCPROPERTYSINGLEVALUE('DIM_C',$,$,$);
#440= IFCPROPERTYSINGLEVALUE('DIM_B',$,$,$);
#441= IFCPROPERTYSINGLEVALUE('DIM_A',$,IFCLENGTHMEASURE(2200.),$);
#442= IFCPROPERTYSINGLEVALUE('CONCRETE_COVER_ON_PLANE_MIN',$,IFCLENGTHMEASURE(-77.),$);
#443= IFCPROPERTYSINGLEVALUE('CC_TARGET',$,IFCLENGTHMEASURE(0.),$);
#444= IFCPROPERTYSET('0sx_f7zNv7FPfmxgk$OCVU',#5,'Rebar_properties',$,(#72,#73,#74,#69,#70,#431,#432,#433,#434,#309,#310,#311,#312,#313,#435,#315,#436,#437,#318,#438,#320,#321,#439,#440,#441,#325,#442,#443,#328,#329,#330));
#445= IFCTRIMMEDCURVE(#416,(IFCPARAMETERVALUE(0.)),(IFCPARAMETERVALUE(6000.00000000006)),.T.,.PARAMETER.);
#446= IFCSWEPTDISKSOLID(#445,6.3125,$,0.,6000.00000000006);
#447= IFCSTYLEDITEM(#446,(#415),$);
#448= IFCCARTESIANPOINT((-1250.,5100.,171.3125));
#449= IFCCARTESIANTRANSFORMATIONOPERATOR3D($,$,#448,$,$);
#450= IFCSHAPEREPRESENTATION(#13,'Body','AdvancedSweptSolid',(#446));
#451= IFCREPRESENTATIONMAP(#10,#450);
#452= IFCMAPPEDITEM(#451,#449);
#453= IFCSHAPEREPRESENTATION(#13,'Body','MappedRepresentation',(#452));
#454= IFCPRODUCTDEFINITIONSHAPE($,$,(#453));
#455= IFCCARTESIANPOINT((419900.,440250.,-540.));
#456= IFCAXIS2PLACEMENT3D(#455,#236,#8);
#457= IFCLOCALPLACEMENT(#193,#456);
#458= IFCREINFORCINGBAR('0fxK6H6BL7p9V8GpSmU4m9',#47,$,$,$,#457,#454,'ID29ed4191-18b5-47cc-97c8-433730784c09',$,12.625,0.,$,.NOTDEFINED.,.NULL.);
#459= IFCPROPERTYSINGLEVALUE('WEIGHT_TOTAL_IN_GROUP',$,IFCMASSMEASURE(5.328),$);
#460= IFCPROPERTYSINGLEVALUE('REBAR_POS',$,IFCLABEL('13'),$);
#461= IFCPROPERTYSINGLEVALUE('GUID',$,IFCLABEL('29ed4191-18b5-47cc-97c8-433730784c09'),$);
#462= IFCPROPERTYSINGLEVALUE('DIM_L',$,IFCLENGTHMEASURE(6000.),$);
#463= IFCPROPERTYSINGLEVALUE('DIM_A',$,IFCLENGTHMEASURE(6000.),$);
#464= IFCPROPERTYSINGLEVALUE('CONCRETE_COVER_ON_PLANE_MIN',$,IFCLENGTHMEASURE(65.),$);
#465= IFCPROPERTYSET('3mYyOU9QHB3gf92LKl_nlk',#5,'Rebar_properties',$,(#72,#73,#74,#69,#70,#459,#432,#460,#434,#309,#310,#311,#312,#313,#435,#315,#436,#461,#318,#462,#320,#321,#439,#440,#463,#325,#464,#443,#328,#329,#330));
#466= IFCTRIMMEDCURVE(#333,(IFCPARAMETERVALUE(0.)),(IFCPARAMETERVALUE(72.)),.T.,.PARAMETER.);
#467= IFCCOMPOSITECURVESEGMENT(.CONTINUOUS.,.T.,#466);
#468= IFCTRIMMEDCURVE(#342,(IFCPARAMETERVALUE(0.)),(IFCPARAMETERVALUE(966.75)),.T.,.PARAMETER.);
#469= IFCCOMPOSITECURVESEGMENT(.CONTINUOUS.,.T.,#468);
#470= IFCCARTESIANPOINT((1021.0625,0.,72.));
#471= IFCAXIS2PLACEMENT3D(#470,#8,#9);
#472= IFCCIRCLE(#471,54.31);
#473= IFCTRIMMEDCURVE(#472,(IFCPARAMETERVALUE(0.)),(IFCPARAMETERVALUE(1.5707963267949)),.T.,.PARAMETER.);
#474= IFCCOMPOSITECURVESEGMENT(.CONTINUOUS.,.T.,#473);
#475= IFCCARTESIANPOINT((1075.375,0.,72.));
#476= IFCLINE(#475,#351);
#477= IFCTRIMMEDCURVE(#476,(IFCPARAMETERVALUE(0.)),(IFCPARAMETERVALUE(72.)),.T.,.PARAMETER.);
#478= IFCCOMPOSITECURVESEGMENT(.DISCONTINUOUS.,.T.,#477);
#479= IFCCOMPOSITECURVE((#467,#340,#469,#474,#478),.F.);
#480= IFCSWEPTDISKSOLID(#479,6.3125,$,0.,1113.89159265359);
#481= IFCSTYLEDITEM(#480,(#235),$);
#482= IFCCARTESIANPOINT((956.3125,-393.6875,-182.625000000004));
#483= IFCCARTESIANTRANSFORMATIONOPERATOR3D($,$,#482,$,$);
#484= IFCSHAPEREPRESENTATION(#13,'Body','AdvancedSweptSolid',(#480));
#485= IFCREPRESENTATIONMAP(#10,#484);
#486= IFCMAPPEDITEM(#485,#483);
#487= IFCCARTESIANPOINT((956.3125,-194.213541666686,-182.625000000013));
#488= IFCCARTESIANTRANSFORMATIONOPERATOR3D($,$,#487,$,$);
#489= IFCSHAPEREPRESENTATION(#13,'Body','AdvancedSweptSolid',(#480));
#490= IFCREPRESENTATIONMAP(#10,#489);
#491= IFCMAPPEDITEM(#490,#488);
#492= IFCCARTESIANPOINT((956.3125,5.26041666668607,-182.625000000021));
#493= IFCCARTESIANTRANSFORMATIONOPERATOR3D($,$,#492,$,$);
#494= IFCSHAPEREPRESENTATION(#13,'Body','AdvancedSweptSolid',(#480));
#495= IFCREPRESENTATIONMAP(#10,#494);
#496= IFCMAPPEDITEM(#495,#493);
#497= IFCTRIMMEDCURVE(#333,(IFCPARAMETERVALUE(0.)),(IFCPARAMETERVALUE(71.9999999999999)),.T.,.PARAMETER.);
#498= IFCCOMPOSITECURVESEGMENT(.CONTINUOUS.,.T.,#497);
#499= IFCTRIMMEDCURVE(#476,(IFCPARAMETERVALUE(0.)),(IFCPARAMETERVALUE(71.9999999999999)),.T.,.PARAMETER.);
#500= IFCCOMPOSITECURVESEGMENT(.DISCONTINUOUS.,.T.,#499);
#501= IFCCOMPOSITECURVE((#498,#340,#469,#474,#500),.F.);
#502= IFCSWEPTDISKSOLID(#501,6.3125,$,0.,1113.89159265359);
#503= IFCSTYLEDITEM(#502,(#235),$);
#504= IFCCARTESIANPOINT((956.3125,204.734375,-182.625000000029));
#505= IFCCARTESIANTRANSFORMATIONOPERATOR3D($,$,#504,$,$);
#506= IFCSHAPEREPRESENTATION(#13,'Body','AdvancedSweptSolid',(#502));
#507= IFCREPRESENTATIONMAP(#10,#506);
#508= IFCMAPPEDITEM(#507,#505);
#509= IFCCARTESIANPOINT((956.3125,404.208333333314,-182.625000000037));
#510= IFCCARTESIANTRANSFORMATIONOPERATOR3D($,$,#509,$,$);
#511= IFCSHAPEREPRESENTATION(#13,'Body','AdvancedSweptSolid',(#480));
#512= IFCREPRESENTATIONMAP(#10,#511);
#513= IFCMAPPEDITEM(#512,#510);
#514= IFCCARTESIANPOINT((956.3125,603.682291666686,-182.625000000045));
#515= IFCCARTESIANTRANSFORMATIONOPERATOR3D($,$,#514,$,$);
#516= IFCSHAPEREPRESENTATION(#13,'Body','AdvancedSweptSolid',(#480));
#517= IFCREPRESENTATIONMAP(#10,#516);
#518= IFCMAPPEDITEM(#517,#515);
#519= IFCVECTOR(#7,1.);
#520= IFCLINE(#341,#519);
#521= IFCTRIMMEDCURVE(#520,(IFCPARAMETERVALUE(0.)),(IFCPARAMETERVALUE(966.749999999942)),.T.,.PARAMETER.);
#522= IFCCOMPOSITECURVESEGMENT(.CONTINUOUS.,.T.,#521);
#523= IFCCOMPOSITECURVE((#467,#340,#522,#474,#478),.F.);
#524= IFCSWEPTDISKSOLID(#523,6.3125,$,0.,1113.89159265353);
#525= IFCSTYLEDITEM(#524,(#235),$);
#526= IFCCARTESIANPOINT((956.312500000058,803.15625,-182.625000000053));
#527= IFCCARTESIANTRANSFORMATIONOPERATOR3D($,$,#526,$,$);
#528= IFCSHAPEREPRESENTATION(#13,'Body','AdvancedSweptSolid',(#524));
#529= IFCREPRESENTATIONMAP(#10,#528);
#530= IFCMAPPEDITEM(#529,#527);
#531= IFCCOMPOSITECURVE((#498,#340,#522,#474,#500),.F.);
#532= IFCSWEPTDISKSOLID(#531,6.3125,$,0.,1113.89159265353);
#533= IFCSTYLEDITEM(#532,(#235),$);
#534= IFCCARTESIANPOINT((956.312500000058,1002.63020833331,-182.625000000061));
#535= IFCCARTESIANTRANSFORMATIONOPERATOR3D($,$,#534,$,$);
#536= IFCSHAPEREPRESENTATION(#13,'Body','AdvancedSweptSolid',(#532));
#537= IFCREPRESENTATIONMAP(#10,#536);
#538= IFCMAPPEDITEM(#537,#535);
#539= IFCCARTESIANPOINT((956.312500000058,1202.10416666669,-182.625000000069));
#540= IFCCARTESIANTRANSFORMATIONOPERATOR3D($,$,#539,$,$);
#541= IFCSHAPEREPRESENTATION(#13,'Body','AdvancedSweptSolid',(#524));
#542= IFCREPRESENTATIONMAP(#10,#541);
#543= IFCMAPPEDITEM(#542,#540);
#544= IFCCARTESIANPOINT((956.312500000058,1401.578125,-182.625000000078));
#545= IFCCARTESIANTRANSFORMATIONOPERATOR3D($,$,#544,$,$);
#546= IFCSHAPEREPRESENTATION(#13,'Body','AdvancedSweptSolid',(#524));
#547= IFCREPRESENTATIONMAP(#10,#546);
#548= IFCMAPPEDITEM(#547,#545);
#549= IFCCARTESIANPOINT((956.312500000058,1601.05208333331,-182.625000000086));
#550= IFCCARTESIANTRANSFORMATIONOPERATOR3D($,$,#549,$,$);
#551= IFCSHAPEREPRESENTATION(#13,'Body','AdvancedSweptSolid',(#524));
#552= IFCREPRESENTATIONMAP(#10,#551);
#553= IFCMAPPEDITEM(#552,#550);
#554= IFCCARTESIANPOINT((956.312500000058,1800.52604166669,-182.625000000094));
#555= IFCCARTESIANTRANSFORMATIONOPERATOR3D($,$,#554,$,$);
#556= IFCSHAPEREPRESENTATION(#13,'Body','AdvancedSweptSolid',(#524));
#557= IFCREPRESENTATIONMAP(#10,#556);
#558= IFCMAPPEDITEM(#557,#555);
#559= IFCCARTESIANPOINT((956.312500000058,2000.,-182.625000000102));
#560= IFCCARTESIANTRANSFORMATIONOPERATOR3D($,$,#559,$,$);
#561= IFCSHAPEREPRESENTATION(#13,'Body','AdvancedSweptSolid',(#524));
#562= IFCREPRESENTATIONMAP(#10,#561);
#563= IFCMAPPEDITEM(#562,#560);
#564= IFCCARTESIANPOINT((956.312500000058,2199.47395833331,-182.62500000011));
#565= IFCCARTESIANTRANSFORMATIONOPERATOR3D($,$,#564,$,$);
#566= IFCSHAPEREPRESENTATION(#13,'Body','AdvancedSweptSolid',(#480));
#567= IFCREPRESENTATIONMAP(#10,#566);
#568= IFCMAPPEDITEM(#567,#565);
#569= IFCCARTESIANPOINT((956.312500000058,2398.94791666669,-182.625000000118));
#570= IFCCARTESIANTRANSFORMATIONOPERATOR3D($,$,#569,$,$);
#571= IFCSHAPEREPRESENTATION(#13,'Body','AdvancedSweptSolid',(#480));
#572= IFCREPRESENTATIONMAP(#10,#571);
#573= IFCMAPPEDITEM(#572,#570);
#574= IFCCARTESIANPOINT((956.312500000058,2598.421875,-182.625000000126));
#575= IFCCARTESIANTRANSFORMATIONOPERATOR3D($,$,#574,$,$);
#576= IFCSHAPEREPRESENTATION(#13,'Body','AdvancedSweptSolid',(#480));
#577= IFCREPRESENTATIONMAP(#10,#576);
#578= IFCMAPPEDITEM(#577,#575);
#579= IFCCARTESIANPOINT((956.312500000058,2797.89583333331,-182.625000000134));
#580= IFCCARTESIANTRANSFORMATIONOPERATOR3D($,$,#579,$,$);
#581= IFCSHAPEREPRESENTATION(#13,'Body','AdvancedSweptSolid',(#480));
#582= IFCREPRESENTATIONMAP(#10,#581);
#583= IFCMAPPEDITEM(#582,#580);
#584= IFCCARTESIANPOINT((956.312500000058,2997.36979166669,-182.625000000143));
#585= IFCCARTESIANTRANSFORMATIONOPERATOR3D($,$,#584,$,$);
#586= IFCSHAPEREPRESENTATION(#13,'Body','AdvancedSweptSolid',(#480));
#587= IFCREPRESENTATIONMAP(#10,#586);
#588= IFCMAPPEDITEM(#587,#585);
#589= IFCCARTESIANPOINT((956.312500000058,3196.84375,-182.625000000151));
#590= IFCCARTESIANTRANSFORMATIONOPERATOR3D($,$,#589,$,$);
#591= IFCSHAPEREPRESENTATION(#13,'Body','AdvancedSweptSolid',(#480));
#592= IFCREPRESENTATIONMAP(#10,#591);
#593= IFCMAPPEDITEM(#592,#590);
#594= IFCCARTESIANPOINT((956.312500000116,3396.31770833331,-182.625000000159));
#595= IFCCARTESIANTRANSFORMATIONOPERATOR3D($,$,#594,$,$);
#596= IFCSHAPEREPRESENTATION(#13,'Body','AdvancedSweptSolid',(#524));
#597= IFCREPRESENTATIONMAP(#10,#596);
#598= IFCMAPPEDITEM(#597,#595);
#599= IFCCARTESIANPOINT((956.312500000116,3595.79166666669,-182.625000000167));
#600= IFCCARTESIANTRANSFORMATIONOPERATOR3D($,$,#599,$,$);
#601= IFCSHAPEREPRESENTATION(#13,'Body','AdvancedSweptSolid',(#524));
#602= IFCREPRESENTATIONMAP(#10,#601);
#603= IFCMAPPEDITEM(#602,#600);
#604= IFCTRIMMEDCURVE(#333,(IFCPARAMETERVALUE(0.)),(IFCPARAMETERVALUE(72.0000000000001)),.T.,.PARAMETER.);
#605= IFCCOMPOSITECURVESEGMENT(.CONTINUOUS.,.T.,#604);
#606= IFCTRIMMEDCURVE(#476,(IFCPARAMETERVALUE(0.)),(IFCPARAMETERVALUE(72.0000000000001)),.T.,.PARAMETER.);
#607= IFCCOMPOSITECURVESEGMENT(.DISCONTINUOUS.,.T.,#606);
#608= IFCCOMPOSITECURVE((#605,#340,#522,#474,#607),.F.);
#609= IFCSWEPTDISKSOLID(#608,6.3125,$,0.,1113.89159265353);
#610= IFCSTYLEDITEM(#609,(#235),$);
#611= IFCCARTESIANPOINT((956.312500000116,3795.265625,-182.625000000175));
#612= IFCCARTESIANTRANSFORMATIONOPERATOR3D($,$,#611,$,$);
#613= IFCSHAPEREPRESENTATION(#13,'Body','AdvancedSweptSolid',(#609));
#614= IFCREPRESENTATIONMAP(#10,#613);
#615= IFCMAPPEDITEM(#614,#612);
#616= IFCCARTESIANPOINT((956.312500000116,3994.73958333331,-182.625000000183));
#617= IFCCARTESIANTRANSFORMATIONOPERATOR3D($,$,#616,$,$);
#618= IFCSHAPEREPRESENTATION(#13,'Body','AdvancedSweptSolid',(#524));
#619= IFCREPRESENTATIONMAP(#10,#618);
#620= IFCMAPPEDITEM(#619,#617);
#621= IFCCARTESIANPOINT((956.312500000116,4194.21354166669,-182.625000000191));
#622= IFCCARTESIANTRANSFORMATIONOPERATOR3D($,$,#621,$,$);
#623= IFCSHAPEREPRESENTATION(#13,'Body','AdvancedSweptSolid',(#524));
#624= IFCREPRESENTATIONMAP(#10,#623);
#625= IFCMAPPEDITEM(#624,#622);
#626= IFCCARTESIANPOINT((956.312500000116,4393.6875,-182.625000000199));
#627= IFCCARTESIANTRANSFORMATIONOPERATOR3D($,$,#626,$,$);
#628= IFCSHAPEREPRESENTATION(#13,'Body','AdvancedSweptSolid',(#524));
#629= IFCREPRESENTATIONMAP(#10,#628);
#630= IFCMAPPEDITEM(#629,#627);
#631= IFCSHAPEREPRESENTATION(#13,'Body','MappedRepresentation',(#486,#491,#496,#508,#513,#518,#530,#538,#543,#548,#553,#558,#563,#568,#573,#578,#583,#588,#593,#598,#603,#615,#620,#625,#630));
#632= IFCPRODUCTDEFINITIONSHAPE($,$,(#631));
#633= IFCCARTESIANPOINT((423500.,440000.,-640.));
#634= IFCAXIS2PLACEMENT3D(#633,#9,#7);
#635= IFCLOCALPLACEMENT(#193,#634);
#636= IFCREINFORCINGBAR('0GEWaWG7r68AKF21op2jUq',#47,$,$,$,#635,#632,'ID103a0920-407d-4620-a50f-081cb30ad7b4',$,12.625,0.,$,.NOTDEFINED.,.NULL.);
#637= IFCPROPERTYSINGLEVALUE('WEIGHT_TOTAL_IN_GROUP',$,IFCMASSMEASURE(28.44619),$);
#638= IFCPROPERTYSINGLEVALUE('REBAR_POS',$,IFCLABEL('14'),$);
#639= IFCPROPERTYSINGLEVALUE('NUMBER_OF_BARS_IN_GROUP',$,IFCINTEGER(25),$);
#640= IFCPROPERTYSINGLEVALUE('GUID',$,IFCLABEL('103a0920-407d-4620-a50f-081cb30ad7b4'),$);
#641= IFCPROPERTYSINGLEVALUE('DIM_L',$,IFCLENGTHMEASURE(1350.),$);
#642= IFCPROPERTYSINGLEVALUE('DIM_B',$,IFCLENGTHMEASURE(1088.),$);
#643= IFCPROPERTYSINGLEVALUE('CONCRETE_COVER_ON_PLANE_MIN',$,IFCLENGTHMEASURE(-50.),$);
#644= IFCPROPERTYSET('2YzTv2bMb3ev5zowm8hQGf',#5,'Rebar_properties',$,(#72,#73,#74,#69,#70,#637,#306,#638,#639,#309,#310,#311,#312,#313,#407,#315,#408,#640,#318,#641,#320,#321,#322,#642,#324,#325,#643,#327,#328,#329,#330));
#645= IFCLINE(#6,#351);
#646= IFCTRIMMEDCURVE(#645,(IFCPARAMETERVALUE(0.)),(IFCPARAMETERVALUE(72.)),.T.,.PARAMETER.);
#647= IFCCOMPOSITECURVESEGMENT(.CONTINUOUS.,.T.,#646);
#648= IFCTRIMMEDCURVE(#248,(IFCPARAMETERVALUE(0.)),(IFCPARAMETERVALUE(966.75)),.T.,.PARAMETER.);
#649= IFCCOMPOSITECURVESEGMENT(.CONTINUOUS.,.T.,#648);
#650= IFCCARTESIANPOINT((1021.0625,0.,-72.));
#651= IFCAXIS2PLACEMENT3D(#650,#87,#236);
#652= IFCCIRCLE(#651,54.31);
#653= IFCTRIMMEDCURVE(#652,(IFCPARAMETERVALUE(0.)),(IFCPARAMETERVALUE(1.5707963267949)),.T.,.PARAMETER.);
#654= IFCCOMPOSITECURVESEGMENT(.CONTINUOUS.,.T.,#653);
#655= IFCCARTESIANPOINT((1075.375,0.,-72.));
#656= IFCLINE(#655,#257);
#657= IFCTRIMMEDCURVE(#656,(IFCPARAMETERVALUE(0.)),(IFCPARAMETERVALUE(72.)),.T.,.PARAMETER.);
#658= IFCCOMPOSITECURVESEGMENT(.DISCONTINUOUS.,.T.,#657);
#659= IFCCOMPOSITECURVE((#647,#245,#649,#654,#658),.F.);
#660= IFCSWEPTDISKSOLID(#659,6.3125,$,0.,1113.89159265359);
#661= IFCSTYLEDITEM(#660,(#235),$);
#662= IFCCARTESIANPOINT((968.3125,-393.6875,197.624999999996));
#663= IFCCARTESIANTRANSFORMATIONOPERATOR3D($,$,#662,$,$);
#664= IFCSHAPEREPRESENTATION(#13,'Body','AdvancedSweptSolid',(#660));
#665= IFCREPRESENTATIONMAP(#10,#664);
#666= IFCMAPPEDITEM(#665,#663);
#667= IFCCARTESIANPOINT((968.3125,-194.213541666686,197.624999999987));
#668= IFCCARTESIANTRANSFORMATIONOPERATOR3D($,$,#667,$,$);
#669= IFCSHAPEREPRESENTATION(#13,'Body','AdvancedSweptSolid',(#660));
#670= IFCREPRESENTATIONMAP(#10,#669);
#671= IFCMAPPEDITEM(#670,#668);
#672= IFCCARTESIANPOINT((968.3125,5.26041666668607,197.624999999979));
#673= IFCCARTESIANTRANSFORMATIONOPERATOR3D($,$,#672,$,$);
#674= IFCSHAPEREPRESENTATION(#13,'Body','AdvancedSweptSolid',(#660));
#675= IFCREPRESENTATIONMAP(#10,#674);
#676= IFCMAPPEDITEM(#675,#673);
#677= IFCTRIMMEDCURVE(#645,(IFCPARAMETERVALUE(0.)),(IFCPARAMETERVALUE(72.0000000000001)),.T.,.PARAMETER.);
#678= IFCCOMPOSITECURVESEGMENT(.CONTINUOUS.,.T.,#677);
#679= IFCTRIMMEDCURVE(#656,(IFCPARAMETERVALUE(0.)),(IFCPARAMETERVALUE(72.0000000000001)),.T.,.PARAMETER.);
#680= IFCCOMPOSITECURVESEGMENT(.DISCONTINUOUS.,.T.,#679);
#681= IFCCOMPOSITECURVE((#678,#245,#649,#654,#680),.F.);
#682= IFCSWEPTDISKSOLID(#681,6.3125,$,0.,1113.89159265359);
#683= IFCSTYLEDITEM(#682,(#235),$);
#684= IFCCARTESIANPOINT((968.3125,204.734375,197.624999999971));
#685= IFCCARTESIANTRANSFORMATIONOPERATOR3D($,$,#684,$,$);
#686= IFCSHAPEREPRESENTATION(#13,'Body','AdvancedSweptSolid',(#682));
#687= IFCREPRESENTATIONMAP(#10,#686);
#688= IFCMAPPEDITEM(#687,#685);
#689= IFCCARTESIANPOINT((968.3125,404.208333333314,197.624999999963));
#690= IFCCARTESIANTRANSFORMATIONOPERATOR3D($,$,#689,$,$);
#691= IFCSHAPEREPRESENTATION(#13,'Body','AdvancedSweptSolid',(#660));
#692= IFCREPRESENTATIONMAP(#10,#691);
#693= IFCMAPPEDITEM(#692,#690);
#694= IFCCARTESIANPOINT((968.3125,603.682291666686,197.624999999955));
#695= IFCCARTESIANTRANSFORMATIONOPERATOR3D($,$,#694,$,$);
#696= IFCSHAPEREPRESENTATION(#13,'Body','AdvancedSweptSolid',(#660));
#697= IFCREPRESENTATIONMAP(#10,#696);
#698= IFCMAPPEDITEM(#697,#695);
#699= IFCLINE(#246,#519);
#700= IFCTRIMMEDCURVE(#699,(IFCPARAMETERVALUE(0.)),(IFCPARAMETERVALUE(966.749999999942)),.T.,.PARAMETER.);
#701= IFCCOMPOSITECURVESEGMENT(.CONTINUOUS.,.T.,#700);
#702= IFCCOMPOSITECURVE((#647,#245,#701,#654,#658),.F.);
#703= IFCSWEPTDISKSOLID(#702,6.3125,$,0.,1113.89159265353);
#704= IFCSTYLEDITEM(#703,(#235),$);
#705= IFCCARTESIANPOINT((968.312500000058,803.15625,197.624999999947));
#706= IFCCARTESIANTRANSFORMATIONOPERATOR3D($,$,#705,$,$);
#707= IFCSHAPEREPRESENTATION(#13,'Body','AdvancedSweptSolid',(#703));
#708= IFCREPRESENTATIONMAP(#10,#707);
#709= IFCMAPPEDITEM(#708,#706);
#710= IFCCOMPOSITECURVE((#678,#245,#701,#654,#680),.F.);
#711= IFCSWEPTDISKSOLID(#710,6.3125,$,0.,1113.89159265353);
#712= IFCSTYLEDITEM(#711,(#235),$);
#713= IFCCARTESIANPOINT((968.312500000058,1002.63020833331,197.624999999939));
#714= IFCCARTESIANTRANSFORMATIONOPERATOR3D($,$,#713,$,$);
#715= IFCSHAPEREPRESENTATION(#13,'Body','AdvancedSweptSolid',(#711));
#716= IFCREPRESENTATIONMAP(#10,#715);
#717= IFCMAPPEDITEM(#716,#714);
#718= IFCCARTESIANPOINT((968.312500000058,1202.10416666669,197.624999999931));
#719= IFCCARTESIANTRANSFORMATIONOPERATOR3D($,$,#718,$,$);
#720= IFCSHAPEREPRESENTATION(#13,'Body','AdvancedSweptSolid',(#703));
#721= IFCREPRESENTATIONMAP(#10,#720);
#722= IFCMAPPEDITEM(#721,#719);
#723= IFCCARTESIANPOINT((968.312500000058,1401.578125,197.624999999922));
#724= IFCCARTESIANTRANSFORMATIONOPERATOR3D($,$,#723,$,$);
#725= IFCSHAPEREPRESENTATION(#13,'Body','AdvancedSweptSolid',(#703));
#726= IFCREPRESENTATIONMAP(#10,#725);
#727= IFCMAPPEDITEM(#726,#724);
#728= IFCCARTESIANPOINT((968.312500000058,1601.05208333331,197.624999999914));
#729= IFCCARTESIANTRANSFORMATIONOPERATOR3D($,$,#728,$,$);
#730= IFCSHAPEREPRESENTATION(#13,'Body','AdvancedSweptSolid',(#703));
#731= IFCREPRESENTATIONMAP(#10,#730);
#732= IFCMAPPEDITEM(#731,#729);
#733= IFCCARTESIANPOINT((968.312500000058,1800.52604166669,197.624999999906));
#734= IFCCARTESIANTRANSFORMATIONOPERATOR3D($,$,#733,$,$);
#735= IFCSHAPEREPRESENTATION(#13,'Body','AdvancedSweptSolid',(#703));
#736= IFCREPRESENTATIONMAP(#10,#735);
#737= IFCMAPPEDITEM(#736,#734);
#738= IFCCARTESIANPOINT((968.312500000058,2000.,197.624999999898));
#739= IFCCARTESIANTRANSFORMATIONOPERATOR3D($,$,#738,$,$);
#740= IFCSHAPEREPRESENTATION(#13,'Body','AdvancedSweptSolid',(#703));
#741= IFCREPRESENTATIONMAP(#10,#740);
#742= IFCMAPPEDITEM(#741,#739);
#743= IFCCARTESIANPOINT((968.312500000058,2199.47395833331,197.62499999989));
#744= IFCCARTESIANTRANSFORMATIONOPERATOR3D($,$,#743,$,$);
#745= IFCSHAPEREPRESENTATION(#13,'Body','AdvancedSweptSolid',(#660));
#746= IFCREPRESENTATIONMAP(#10,#745);
#747= IFCMAPPEDITEM(#746,#744);
#748= IFCCARTESIANPOINT((968.312500000058,2398.94791666669,197.624999999882));
#749= IFCCARTESIANTRANSFORMATIONOPERATOR3D($,$,#748,$,$);
#750= IFCSHAPEREPRESENTATION(#13,'Body','AdvancedSweptSolid',(#660));
#751= IFCREPRESENTATIONMAP(#10,#750);
#752= IFCMAPPEDITEM(#751,#749);
#753= IFCCARTESIANPOINT((968.312500000058,2598.421875,197.624999999874));
#754= IFCCARTESIANTRANSFORMATIONOPERATOR3D($,$,#753,$,$);
#755= IFCSHAPEREPRESENTATION(#13,'Body','AdvancedSweptSolid',(#660));
#756= IFCREPRESENTATIONMAP(#10,#755);
#757= IFCMAPPEDITEM(#756,#754);
#758= IFCCARTESIANPOINT((968.312500000058,2797.89583333331,197.624999999866));
#759= IFCCARTESIANTRANSFORMATIONOPERATOR3D($,$,#758,$,$);
#760= IFCSHAPEREPRESENTATION(#13,'Body','AdvancedSweptSolid',(#660));
#761= IFCREPRESENTATIONMAP(#10,#760);
#762= IFCMAPPEDITEM(#761,#759);
#763= IFCCARTESIANPOINT((968.312500000058,2997.36979166669,197.624999999857));
#764= IFCCARTESIANTRANSFORMATIONOPERATOR3D($,$,#763,$,$);
#765= IFCSHAPEREPRESENTATION(#13,'Body','AdvancedSweptSolid',(#660));
#766= IFCREPRESENTATIONMAP(#10,#765);
#767= IFCMAPPEDITEM(#766,#764);
#768= IFCCARTESIANPOINT((968.312500000058,3196.84375,197.624999999849));
#769= IFCCARTESIANTRANSFORMATIONOPERATOR3D($,$,#768,$,$);
#770= IFCSHAPEREPRESENTATION(#13,'Body','AdvancedSweptSolid',(#660));
#771= IFCREPRESENTATIONMAP(#10,#770);
#772= IFCMAPPEDITEM(#771,#769);
#773= IFCCARTESIANPOINT((968.312500000116,3396.31770833331,197.624999999841));
#774= IFCCARTESIANTRANSFORMATIONOPERATOR3D($,$,#773,$,$);
#775= IFCSHAPEREPRESENTATION(#13,'Body','AdvancedSweptSolid',(#703));
#776= IFCREPRESENTATIONMAP(#10,#775);
#777= IFCMAPPEDITEM(#776,#774);
#778= IFCCARTESIANPOINT((968.312500000116,3595.79166666669,197.624999999833));
#779= IFCCARTESIANTRANSFORMATIONOPERATOR3D($,$,#778,$,$);
#780= IFCSHAPEREPRESENTATION(#13,'Body','AdvancedSweptSolid',(#703));
#781= IFCREPRESENTATIONMAP(#10,#780);
#782= IFCMAPPEDITEM(#781,#779);
#783= IFCCARTESIANPOINT((968.312500000116,3795.265625,197.624999999825));
#784= IFCCARTESIANTRANSFORMATIONOPERATOR3D($,$,#783,$,$);
#785= IFCSHAPEREPRESENTATION(#13,'Body','AdvancedSweptSolid',(#703));
#786= IFCREPRESENTATIONMAP(#10,#785);
#787= IFCMAPPEDITEM(#786,#784);
#788= IFCCARTESIANPOINT((968.312500000116,3994.73958333331,197.624999999817));
#789= IFCCARTESIANTRANSFORMATIONOPERATOR3D($,$,#788,$,$);
#790= IFCSHAPEREPRESENTATION(#13,'Body','AdvancedSweptSolid',(#703));
#791= IFCREPRESENTATIONMAP(#10,#790);
#792= IFCMAPPEDITEM(#791,#789);
#793= IFCCARTESIANPOINT((968.312500000116,4194.21354166669,197.624999999809));
#794= IFCCARTESIANTRANSFORMATIONOPERATOR3D($,$,#793,$,$);
#795= IFCSHAPEREPRESENTATION(#13,'Body','AdvancedSweptSolid',(#703));
#796= IFCREPRESENTATIONMAP(#10,#795);
#797= IFCMAPPEDITEM(#796,#794);
#798= IFCCARTESIANPOINT((968.312500000116,4393.6875,197.624999999801));
#799= IFCCARTESIANTRANSFORMATIONOPERATOR3D($,$,#798,$,$);
#800= IFCSHAPEREPRESENTATION(#13,'Body','AdvancedSweptSolid',(#703));
#801= IFCREPRESENTATIONMAP(#10,#800);
#802= IFCMAPPEDITEM(#801,#799);
#803= IFCSHAPEREPRESENTATION(#13,'Body','MappedRepresentation',(#666,#671,#676,#688,#693,#698,#709,#717,#722,#727,#732,#737,#742,#747,#752,#757,#762,#767,#772,#777,#782,#787,#792,#797,#802));
#804= IFCPRODUCTDEFINITIONSHAPE($,$,(#803));
#805= IFCCARTESIANPOINT((423500.,440000.,-940.));
#806= IFCAXIS2PLACEMENT3D(#805,#9,#7);
#807= IFCLOCALPLACEMENT(#193,#806);
#808= IFCREINFORCINGBAR('32XvNUd3b4xen_rYZyyx6t',#47,$,$,$,#807,#804,'IDc28795de-9c39-44ee-8c7e-d628fcf3b1b7',$,12.625,0.,$,.NOTDEFINED.,.NULL.);
#809= IFCPROPERTYSINGLEVALUE('GUID',$,IFCLABEL('c28795de-9c39-44ee-8c7e-d628fcf3b1b7'),$);
#810= IFCPROPERTYSET('09pFPBZfD3OBS5bE7DryfS',#5,'Rebar_properties',$,(#72,#73,#74,#69,#70,#637,#306,#638,#639,#309,#310,#311,#312,#313,#314,#315,#316,#809,#318,#641,#320,#321,#322,#642,#324,#325,#464,#327,#328,#329,#330));
#811= IFCVECTOR(#8,1.);
#812= IFCLINE(#6,#811);
#813= IFCTRIMMEDCURVE(#812,(IFCPARAMETERVALUE(0.)),(IFCPARAMETERVALUE(224.687500000011)),.T.,.PARAMETER.);
#814= IFCCOMPOSITECURVESEGMENT(.CONTINUOUS.,.T.,#813);
#815= IFCCARTESIANPOINT((-1.07791964654569E-11,224.687500000011,-25.3125));
#816= IFCAXIS2PLACEMENT3D(#815,#88,#9);
#817= IFCCIRCLE(#816,25.31);
#818= IFCTRIMMEDCURVE(#817,(IFCPARAMETERVALUE(0.)),(IFCPARAMETERVALUE(1.57079632679447)),.T.,.PARAMETER.);
#819= IFCCOMPOSITECURVESEGMENT(.CONTINUOUS.,.T.,#818);
#820= IFCCARTESIANPOINT((-1.07791964654523E-11,250.000000000011,-25.3124999999892));
#821= IFCLINE(#820,#351);
#822= IFCTRIMMEDCURVE(#821,(IFCPARAMETERVALUE(0.)),(IFCPARAMETERVALUE(86.0624999999913)),.T.,.PARAMETER.);
#823= IFCCOMPOSITECURVESEGMENT(.CONTINUOUS.,.T.,#822);
#824= IFCCARTESIANPOINT((25.3124999999526,250.000000000064,-111.374999999991));
#825= IFCAXIS2PLACEMENT3D(#824,#87,#88);
#826= IFCCIRCLE(#825,25.31);
#827= IFCTRIMMEDCURVE(#826,(IFCPARAMETERVALUE(0.)),(IFCPARAMETERVALUE(1.57079632679566)),.T.,.PARAMETER.);
#828= IFCCOMPOSITECURVESEGMENT(.CONTINUOUS.,.T.,#827);
#829= IFCCARTESIANPOINT((25.3124999999612,250.000000000075,-136.687499999991));
#830= IFCLINE(#829,#519);
#831= IFCTRIMMEDCURVE(#830,(IFCPARAMETERVALUE(0.)),(IFCPARAMETERVALUE(219.375)),.T.,.PARAMETER.);
#832= IFCCOMPOSITECURVESEGMENT(.CONTINUOUS.,.T.,#831);
#833= IFCCARTESIANPOINT((244.687499999953,250.000000000227,-111.374999999916));
#834= IFCAXIS2PLACEMENT3D(#833,#87,#236);
#835= IFCCIRCLE(#834,25.31);
#836= IFCTRIMMEDCURVE(#835,(IFCPARAMETERVALUE(0.)),(IFCPARAMETERVALUE(1.57079632679413)),.T.,.PARAMETER.);
#837= IFCCOMPOSITECURVESEGMENT(.CONTINUOUS.,.T.,#836);
#838= IFCCARTESIANPOINT((269.999999999953,250.000000000244,-111.374999999927));
#839= IFCVECTOR(#9,1.);
#840= IFCLINE(#838,#839);
#841= IFCTRIMMEDCURVE(#840,(IFCPARAMETERVALUE(0.)),(IFCPARAMETERVALUE(86.062500000057)),.T.,.PARAMETER.);
#842= IFCCOMPOSITECURVESEGMENT(.CONTINUOUS.,.T.,#841);
#843= IFCCARTESIANPOINT((269.999999999989,275.31250000028,-25.3124999998807));
#844= IFCAXIS2PLACEMENT3D(#843,#88,#87);
#845= IFCCIRCLE(#844,25.31);
#846= IFCTRIMMEDCURVE(#845,(IFCPARAMETERVALUE(0.)),(IFCPARAMETERVALUE(1.57079632679341)),.T.,.PARAMETER.);
#847= IFCCOMPOSITECURVESEGMENT(.CONTINUOUS.,.T.,#846);
#848= IFCCARTESIANPOINT((270.,275.312500000253,1.19257492769975E-10));
#849= IFCLINE(#848,#811);
#850= IFCTRIMMEDCURVE(#849,(IFCPARAMETERVALUE(0.)),(IFCPARAMETERVALUE(224.687500000038)),.T.,.PARAMETER.);
#851= IFCCOMPOSITECURVESEGMENT(.DISCONTINUOUS.,.T.,#850);
#852= IFCCOMPOSITECURVE((#814,#819,#823,#828,#832,#837,#842,#847,#851),.F.);
#853= IFCSWEPTDISKSOLID(#852,5.3125,$,0.,847.158185307274);
#854= IFCSTYLEDITEM(#853,(#415),$);
#855= IFCCARTESIANPOINT((5.82076609134674E-11,-360.00000000064,180.));
#856= IFCCARTESIANTRANSFORMATIONOPERATOR3D($,$,#855,$,$);
#857= IFCSHAPEREPRESENTATION(#13,'Body','AdvancedSweptSolid',(#853));
#858= IFCREPRESENTATIONMAP(#10,#857);
#859= IFCMAPPEDITEM(#858,#856);
#860= IFCVECTOR(#8,1.);
#861= IFCLINE(#6,#860);
#862= IFCTRIMMEDCURVE(#861,(IFCPARAMETERVALUE(0.)),(IFCPARAMETERVALUE(224.687500000011)),.T.,.PARAMETER.);
#863= IFCCOMPOSITECURVESEGMENT(.CONTINUOUS.,.T.,#862);
#864= IFCTRIMMEDCURVE(#821,(IFCPARAMETERVALUE(0.)),(IFCPARAMETERVALUE(86.0624999999913)),.T.,.PARAMETER.);
#865= IFCCOMPOSITECURVESEGMENT(.CONTINUOUS.,.T.,#864);
#866= IFCLINE(#838,#257);
#867= IFCTRIMMEDCURVE(#866,(IFCPARAMETERVALUE(0.)),(IFCPARAMETERVALUE(86.0625000000571)),.T.,.PARAMETER.);
#868= IFCCOMPOSITECURVESEGMENT(.CONTINUOUS.,.T.,#867);
#869= IFCTRIMMEDCURVE(#849,(IFCPARAMETERVALUE(0.)),(IFCPARAMETERVALUE(224.687500000038)),.T.,.PARAMETER.);
#870= IFCCOMPOSITECURVESEGMENT(.DISCONTINUOUS.,.T.,#869);
#871= IFCCOMPOSITECURVE((#863,#819,#865,#828,#832,#837,#868,#847,#870),.F.);
#872= IFCSWEPTDISKSOLID(#871,5.3125,$,0.,847.158185307274);
#873= IFCSTYLEDITEM(#872,(#415),$);
#874= IFCCARTESIANPOINT((5.82076609134674E-11,1139.99999999936,180.));
#875= IFCCARTESIANTRANSFORMATIONOPERATOR3D($,$,#874,$,$);
#876= IFCSHAPEREPRESENTATION(#13,'Body','AdvancedSweptSolid',(#872));
#877= IFCREPRESENTATIONMAP(#10,#876);
#878= IFCMAPPEDITEM(#877,#875);
#879= IFCTRIMMEDCURVE(#812,(IFCPARAMETERVALUE(0.)),(IFCPARAMETERVALUE(224.687500000011)),.T.,.PARAMETER.);
#880= IFCCOMPOSITECURVESEGMENT(.CONTINUOUS.,.T.,#879);
#881= IFCTRIMMEDCURVE(#821,(IFCPARAMETERVALUE(0.)),(IFCPARAMETERVALUE(86.0624999999914)),.T.,.PARAMETER.);
#882= IFCCOMPOSITECURVESEGMENT(.CONTINUOUS.,.T.,#881);
#883= IFCTRIMMEDCURVE(#866,(IFCPARAMETERVALUE(0.)),(IFCPARAMETERVALUE(86.0625000000571)),.T.,.PARAMETER.);
#884= IFCCOMPOSITECURVESEGMENT(.CONTINUOUS.,.T.,#883);
#885= IFCCOMPOSITECURVE((#880,#819,#882,#828,#832,#837,#884,#847,#870),.F.);
#886= IFCSWEPTDISKSOLID(#885,5.3125,$,0.,847.158185307275);
#887= IFCSTYLEDITEM(#886,(#415),$);
#888= IFCCARTESIANPOINT((5.82076609134674E-11,2639.99999999936,180.));
#889= IFCCARTESIANTRANSFORMATIONOPERATOR3D($,$,#888,$,$);
#890= IFCSHAPEREPRESENTATION(#13,'Body','AdvancedSweptSolid',(#886));
#891= IFCREPRESENTATIONMAP(#10,#890);
#892= IFCMAPPEDITEM(#891,#889);
#893= IFCSHAPEREPRESENTATION(#13,'Body','MappedRepresentation',(#859,#878,#892));
#894= IFCPRODUCTDEFINITIONSHAPE($,$,(#893));
#895= IFCCARTESIANPOINT((425134.999999999,440615.3125,-676.690000000087));
#896= IFCAXIS2PLACEMENT3D(#895,#236,#88);
#897= IFCLOCALPLACEMENT(#193,#896);
#898= IFCREINFORCINGBAR('2l5bfXXj1EqQIZY_9rjxWD',#47,$,$,$,#897,#894,'IDaf165a61-86d0-4ed1-a4a3-8be275b7b80d',$,10.625,0.,$,.NOTDEFINED.,.NULL.);
#899= IFCPROPERTYSINGLEVALUE('WEIGHT_TOTAL_IN_GROUP',$,IFCMASSMEASURE(1.85038),$);
#900= IFCPROPERTYSINGLEVALUE('SHAPE',$,IFCLABEL('20_1'),$);
#901= IFCPROPERTYSINGLEVALUE('REBAR_POS',$,IFCLABEL('31'),$);
#902= IFCPROPERTYSINGLEVALUE('NUMBER_OF_BARS_IN_GROUP',$,IFCINTEGER(3),$);
#903= IFCPROPERTYSINGLEVALUE('GUID',$,IFCLABEL('af165a61-86d0-4ed1-a4a3-8be275b7b80d'),$);
#904= IFCPROPERTYSINGLEVALUE('DIM_L',$,$,$);
#905= IFCPROPERTYSINGLEVALUE('DIM_E',$,IFCLENGTHMEASURE(255.),$);
#906= IFCPROPERTYSINGLEVALUE('DIM_D',$,IFCLENGTHMEASURE(147.),$);
#907= IFCPROPERTYSINGLEVALUE('DIM_C',$,IFCLENGTHMEASURE(280.),$);
#908= IFCPROPERTYSINGLEVALUE('DIM_B',$,IFCLENGTHMEASURE(147.),$);
#909= IFCPROPERTYSINGLEVALUE('DIM_A',$,IFCLENGTHMEASURE(255.),$);
#910= IFCPROPERTYSINGLEVALUE('DIAMETER_NOMINAL',$,IFCLENGTHMEASURE(10.),$);
#911= IFCPROPERTYSINGLEVALUE('CONCRETE_COVER_ON_PLANE_MIN',$,IFCLENGTHMEASURE(0.),$);
#912= IFCPROPERTYSINGLEVALUE('CC_TARGET',$,IFCLENGTHMEASURE(1500.),$);
#913= IFCPROPERTYSET('2SgKbhQ3H7SBORbP_UGsOz',#5,'Rebar_properties',$,(#72,#73,#74,#69,#70,#899,#900,#901,#902,#309,#310,#311,#312,#313,#435,#315,#436,#903,#318,#904,#905,#906,#907,#908,#909,#910,#911,#912,#328,#329,#330));
#914= IFCPROPERTYSINGLEVALUE('NAME',$,IFCLABEL('ID Interconnecting OSBL Estabilizadora Temprana TTY'),$);
#915= IFCPROPERTYSINGLEVALUE('MODEL',$,IFCLABEL('CIV-01-PL-1239-FUND. TR-12.db1'),$);
#916= IFCPROPERTYSINGLEVALUE('LOCATION',$,IFCLABEL('NEUQU\S\IN'),$);
#917= IFCPROPERTYSINGLEVALUE('DATE_START',$,IFCLABEL('fecha inicial'),$);
#918= IFCPROPERTYSINGLEVALUE('DATE_END',$,IFCLABEL(''),$);
#919= IFCPROPERTYSINGLEVALUE('DATE',$,$,$);
#920= IFCPROPERTYSET('00Ha5ief5C9Qy0Sg3oe93S',#5,'PROYECTO',$,(#914,#915,#916,#917,#918,#919));
#921= IFCRELAGGREGATES('0vVmCcqFj0d8HQkXeGdfNy',#5,$,$,#37,(#41));
#922= IFCRELAGGREGATES('2Wsj6Antz6bRdjirB6iMRA',#5,$,$,#41,(#44));
#923= IFCRELAGGREGATES('06Bmqs0IXBgxzwqEf534CI',#5,$,$,#44,(#46));
#924= IFCRELAGGREGATES('2MWqWkrdfDAPRRQXgxDNMx',#5,$,$,#49,(#98));
#925= IFCRELAGGREGATES('2CXV_CI2P6gQdNJ3RKxlSe',#5,$,$,#137,(#146));
#926= IFCRELAGGREGATES('3WochbhF19BeTLy530CF1q',#5,$,$,#150,(#177));
#927= IFCRELAGGREGATES('1MwddFbg1A2eT1Hn1OTxor',#5,$,$,#194,(#898,#808,#636,#458,#430,#406,#304,#220));
#928= IFCRELCONTAINEDINSPATIALSTRUCTURE('0m0gGrksb3SgIRy9$d02L3',#5,$,$,(#194,#150,#137,#49),#46);
#929= IFCRELDEFINESBYPROPERTIES('0gDU5J5fH22RQQGkguHHSX',#5,$,$,(#49),#76);
#930= IFCRELDEFINESBYPROPERTIES('3$Y9y7tvH1KQOT3pQPmc94',#5,$,$,(#137,#49),#78);
#931= IFCRELDEFINESBYPROPERTIES('0BxGRjCSnBRf4bEfCebe75',#5,$,$,(#98),#126);
#932= IFCRELDEFINESBYPROPERTIES('0AeQrTmBr25gHLHjuOwImn',#5,$,$,(#146,#98),#129);
#933= IFCRELDEFINESBYPROPERTIES('0Zy9cUf9TC1wj0JOukEtii',#5,$,$,(#146,#98),#134);
#934= IFCRELDEFINESBYPROPERTIES('2xk6JZqarD7epbpaLKKjYy',#5,$,$,(#137),#140);
#935= IFCRELDEFINESBYPROPERTIES('2$bXTgJLHCpgrSJtEYzeac',#5,$,$,(#146),#148);
#936= IFCRELDEFINESBYPROPERTIES('1gE1ZZRzD35u25TOvx4wcd',#5,$,$,(#150),#160);
#937= IFCRELDEFINESBYPROPERTIES('2ty68uYe138xXMvs__BWzT',#5,$,$,(#150),#162);
#938= IFCRELDEFINESBYPROPERTIES('2i00zgdgn03AbdPXMS764S',#5,$,$,(#177),#181);
#939= IFCRELDEFINESBYPROPERTIES('0UgB$2JFnDmhvEhMiSoOOJ',#5,$,$,(#177),#191);
#940= IFCRELDEFINESBYPROPERTIES('3cVJwj19f6HetftfqmCaHB',#5,$,$,(#194),#203);
#941= IFCRELDEFINESBYPROPERTIES('0dbRAOyKbDwfM4DOw$2jvI',#5,$,$,(#194),#205);
#942= IFCRELDEFINESBYPROPERTIES('1$LNu_UnXENRh6uRIKHLqY',#5,$,$,(#220),#223);
#943= IFCRELDEFINESBYPROPERTIES('1s7$JVPSHBjQKX2Wa6Fcaf',#5,$,$,(#220),#233);
#944= IFCRELDEFINESBYPROPERTIES('3eHKZdNoX8gAz4ohYP6ZNy',#5,$,$,(#304),#331);
#945= IFCRELDEFINESBYPROPERTIES('0f6ukTJUnFDu_ofxup4P9b',#5,$,$,(#406),#411);
#946= IFCRELDEFINESBYPROPERTIES('2WdbSH9bn79hUDzWfn9rBz',#5,$,$,(#430),#444);
#947= IFCRELDEFINESBYPROPERTIES('1jHINXNYfDDQlw1qUqrJxt',#5,$,$,(#458),#465);
#948= IFCRELDEFINESBYPROPERTIES('3LI2f3Whj6yeQfOa8_LPhw',#5,$,$,(#636),#644);
#949= IFCRELDEFINESBYPROPERTIES('0IqtTl_z54oOazSrdr3JST',#5,$,$,(#808),#810);
#950= IFCRELDEFINESBYPROPERTIES('1LRzw_SLL6uv8JPd$DZ7Sg',#5,$,$,(#898),#913);
#951= IFCRELDEFINESBYPROPERTIES('2RE5$gu2b48g5dOd27QeRo',#5,$,$,(#37),#920);
#952= IFCRELDEFINESBYTYPE('3_Su6Wi9LC6Oo0B$yeIun8',#5,$,$,(#146,#98),#99);
#953= IFCRELASSOCIATESMATERIAL('3yYEhlntf6vejYZ$BlUZe0',#5,$,$,(#146,#98),#135);
#954= IFCRELASSOCIATESMATERIAL('1ZYm_hmI1CMBwiRnZCPiZp',#5,$,$,(#220,#177),#192);
#955= IFCRELASSOCIATESMATERIAL('2xkfP74CL9vx_gcrehW3tE',#5,$,$,(#898,#808,#636,#458,#430,#406,#304),#332);
#956= IFCPRESENTATIONLAYERASSIGNMENT('VIGA',$,(#92,#141),$);
#957= IFCPRESENTATIONLAYERASSIGNMENT('[H\S\0 LIMPIEZA TRAFO]',$,(#171),$);
#958= IFCPRESENTATIONLAYERASSIGNMENT('FUNDACI\S\SN',$,(#214),$);
#959= IFCPRESENTATIONLAYERASSIGNMENT('Undefined',$,(#299,#401,#425,#453,#631,#803,#893),$);
ENDSEC;

END-ISO-10303-21;
